G04 #@! TF.GenerationSoftware,KiCad,Pcbnew,5.1.6-c6e7f7d~87~ubuntu18.04.1*
G04 #@! TF.CreationDate,2020-07-17T19:47:34-05:00*
G04 #@! TF.ProjectId,relojBin,72656c6f-6a42-4696-9e2e-6b696361645f,1.0.8*
G04 #@! TF.SameCoordinates,Original*
G04 #@! TF.FileFunction,Copper,L1,Top*
G04 #@! TF.FilePolarity,Positive*
%FSLAX46Y46*%
G04 Gerber Fmt 4.6, Leading zero omitted, Abs format (unit mm)*
G04 Created by KiCad (PCBNEW 5.1.6-c6e7f7d~87~ubuntu18.04.1) date 2020-07-17 19:47:34*
%MOMM*%
%LPD*%
G01*
G04 APERTURE LIST*
G04 #@! TA.AperFunction,SMDPad,CuDef*
%ADD10R,0.600000X0.850000*%
G04 #@! TD*
G04 #@! TA.AperFunction,SMDPad,CuDef*
%ADD11R,1.450000X1.100000*%
G04 #@! TD*
G04 #@! TA.AperFunction,ComponentPad*
%ADD12C,1.000000*%
G04 #@! TD*
G04 #@! TA.AperFunction,ComponentPad*
%ADD13O,1.600000X1.600000*%
G04 #@! TD*
G04 #@! TA.AperFunction,ComponentPad*
%ADD14R,1.600000X1.600000*%
G04 #@! TD*
G04 #@! TA.AperFunction,ComponentPad*
%ADD15R,3.000000X3.000000*%
G04 #@! TD*
G04 #@! TA.AperFunction,ComponentPad*
%ADD16C,3.000000*%
G04 #@! TD*
G04 #@! TA.AperFunction,ComponentPad*
%ADD17O,1.700000X1.700000*%
G04 #@! TD*
G04 #@! TA.AperFunction,ComponentPad*
%ADD18R,1.700000X1.700000*%
G04 #@! TD*
G04 #@! TA.AperFunction,Conductor*
%ADD19C,0.250000*%
G04 #@! TD*
G04 #@! TA.AperFunction,Conductor*
%ADD20C,0.254000*%
G04 #@! TD*
G04 APERTURE END LIST*
D10*
X107340000Y-74435000D03*
X100940000Y-74435000D03*
D11*
X106415000Y-72760000D03*
X101865000Y-72760000D03*
D10*
X90495000Y-74350000D03*
X84095000Y-74350000D03*
D11*
X89570000Y-72675000D03*
X85020000Y-72675000D03*
D10*
X98450000Y-74435000D03*
X92050000Y-74435000D03*
D11*
X97525000Y-72760000D03*
X92975000Y-72760000D03*
D10*
X81940000Y-74435000D03*
X75540000Y-74435000D03*
D11*
X81015000Y-72760000D03*
X76465000Y-72760000D03*
D12*
X69850000Y-73660000D03*
X69850000Y-76200000D03*
D13*
X68580000Y-69850000D03*
X60960000Y-77470000D03*
X66040000Y-69850000D03*
X63500000Y-77470000D03*
X63500000Y-69850000D03*
X66040000Y-77470000D03*
X60960000Y-69850000D03*
D14*
X68580000Y-77470000D03*
G04 #@! TA.AperFunction,SMDPad,CuDef*
G36*
G01*
X92453750Y-61310000D02*
X92966250Y-61310000D01*
G75*
G02*
X93185000Y-61528750I0J-218750D01*
G01*
X93185000Y-61966250D01*
G75*
G02*
X92966250Y-62185000I-218750J0D01*
G01*
X92453750Y-62185000D01*
G75*
G02*
X92235000Y-61966250I0J218750D01*
G01*
X92235000Y-61528750D01*
G75*
G02*
X92453750Y-61310000I218750J0D01*
G01*
G37*
G04 #@! TD.AperFunction*
G04 #@! TA.AperFunction,SMDPad,CuDef*
G36*
G01*
X92453750Y-59735000D02*
X92966250Y-59735000D01*
G75*
G02*
X93185000Y-59953750I0J-218750D01*
G01*
X93185000Y-60391250D01*
G75*
G02*
X92966250Y-60610000I-218750J0D01*
G01*
X92453750Y-60610000D01*
G75*
G02*
X92235000Y-60391250I0J218750D01*
G01*
X92235000Y-59953750D01*
G75*
G02*
X92453750Y-59735000I218750J0D01*
G01*
G37*
G04 #@! TD.AperFunction*
G04 #@! TA.AperFunction,SMDPad,CuDef*
G36*
G01*
X89913750Y-61310000D02*
X90426250Y-61310000D01*
G75*
G02*
X90645000Y-61528750I0J-218750D01*
G01*
X90645000Y-61966250D01*
G75*
G02*
X90426250Y-62185000I-218750J0D01*
G01*
X89913750Y-62185000D01*
G75*
G02*
X89695000Y-61966250I0J218750D01*
G01*
X89695000Y-61528750D01*
G75*
G02*
X89913750Y-61310000I218750J0D01*
G01*
G37*
G04 #@! TD.AperFunction*
G04 #@! TA.AperFunction,SMDPad,CuDef*
G36*
G01*
X89913750Y-59735000D02*
X90426250Y-59735000D01*
G75*
G02*
X90645000Y-59953750I0J-218750D01*
G01*
X90645000Y-60391250D01*
G75*
G02*
X90426250Y-60610000I-218750J0D01*
G01*
X89913750Y-60610000D01*
G75*
G02*
X89695000Y-60391250I0J218750D01*
G01*
X89695000Y-59953750D01*
G75*
G02*
X89913750Y-59735000I218750J0D01*
G01*
G37*
G04 #@! TD.AperFunction*
G04 #@! TA.AperFunction,SMDPad,CuDef*
G36*
G01*
X87373750Y-61310000D02*
X87886250Y-61310000D01*
G75*
G02*
X88105000Y-61528750I0J-218750D01*
G01*
X88105000Y-61966250D01*
G75*
G02*
X87886250Y-62185000I-218750J0D01*
G01*
X87373750Y-62185000D01*
G75*
G02*
X87155000Y-61966250I0J218750D01*
G01*
X87155000Y-61528750D01*
G75*
G02*
X87373750Y-61310000I218750J0D01*
G01*
G37*
G04 #@! TD.AperFunction*
G04 #@! TA.AperFunction,SMDPad,CuDef*
G36*
G01*
X87373750Y-59735000D02*
X87886250Y-59735000D01*
G75*
G02*
X88105000Y-59953750I0J-218750D01*
G01*
X88105000Y-60391250D01*
G75*
G02*
X87886250Y-60610000I-218750J0D01*
G01*
X87373750Y-60610000D01*
G75*
G02*
X87155000Y-60391250I0J218750D01*
G01*
X87155000Y-59953750D01*
G75*
G02*
X87373750Y-59735000I218750J0D01*
G01*
G37*
G04 #@! TD.AperFunction*
G04 #@! TA.AperFunction,SMDPad,CuDef*
G36*
G01*
X84833750Y-61310000D02*
X85346250Y-61310000D01*
G75*
G02*
X85565000Y-61528750I0J-218750D01*
G01*
X85565000Y-61966250D01*
G75*
G02*
X85346250Y-62185000I-218750J0D01*
G01*
X84833750Y-62185000D01*
G75*
G02*
X84615000Y-61966250I0J218750D01*
G01*
X84615000Y-61528750D01*
G75*
G02*
X84833750Y-61310000I218750J0D01*
G01*
G37*
G04 #@! TD.AperFunction*
G04 #@! TA.AperFunction,SMDPad,CuDef*
G36*
G01*
X84833750Y-59735000D02*
X85346250Y-59735000D01*
G75*
G02*
X85565000Y-59953750I0J-218750D01*
G01*
X85565000Y-60391250D01*
G75*
G02*
X85346250Y-60610000I-218750J0D01*
G01*
X84833750Y-60610000D01*
G75*
G02*
X84615000Y-60391250I0J218750D01*
G01*
X84615000Y-59953750D01*
G75*
G02*
X84833750Y-59735000I218750J0D01*
G01*
G37*
G04 #@! TD.AperFunction*
G04 #@! TA.AperFunction,SMDPad,CuDef*
G36*
G01*
X82293750Y-61310000D02*
X82806250Y-61310000D01*
G75*
G02*
X83025000Y-61528750I0J-218750D01*
G01*
X83025000Y-61966250D01*
G75*
G02*
X82806250Y-62185000I-218750J0D01*
G01*
X82293750Y-62185000D01*
G75*
G02*
X82075000Y-61966250I0J218750D01*
G01*
X82075000Y-61528750D01*
G75*
G02*
X82293750Y-61310000I218750J0D01*
G01*
G37*
G04 #@! TD.AperFunction*
G04 #@! TA.AperFunction,SMDPad,CuDef*
G36*
G01*
X82293750Y-59735000D02*
X82806250Y-59735000D01*
G75*
G02*
X83025000Y-59953750I0J-218750D01*
G01*
X83025000Y-60391250D01*
G75*
G02*
X82806250Y-60610000I-218750J0D01*
G01*
X82293750Y-60610000D01*
G75*
G02*
X82075000Y-60391250I0J218750D01*
G01*
X82075000Y-59953750D01*
G75*
G02*
X82293750Y-59735000I218750J0D01*
G01*
G37*
G04 #@! TD.AperFunction*
G04 #@! TA.AperFunction,SMDPad,CuDef*
G36*
G01*
X80388750Y-61310000D02*
X80901250Y-61310000D01*
G75*
G02*
X81120000Y-61528750I0J-218750D01*
G01*
X81120000Y-61966250D01*
G75*
G02*
X80901250Y-62185000I-218750J0D01*
G01*
X80388750Y-62185000D01*
G75*
G02*
X80170000Y-61966250I0J218750D01*
G01*
X80170000Y-61528750D01*
G75*
G02*
X80388750Y-61310000I218750J0D01*
G01*
G37*
G04 #@! TD.AperFunction*
G04 #@! TA.AperFunction,SMDPad,CuDef*
G36*
G01*
X80388750Y-59735000D02*
X80901250Y-59735000D01*
G75*
G02*
X81120000Y-59953750I0J-218750D01*
G01*
X81120000Y-60391250D01*
G75*
G02*
X80901250Y-60610000I-218750J0D01*
G01*
X80388750Y-60610000D01*
G75*
G02*
X80170000Y-60391250I0J218750D01*
G01*
X80170000Y-59953750D01*
G75*
G02*
X80388750Y-59735000I218750J0D01*
G01*
G37*
G04 #@! TD.AperFunction*
G04 #@! TA.AperFunction,SMDPad,CuDef*
G36*
G01*
X74038750Y-61310000D02*
X74551250Y-61310000D01*
G75*
G02*
X74770000Y-61528750I0J-218750D01*
G01*
X74770000Y-61966250D01*
G75*
G02*
X74551250Y-62185000I-218750J0D01*
G01*
X74038750Y-62185000D01*
G75*
G02*
X73820000Y-61966250I0J218750D01*
G01*
X73820000Y-61528750D01*
G75*
G02*
X74038750Y-61310000I218750J0D01*
G01*
G37*
G04 #@! TD.AperFunction*
G04 #@! TA.AperFunction,SMDPad,CuDef*
G36*
G01*
X74038750Y-59735000D02*
X74551250Y-59735000D01*
G75*
G02*
X74770000Y-59953750I0J-218750D01*
G01*
X74770000Y-60391250D01*
G75*
G02*
X74551250Y-60610000I-218750J0D01*
G01*
X74038750Y-60610000D01*
G75*
G02*
X73820000Y-60391250I0J218750D01*
G01*
X73820000Y-59953750D01*
G75*
G02*
X74038750Y-59735000I218750J0D01*
G01*
G37*
G04 #@! TD.AperFunction*
G04 #@! TA.AperFunction,SMDPad,CuDef*
G36*
G01*
X72133750Y-61310000D02*
X72646250Y-61310000D01*
G75*
G02*
X72865000Y-61528750I0J-218750D01*
G01*
X72865000Y-61966250D01*
G75*
G02*
X72646250Y-62185000I-218750J0D01*
G01*
X72133750Y-62185000D01*
G75*
G02*
X71915000Y-61966250I0J218750D01*
G01*
X71915000Y-61528750D01*
G75*
G02*
X72133750Y-61310000I218750J0D01*
G01*
G37*
G04 #@! TD.AperFunction*
G04 #@! TA.AperFunction,SMDPad,CuDef*
G36*
G01*
X72133750Y-59735000D02*
X72646250Y-59735000D01*
G75*
G02*
X72865000Y-59953750I0J-218750D01*
G01*
X72865000Y-60391250D01*
G75*
G02*
X72646250Y-60610000I-218750J0D01*
G01*
X72133750Y-60610000D01*
G75*
G02*
X71915000Y-60391250I0J218750D01*
G01*
X71915000Y-59953750D01*
G75*
G02*
X72133750Y-59735000I218750J0D01*
G01*
G37*
G04 #@! TD.AperFunction*
G04 #@! TA.AperFunction,SMDPad,CuDef*
G36*
G01*
X70228750Y-61310000D02*
X70741250Y-61310000D01*
G75*
G02*
X70960000Y-61528750I0J-218750D01*
G01*
X70960000Y-61966250D01*
G75*
G02*
X70741250Y-62185000I-218750J0D01*
G01*
X70228750Y-62185000D01*
G75*
G02*
X70010000Y-61966250I0J218750D01*
G01*
X70010000Y-61528750D01*
G75*
G02*
X70228750Y-61310000I218750J0D01*
G01*
G37*
G04 #@! TD.AperFunction*
G04 #@! TA.AperFunction,SMDPad,CuDef*
G36*
G01*
X70228750Y-59735000D02*
X70741250Y-59735000D01*
G75*
G02*
X70960000Y-59953750I0J-218750D01*
G01*
X70960000Y-60391250D01*
G75*
G02*
X70741250Y-60610000I-218750J0D01*
G01*
X70228750Y-60610000D01*
G75*
G02*
X70010000Y-60391250I0J218750D01*
G01*
X70010000Y-59953750D01*
G75*
G02*
X70228750Y-59735000I218750J0D01*
G01*
G37*
G04 #@! TD.AperFunction*
G04 #@! TA.AperFunction,SMDPad,CuDef*
G36*
G01*
X68323750Y-61310000D02*
X68836250Y-61310000D01*
G75*
G02*
X69055000Y-61528750I0J-218750D01*
G01*
X69055000Y-61966250D01*
G75*
G02*
X68836250Y-62185000I-218750J0D01*
G01*
X68323750Y-62185000D01*
G75*
G02*
X68105000Y-61966250I0J218750D01*
G01*
X68105000Y-61528750D01*
G75*
G02*
X68323750Y-61310000I218750J0D01*
G01*
G37*
G04 #@! TD.AperFunction*
G04 #@! TA.AperFunction,SMDPad,CuDef*
G36*
G01*
X68323750Y-59735000D02*
X68836250Y-59735000D01*
G75*
G02*
X69055000Y-59953750I0J-218750D01*
G01*
X69055000Y-60391250D01*
G75*
G02*
X68836250Y-60610000I-218750J0D01*
G01*
X68323750Y-60610000D01*
G75*
G02*
X68105000Y-60391250I0J218750D01*
G01*
X68105000Y-59953750D01*
G75*
G02*
X68323750Y-59735000I218750J0D01*
G01*
G37*
G04 #@! TD.AperFunction*
G04 #@! TA.AperFunction,SMDPad,CuDef*
G36*
G01*
X66418750Y-61310000D02*
X66931250Y-61310000D01*
G75*
G02*
X67150000Y-61528750I0J-218750D01*
G01*
X67150000Y-61966250D01*
G75*
G02*
X66931250Y-62185000I-218750J0D01*
G01*
X66418750Y-62185000D01*
G75*
G02*
X66200000Y-61966250I0J218750D01*
G01*
X66200000Y-61528750D01*
G75*
G02*
X66418750Y-61310000I218750J0D01*
G01*
G37*
G04 #@! TD.AperFunction*
G04 #@! TA.AperFunction,SMDPad,CuDef*
G36*
G01*
X66418750Y-59735000D02*
X66931250Y-59735000D01*
G75*
G02*
X67150000Y-59953750I0J-218750D01*
G01*
X67150000Y-60391250D01*
G75*
G02*
X66931250Y-60610000I-218750J0D01*
G01*
X66418750Y-60610000D01*
G75*
G02*
X66200000Y-60391250I0J218750D01*
G01*
X66200000Y-59953750D01*
G75*
G02*
X66418750Y-59735000I218750J0D01*
G01*
G37*
G04 #@! TD.AperFunction*
G04 #@! TA.AperFunction,SMDPad,CuDef*
G36*
G01*
X64513750Y-61462500D02*
X65026250Y-61462500D01*
G75*
G02*
X65245000Y-61681250I0J-218750D01*
G01*
X65245000Y-62118750D01*
G75*
G02*
X65026250Y-62337500I-218750J0D01*
G01*
X64513750Y-62337500D01*
G75*
G02*
X64295000Y-62118750I0J218750D01*
G01*
X64295000Y-61681250D01*
G75*
G02*
X64513750Y-61462500I218750J0D01*
G01*
G37*
G04 #@! TD.AperFunction*
G04 #@! TA.AperFunction,SMDPad,CuDef*
G36*
G01*
X64513750Y-59887500D02*
X65026250Y-59887500D01*
G75*
G02*
X65245000Y-60106250I0J-218750D01*
G01*
X65245000Y-60543750D01*
G75*
G02*
X65026250Y-60762500I-218750J0D01*
G01*
X64513750Y-60762500D01*
G75*
G02*
X64295000Y-60543750I0J218750D01*
G01*
X64295000Y-60106250D01*
G75*
G02*
X64513750Y-59887500I218750J0D01*
G01*
G37*
G04 #@! TD.AperFunction*
G04 #@! TA.AperFunction,SMDPad,CuDef*
G36*
G01*
X59433750Y-61310000D02*
X59946250Y-61310000D01*
G75*
G02*
X60165000Y-61528750I0J-218750D01*
G01*
X60165000Y-61966250D01*
G75*
G02*
X59946250Y-62185000I-218750J0D01*
G01*
X59433750Y-62185000D01*
G75*
G02*
X59215000Y-61966250I0J218750D01*
G01*
X59215000Y-61528750D01*
G75*
G02*
X59433750Y-61310000I218750J0D01*
G01*
G37*
G04 #@! TD.AperFunction*
G04 #@! TA.AperFunction,SMDPad,CuDef*
G36*
G01*
X59433750Y-59735000D02*
X59946250Y-59735000D01*
G75*
G02*
X60165000Y-59953750I0J-218750D01*
G01*
X60165000Y-60391250D01*
G75*
G02*
X59946250Y-60610000I-218750J0D01*
G01*
X59433750Y-60610000D01*
G75*
G02*
X59215000Y-60391250I0J218750D01*
G01*
X59215000Y-59953750D01*
G75*
G02*
X59433750Y-59735000I218750J0D01*
G01*
G37*
G04 #@! TD.AperFunction*
G04 #@! TA.AperFunction,SMDPad,CuDef*
G36*
G01*
X57528750Y-61310000D02*
X58041250Y-61310000D01*
G75*
G02*
X58260000Y-61528750I0J-218750D01*
G01*
X58260000Y-61966250D01*
G75*
G02*
X58041250Y-62185000I-218750J0D01*
G01*
X57528750Y-62185000D01*
G75*
G02*
X57310000Y-61966250I0J218750D01*
G01*
X57310000Y-61528750D01*
G75*
G02*
X57528750Y-61310000I218750J0D01*
G01*
G37*
G04 #@! TD.AperFunction*
G04 #@! TA.AperFunction,SMDPad,CuDef*
G36*
G01*
X57528750Y-59735000D02*
X58041250Y-59735000D01*
G75*
G02*
X58260000Y-59953750I0J-218750D01*
G01*
X58260000Y-60391250D01*
G75*
G02*
X58041250Y-60610000I-218750J0D01*
G01*
X57528750Y-60610000D01*
G75*
G02*
X57310000Y-60391250I0J218750D01*
G01*
X57310000Y-59953750D01*
G75*
G02*
X57528750Y-59735000I218750J0D01*
G01*
G37*
G04 #@! TD.AperFunction*
G04 #@! TA.AperFunction,SMDPad,CuDef*
G36*
G01*
X55623750Y-61310000D02*
X56136250Y-61310000D01*
G75*
G02*
X56355000Y-61528750I0J-218750D01*
G01*
X56355000Y-61966250D01*
G75*
G02*
X56136250Y-62185000I-218750J0D01*
G01*
X55623750Y-62185000D01*
G75*
G02*
X55405000Y-61966250I0J218750D01*
G01*
X55405000Y-61528750D01*
G75*
G02*
X55623750Y-61310000I218750J0D01*
G01*
G37*
G04 #@! TD.AperFunction*
G04 #@! TA.AperFunction,SMDPad,CuDef*
G36*
G01*
X55623750Y-59735000D02*
X56136250Y-59735000D01*
G75*
G02*
X56355000Y-59953750I0J-218750D01*
G01*
X56355000Y-60391250D01*
G75*
G02*
X56136250Y-60610000I-218750J0D01*
G01*
X55623750Y-60610000D01*
G75*
G02*
X55405000Y-60391250I0J218750D01*
G01*
X55405000Y-59953750D01*
G75*
G02*
X55623750Y-59735000I218750J0D01*
G01*
G37*
G04 #@! TD.AperFunction*
G04 #@! TA.AperFunction,SMDPad,CuDef*
G36*
G01*
X53718750Y-61310000D02*
X54231250Y-61310000D01*
G75*
G02*
X54450000Y-61528750I0J-218750D01*
G01*
X54450000Y-61966250D01*
G75*
G02*
X54231250Y-62185000I-218750J0D01*
G01*
X53718750Y-62185000D01*
G75*
G02*
X53500000Y-61966250I0J218750D01*
G01*
X53500000Y-61528750D01*
G75*
G02*
X53718750Y-61310000I218750J0D01*
G01*
G37*
G04 #@! TD.AperFunction*
G04 #@! TA.AperFunction,SMDPad,CuDef*
G36*
G01*
X53718750Y-59735000D02*
X54231250Y-59735000D01*
G75*
G02*
X54450000Y-59953750I0J-218750D01*
G01*
X54450000Y-60391250D01*
G75*
G02*
X54231250Y-60610000I-218750J0D01*
G01*
X53718750Y-60610000D01*
G75*
G02*
X53500000Y-60391250I0J218750D01*
G01*
X53500000Y-59953750D01*
G75*
G02*
X53718750Y-59735000I218750J0D01*
G01*
G37*
G04 #@! TD.AperFunction*
G04 #@! TA.AperFunction,SMDPad,CuDef*
G36*
G01*
X51813750Y-61310000D02*
X52326250Y-61310000D01*
G75*
G02*
X52545000Y-61528750I0J-218750D01*
G01*
X52545000Y-61966250D01*
G75*
G02*
X52326250Y-62185000I-218750J0D01*
G01*
X51813750Y-62185000D01*
G75*
G02*
X51595000Y-61966250I0J218750D01*
G01*
X51595000Y-61528750D01*
G75*
G02*
X51813750Y-61310000I218750J0D01*
G01*
G37*
G04 #@! TD.AperFunction*
G04 #@! TA.AperFunction,SMDPad,CuDef*
G36*
G01*
X51813750Y-59735000D02*
X52326250Y-59735000D01*
G75*
G02*
X52545000Y-59953750I0J-218750D01*
G01*
X52545000Y-60391250D01*
G75*
G02*
X52326250Y-60610000I-218750J0D01*
G01*
X51813750Y-60610000D01*
G75*
G02*
X51595000Y-60391250I0J218750D01*
G01*
X51595000Y-59953750D01*
G75*
G02*
X51813750Y-59735000I218750J0D01*
G01*
G37*
G04 #@! TD.AperFunction*
G04 #@! TA.AperFunction,SMDPad,CuDef*
G36*
G01*
X92966250Y-64420000D02*
X92453750Y-64420000D01*
G75*
G02*
X92235000Y-64201250I0J218750D01*
G01*
X92235000Y-63763750D01*
G75*
G02*
X92453750Y-63545000I218750J0D01*
G01*
X92966250Y-63545000D01*
G75*
G02*
X93185000Y-63763750I0J-218750D01*
G01*
X93185000Y-64201250D01*
G75*
G02*
X92966250Y-64420000I-218750J0D01*
G01*
G37*
G04 #@! TD.AperFunction*
G04 #@! TA.AperFunction,SMDPad,CuDef*
G36*
G01*
X92966250Y-65995000D02*
X92453750Y-65995000D01*
G75*
G02*
X92235000Y-65776250I0J218750D01*
G01*
X92235000Y-65338750D01*
G75*
G02*
X92453750Y-65120000I218750J0D01*
G01*
X92966250Y-65120000D01*
G75*
G02*
X93185000Y-65338750I0J-218750D01*
G01*
X93185000Y-65776250D01*
G75*
G02*
X92966250Y-65995000I-218750J0D01*
G01*
G37*
G04 #@! TD.AperFunction*
G04 #@! TA.AperFunction,SMDPad,CuDef*
G36*
G01*
X90426250Y-64420000D02*
X89913750Y-64420000D01*
G75*
G02*
X89695000Y-64201250I0J218750D01*
G01*
X89695000Y-63763750D01*
G75*
G02*
X89913750Y-63545000I218750J0D01*
G01*
X90426250Y-63545000D01*
G75*
G02*
X90645000Y-63763750I0J-218750D01*
G01*
X90645000Y-64201250D01*
G75*
G02*
X90426250Y-64420000I-218750J0D01*
G01*
G37*
G04 #@! TD.AperFunction*
G04 #@! TA.AperFunction,SMDPad,CuDef*
G36*
G01*
X90426250Y-65995000D02*
X89913750Y-65995000D01*
G75*
G02*
X89695000Y-65776250I0J218750D01*
G01*
X89695000Y-65338750D01*
G75*
G02*
X89913750Y-65120000I218750J0D01*
G01*
X90426250Y-65120000D01*
G75*
G02*
X90645000Y-65338750I0J-218750D01*
G01*
X90645000Y-65776250D01*
G75*
G02*
X90426250Y-65995000I-218750J0D01*
G01*
G37*
G04 #@! TD.AperFunction*
G04 #@! TA.AperFunction,SMDPad,CuDef*
G36*
G01*
X87886250Y-64420000D02*
X87373750Y-64420000D01*
G75*
G02*
X87155000Y-64201250I0J218750D01*
G01*
X87155000Y-63763750D01*
G75*
G02*
X87373750Y-63545000I218750J0D01*
G01*
X87886250Y-63545000D01*
G75*
G02*
X88105000Y-63763750I0J-218750D01*
G01*
X88105000Y-64201250D01*
G75*
G02*
X87886250Y-64420000I-218750J0D01*
G01*
G37*
G04 #@! TD.AperFunction*
G04 #@! TA.AperFunction,SMDPad,CuDef*
G36*
G01*
X87886250Y-65995000D02*
X87373750Y-65995000D01*
G75*
G02*
X87155000Y-65776250I0J218750D01*
G01*
X87155000Y-65338750D01*
G75*
G02*
X87373750Y-65120000I218750J0D01*
G01*
X87886250Y-65120000D01*
G75*
G02*
X88105000Y-65338750I0J-218750D01*
G01*
X88105000Y-65776250D01*
G75*
G02*
X87886250Y-65995000I-218750J0D01*
G01*
G37*
G04 #@! TD.AperFunction*
G04 #@! TA.AperFunction,SMDPad,CuDef*
G36*
G01*
X85346250Y-64420000D02*
X84833750Y-64420000D01*
G75*
G02*
X84615000Y-64201250I0J218750D01*
G01*
X84615000Y-63763750D01*
G75*
G02*
X84833750Y-63545000I218750J0D01*
G01*
X85346250Y-63545000D01*
G75*
G02*
X85565000Y-63763750I0J-218750D01*
G01*
X85565000Y-64201250D01*
G75*
G02*
X85346250Y-64420000I-218750J0D01*
G01*
G37*
G04 #@! TD.AperFunction*
G04 #@! TA.AperFunction,SMDPad,CuDef*
G36*
G01*
X85346250Y-65995000D02*
X84833750Y-65995000D01*
G75*
G02*
X84615000Y-65776250I0J218750D01*
G01*
X84615000Y-65338750D01*
G75*
G02*
X84833750Y-65120000I218750J0D01*
G01*
X85346250Y-65120000D01*
G75*
G02*
X85565000Y-65338750I0J-218750D01*
G01*
X85565000Y-65776250D01*
G75*
G02*
X85346250Y-65995000I-218750J0D01*
G01*
G37*
G04 #@! TD.AperFunction*
G04 #@! TA.AperFunction,SMDPad,CuDef*
G36*
G01*
X82806250Y-64420000D02*
X82293750Y-64420000D01*
G75*
G02*
X82075000Y-64201250I0J218750D01*
G01*
X82075000Y-63763750D01*
G75*
G02*
X82293750Y-63545000I218750J0D01*
G01*
X82806250Y-63545000D01*
G75*
G02*
X83025000Y-63763750I0J-218750D01*
G01*
X83025000Y-64201250D01*
G75*
G02*
X82806250Y-64420000I-218750J0D01*
G01*
G37*
G04 #@! TD.AperFunction*
G04 #@! TA.AperFunction,SMDPad,CuDef*
G36*
G01*
X82806250Y-65995000D02*
X82293750Y-65995000D01*
G75*
G02*
X82075000Y-65776250I0J218750D01*
G01*
X82075000Y-65338750D01*
G75*
G02*
X82293750Y-65120000I218750J0D01*
G01*
X82806250Y-65120000D01*
G75*
G02*
X83025000Y-65338750I0J-218750D01*
G01*
X83025000Y-65776250D01*
G75*
G02*
X82806250Y-65995000I-218750J0D01*
G01*
G37*
G04 #@! TD.AperFunction*
G04 #@! TA.AperFunction,SMDPad,CuDef*
G36*
G01*
X80901250Y-64420000D02*
X80388750Y-64420000D01*
G75*
G02*
X80170000Y-64201250I0J218750D01*
G01*
X80170000Y-63763750D01*
G75*
G02*
X80388750Y-63545000I218750J0D01*
G01*
X80901250Y-63545000D01*
G75*
G02*
X81120000Y-63763750I0J-218750D01*
G01*
X81120000Y-64201250D01*
G75*
G02*
X80901250Y-64420000I-218750J0D01*
G01*
G37*
G04 #@! TD.AperFunction*
G04 #@! TA.AperFunction,SMDPad,CuDef*
G36*
G01*
X80901250Y-65995000D02*
X80388750Y-65995000D01*
G75*
G02*
X80170000Y-65776250I0J218750D01*
G01*
X80170000Y-65338750D01*
G75*
G02*
X80388750Y-65120000I218750J0D01*
G01*
X80901250Y-65120000D01*
G75*
G02*
X81120000Y-65338750I0J-218750D01*
G01*
X81120000Y-65776250D01*
G75*
G02*
X80901250Y-65995000I-218750J0D01*
G01*
G37*
G04 #@! TD.AperFunction*
G04 #@! TA.AperFunction,SMDPad,CuDef*
G36*
G01*
X74551250Y-64420000D02*
X74038750Y-64420000D01*
G75*
G02*
X73820000Y-64201250I0J218750D01*
G01*
X73820000Y-63763750D01*
G75*
G02*
X74038750Y-63545000I218750J0D01*
G01*
X74551250Y-63545000D01*
G75*
G02*
X74770000Y-63763750I0J-218750D01*
G01*
X74770000Y-64201250D01*
G75*
G02*
X74551250Y-64420000I-218750J0D01*
G01*
G37*
G04 #@! TD.AperFunction*
G04 #@! TA.AperFunction,SMDPad,CuDef*
G36*
G01*
X74551250Y-65995000D02*
X74038750Y-65995000D01*
G75*
G02*
X73820000Y-65776250I0J218750D01*
G01*
X73820000Y-65338750D01*
G75*
G02*
X74038750Y-65120000I218750J0D01*
G01*
X74551250Y-65120000D01*
G75*
G02*
X74770000Y-65338750I0J-218750D01*
G01*
X74770000Y-65776250D01*
G75*
G02*
X74551250Y-65995000I-218750J0D01*
G01*
G37*
G04 #@! TD.AperFunction*
G04 #@! TA.AperFunction,SMDPad,CuDef*
G36*
G01*
X72392250Y-64420000D02*
X71879750Y-64420000D01*
G75*
G02*
X71661000Y-64201250I0J218750D01*
G01*
X71661000Y-63763750D01*
G75*
G02*
X71879750Y-63545000I218750J0D01*
G01*
X72392250Y-63545000D01*
G75*
G02*
X72611000Y-63763750I0J-218750D01*
G01*
X72611000Y-64201250D01*
G75*
G02*
X72392250Y-64420000I-218750J0D01*
G01*
G37*
G04 #@! TD.AperFunction*
G04 #@! TA.AperFunction,SMDPad,CuDef*
G36*
G01*
X72392250Y-65995000D02*
X71879750Y-65995000D01*
G75*
G02*
X71661000Y-65776250I0J218750D01*
G01*
X71661000Y-65338750D01*
G75*
G02*
X71879750Y-65120000I218750J0D01*
G01*
X72392250Y-65120000D01*
G75*
G02*
X72611000Y-65338750I0J-218750D01*
G01*
X72611000Y-65776250D01*
G75*
G02*
X72392250Y-65995000I-218750J0D01*
G01*
G37*
G04 #@! TD.AperFunction*
G04 #@! TA.AperFunction,SMDPad,CuDef*
G36*
G01*
X70741250Y-64420000D02*
X70228750Y-64420000D01*
G75*
G02*
X70010000Y-64201250I0J218750D01*
G01*
X70010000Y-63763750D01*
G75*
G02*
X70228750Y-63545000I218750J0D01*
G01*
X70741250Y-63545000D01*
G75*
G02*
X70960000Y-63763750I0J-218750D01*
G01*
X70960000Y-64201250D01*
G75*
G02*
X70741250Y-64420000I-218750J0D01*
G01*
G37*
G04 #@! TD.AperFunction*
G04 #@! TA.AperFunction,SMDPad,CuDef*
G36*
G01*
X70741250Y-65995000D02*
X70228750Y-65995000D01*
G75*
G02*
X70010000Y-65776250I0J218750D01*
G01*
X70010000Y-65338750D01*
G75*
G02*
X70228750Y-65120000I218750J0D01*
G01*
X70741250Y-65120000D01*
G75*
G02*
X70960000Y-65338750I0J-218750D01*
G01*
X70960000Y-65776250D01*
G75*
G02*
X70741250Y-65995000I-218750J0D01*
G01*
G37*
G04 #@! TD.AperFunction*
G04 #@! TA.AperFunction,SMDPad,CuDef*
G36*
G01*
X68836250Y-64420000D02*
X68323750Y-64420000D01*
G75*
G02*
X68105000Y-64201250I0J218750D01*
G01*
X68105000Y-63763750D01*
G75*
G02*
X68323750Y-63545000I218750J0D01*
G01*
X68836250Y-63545000D01*
G75*
G02*
X69055000Y-63763750I0J-218750D01*
G01*
X69055000Y-64201250D01*
G75*
G02*
X68836250Y-64420000I-218750J0D01*
G01*
G37*
G04 #@! TD.AperFunction*
G04 #@! TA.AperFunction,SMDPad,CuDef*
G36*
G01*
X68836250Y-65995000D02*
X68323750Y-65995000D01*
G75*
G02*
X68105000Y-65776250I0J218750D01*
G01*
X68105000Y-65338750D01*
G75*
G02*
X68323750Y-65120000I218750J0D01*
G01*
X68836250Y-65120000D01*
G75*
G02*
X69055000Y-65338750I0J-218750D01*
G01*
X69055000Y-65776250D01*
G75*
G02*
X68836250Y-65995000I-218750J0D01*
G01*
G37*
G04 #@! TD.AperFunction*
G04 #@! TA.AperFunction,SMDPad,CuDef*
G36*
G01*
X66931250Y-64420000D02*
X66418750Y-64420000D01*
G75*
G02*
X66200000Y-64201250I0J218750D01*
G01*
X66200000Y-63763750D01*
G75*
G02*
X66418750Y-63545000I218750J0D01*
G01*
X66931250Y-63545000D01*
G75*
G02*
X67150000Y-63763750I0J-218750D01*
G01*
X67150000Y-64201250D01*
G75*
G02*
X66931250Y-64420000I-218750J0D01*
G01*
G37*
G04 #@! TD.AperFunction*
G04 #@! TA.AperFunction,SMDPad,CuDef*
G36*
G01*
X66931250Y-65995000D02*
X66418750Y-65995000D01*
G75*
G02*
X66200000Y-65776250I0J218750D01*
G01*
X66200000Y-65338750D01*
G75*
G02*
X66418750Y-65120000I218750J0D01*
G01*
X66931250Y-65120000D01*
G75*
G02*
X67150000Y-65338750I0J-218750D01*
G01*
X67150000Y-65776250D01*
G75*
G02*
X66931250Y-65995000I-218750J0D01*
G01*
G37*
G04 #@! TD.AperFunction*
G04 #@! TA.AperFunction,SMDPad,CuDef*
G36*
G01*
X65026250Y-64420000D02*
X64513750Y-64420000D01*
G75*
G02*
X64295000Y-64201250I0J218750D01*
G01*
X64295000Y-63763750D01*
G75*
G02*
X64513750Y-63545000I218750J0D01*
G01*
X65026250Y-63545000D01*
G75*
G02*
X65245000Y-63763750I0J-218750D01*
G01*
X65245000Y-64201250D01*
G75*
G02*
X65026250Y-64420000I-218750J0D01*
G01*
G37*
G04 #@! TD.AperFunction*
G04 #@! TA.AperFunction,SMDPad,CuDef*
G36*
G01*
X65026250Y-65995000D02*
X64513750Y-65995000D01*
G75*
G02*
X64295000Y-65776250I0J218750D01*
G01*
X64295000Y-65338750D01*
G75*
G02*
X64513750Y-65120000I218750J0D01*
G01*
X65026250Y-65120000D01*
G75*
G02*
X65245000Y-65338750I0J-218750D01*
G01*
X65245000Y-65776250D01*
G75*
G02*
X65026250Y-65995000I-218750J0D01*
G01*
G37*
G04 #@! TD.AperFunction*
G04 #@! TA.AperFunction,SMDPad,CuDef*
G36*
G01*
X59946250Y-64420000D02*
X59433750Y-64420000D01*
G75*
G02*
X59215000Y-64201250I0J218750D01*
G01*
X59215000Y-63763750D01*
G75*
G02*
X59433750Y-63545000I218750J0D01*
G01*
X59946250Y-63545000D01*
G75*
G02*
X60165000Y-63763750I0J-218750D01*
G01*
X60165000Y-64201250D01*
G75*
G02*
X59946250Y-64420000I-218750J0D01*
G01*
G37*
G04 #@! TD.AperFunction*
G04 #@! TA.AperFunction,SMDPad,CuDef*
G36*
G01*
X59946250Y-65995000D02*
X59433750Y-65995000D01*
G75*
G02*
X59215000Y-65776250I0J218750D01*
G01*
X59215000Y-65338750D01*
G75*
G02*
X59433750Y-65120000I218750J0D01*
G01*
X59946250Y-65120000D01*
G75*
G02*
X60165000Y-65338750I0J-218750D01*
G01*
X60165000Y-65776250D01*
G75*
G02*
X59946250Y-65995000I-218750J0D01*
G01*
G37*
G04 #@! TD.AperFunction*
G04 #@! TA.AperFunction,SMDPad,CuDef*
G36*
G01*
X58041250Y-64547000D02*
X57528750Y-64547000D01*
G75*
G02*
X57310000Y-64328250I0J218750D01*
G01*
X57310000Y-63890750D01*
G75*
G02*
X57528750Y-63672000I218750J0D01*
G01*
X58041250Y-63672000D01*
G75*
G02*
X58260000Y-63890750I0J-218750D01*
G01*
X58260000Y-64328250D01*
G75*
G02*
X58041250Y-64547000I-218750J0D01*
G01*
G37*
G04 #@! TD.AperFunction*
G04 #@! TA.AperFunction,SMDPad,CuDef*
G36*
G01*
X58041250Y-66122000D02*
X57528750Y-66122000D01*
G75*
G02*
X57310000Y-65903250I0J218750D01*
G01*
X57310000Y-65465750D01*
G75*
G02*
X57528750Y-65247000I218750J0D01*
G01*
X58041250Y-65247000D01*
G75*
G02*
X58260000Y-65465750I0J-218750D01*
G01*
X58260000Y-65903250D01*
G75*
G02*
X58041250Y-66122000I-218750J0D01*
G01*
G37*
G04 #@! TD.AperFunction*
G04 #@! TA.AperFunction,SMDPad,CuDef*
G36*
G01*
X56136250Y-64547000D02*
X55623750Y-64547000D01*
G75*
G02*
X55405000Y-64328250I0J218750D01*
G01*
X55405000Y-63890750D01*
G75*
G02*
X55623750Y-63672000I218750J0D01*
G01*
X56136250Y-63672000D01*
G75*
G02*
X56355000Y-63890750I0J-218750D01*
G01*
X56355000Y-64328250D01*
G75*
G02*
X56136250Y-64547000I-218750J0D01*
G01*
G37*
G04 #@! TD.AperFunction*
G04 #@! TA.AperFunction,SMDPad,CuDef*
G36*
G01*
X56136250Y-66122000D02*
X55623750Y-66122000D01*
G75*
G02*
X55405000Y-65903250I0J218750D01*
G01*
X55405000Y-65465750D01*
G75*
G02*
X55623750Y-65247000I218750J0D01*
G01*
X56136250Y-65247000D01*
G75*
G02*
X56355000Y-65465750I0J-218750D01*
G01*
X56355000Y-65903250D01*
G75*
G02*
X56136250Y-66122000I-218750J0D01*
G01*
G37*
G04 #@! TD.AperFunction*
G04 #@! TA.AperFunction,SMDPad,CuDef*
G36*
G01*
X54231250Y-64420000D02*
X53718750Y-64420000D01*
G75*
G02*
X53500000Y-64201250I0J218750D01*
G01*
X53500000Y-63763750D01*
G75*
G02*
X53718750Y-63545000I218750J0D01*
G01*
X54231250Y-63545000D01*
G75*
G02*
X54450000Y-63763750I0J-218750D01*
G01*
X54450000Y-64201250D01*
G75*
G02*
X54231250Y-64420000I-218750J0D01*
G01*
G37*
G04 #@! TD.AperFunction*
G04 #@! TA.AperFunction,SMDPad,CuDef*
G36*
G01*
X54231250Y-65995000D02*
X53718750Y-65995000D01*
G75*
G02*
X53500000Y-65776250I0J218750D01*
G01*
X53500000Y-65338750D01*
G75*
G02*
X53718750Y-65120000I218750J0D01*
G01*
X54231250Y-65120000D01*
G75*
G02*
X54450000Y-65338750I0J-218750D01*
G01*
X54450000Y-65776250D01*
G75*
G02*
X54231250Y-65995000I-218750J0D01*
G01*
G37*
G04 #@! TD.AperFunction*
G04 #@! TA.AperFunction,SMDPad,CuDef*
G36*
G01*
X52326250Y-64547000D02*
X51813750Y-64547000D01*
G75*
G02*
X51595000Y-64328250I0J218750D01*
G01*
X51595000Y-63890750D01*
G75*
G02*
X51813750Y-63672000I218750J0D01*
G01*
X52326250Y-63672000D01*
G75*
G02*
X52545000Y-63890750I0J-218750D01*
G01*
X52545000Y-64328250D01*
G75*
G02*
X52326250Y-64547000I-218750J0D01*
G01*
G37*
G04 #@! TD.AperFunction*
G04 #@! TA.AperFunction,SMDPad,CuDef*
G36*
G01*
X52326250Y-66122000D02*
X51813750Y-66122000D01*
G75*
G02*
X51595000Y-65903250I0J218750D01*
G01*
X51595000Y-65465750D01*
G75*
G02*
X51813750Y-65247000I218750J0D01*
G01*
X52326250Y-65247000D01*
G75*
G02*
X52545000Y-65465750I0J-218750D01*
G01*
X52545000Y-65903250D01*
G75*
G02*
X52326250Y-66122000I-218750J0D01*
G01*
G37*
G04 #@! TD.AperFunction*
D15*
X88900000Y-68580000D03*
D16*
X109390000Y-68580000D03*
D17*
X106660000Y-51260000D03*
X106660000Y-53800000D03*
X104120000Y-51260000D03*
X104120000Y-53800000D03*
X101580000Y-51260000D03*
X101580000Y-53800000D03*
X99040000Y-51260000D03*
X99040000Y-53800000D03*
X96500000Y-51260000D03*
X96500000Y-53800000D03*
X93960000Y-51260000D03*
X93960000Y-53800000D03*
X91420000Y-51260000D03*
X91420000Y-53800000D03*
X88880000Y-51260000D03*
X88880000Y-53800000D03*
X86340000Y-51260000D03*
X86340000Y-53800000D03*
X83800000Y-51260000D03*
X83800000Y-53800000D03*
X81260000Y-51260000D03*
X81260000Y-53800000D03*
X78720000Y-51260000D03*
X78720000Y-53800000D03*
X76180000Y-51260000D03*
X76180000Y-53800000D03*
X73640000Y-51260000D03*
X73640000Y-53800000D03*
X71100000Y-51260000D03*
X71100000Y-53800000D03*
X68560000Y-51260000D03*
X68560000Y-53800000D03*
X66020000Y-51260000D03*
X66020000Y-53800000D03*
X63480000Y-51260000D03*
X63480000Y-53800000D03*
X60940000Y-51260000D03*
X60940000Y-53800000D03*
X58400000Y-51260000D03*
D18*
X58400000Y-53800000D03*
D19*
X52070000Y-61747500D02*
X52070000Y-64109500D01*
X53975000Y-61747500D02*
X53975000Y-63982500D01*
X55880000Y-61747500D02*
X55880000Y-64109500D01*
X57785000Y-61747500D02*
X57785000Y-64109500D01*
X59690000Y-61747500D02*
X59690000Y-63982500D01*
X64770000Y-63982500D02*
X64770000Y-61900000D01*
X66675000Y-63982500D02*
X66675000Y-61747500D01*
X68580000Y-61747500D02*
X68580000Y-63982500D01*
X70485000Y-61747500D02*
X70485000Y-63982500D01*
X72136000Y-62001500D02*
X72390000Y-61747500D01*
X72136000Y-63982500D02*
X72136000Y-62001500D01*
X74295000Y-63982500D02*
X74295000Y-61747500D01*
X80645000Y-61747500D02*
X80645000Y-63982500D01*
X82550000Y-63982500D02*
X82550000Y-61747500D01*
X85090000Y-63982500D02*
X85090000Y-61747500D01*
X87630000Y-63982500D02*
X87630000Y-61747500D01*
X90170000Y-63982500D02*
X90170000Y-61747500D01*
X92710000Y-63982500D02*
X92710000Y-61747500D01*
X93960000Y-58922500D02*
X92710000Y-60172500D01*
X93960000Y-53800000D02*
X93960000Y-58922500D01*
X92595001Y-57747499D02*
X90170000Y-60172500D01*
X92595001Y-52435001D02*
X92595001Y-57747499D01*
X91420000Y-51260000D02*
X92595001Y-52435001D01*
X91420000Y-56382500D02*
X87630000Y-60172500D01*
X91420000Y-53800000D02*
X91420000Y-56382500D01*
X88880000Y-51260000D02*
X88900000Y-51280000D01*
X90055001Y-55207499D02*
X85090000Y-60172500D01*
X90055001Y-52435001D02*
X90055001Y-55207499D01*
X88880000Y-51260000D02*
X90055001Y-52435001D01*
X87515001Y-55207499D02*
X82550000Y-60172500D01*
X87515001Y-52435001D02*
X87515001Y-55207499D01*
X86340000Y-51260000D02*
X87515001Y-52435001D01*
X80645000Y-59495000D02*
X80645000Y-60172500D01*
X86340000Y-53800000D02*
X80645000Y-59495000D01*
X83800000Y-51260000D02*
X84975001Y-52435001D01*
X84975001Y-52435001D02*
X84975001Y-54364001D01*
X84364001Y-54975001D02*
X83261409Y-54975001D01*
X84975001Y-54364001D02*
X84364001Y-54975001D01*
X83261409Y-54975001D02*
X82320695Y-55915715D01*
X82320695Y-55915715D02*
X80417105Y-55915715D01*
X80417105Y-55915715D02*
X79367810Y-56965010D01*
X77502490Y-56965010D02*
X74295000Y-60172500D01*
X79367810Y-56965010D02*
X77502490Y-56965010D01*
X81260000Y-53800000D02*
X79041589Y-56018411D01*
X79041589Y-56018411D02*
X76973411Y-56018411D01*
X76973411Y-56018411D02*
X74861774Y-58130048D01*
X74861774Y-58130048D02*
X72044952Y-58130048D01*
X70485000Y-59690000D02*
X70485000Y-60172500D01*
X72044952Y-58130048D02*
X70485000Y-59690000D01*
X79375000Y-51915000D02*
X78720000Y-51260000D01*
X79895001Y-54364001D02*
X79895001Y-53235999D01*
X79895001Y-53235999D02*
X79375000Y-52715998D01*
X79375000Y-52715998D02*
X79375000Y-51915000D01*
X79284001Y-54975001D02*
X77380411Y-54975001D01*
X79895001Y-54364001D02*
X79284001Y-54975001D01*
X74675374Y-57680038D02*
X69954962Y-57680038D01*
X77380411Y-54975001D02*
X74675374Y-57680038D01*
X68580000Y-59055000D02*
X68580000Y-60172500D01*
X69954962Y-57680038D02*
X68580000Y-59055000D01*
X77355001Y-54364001D02*
X77355001Y-52435001D01*
X74488973Y-57230029D02*
X77355001Y-54364001D01*
X67909971Y-57230029D02*
X74488973Y-57230029D01*
X77355001Y-52435001D02*
X76180000Y-51260000D01*
X66675000Y-58465000D02*
X67909971Y-57230029D01*
X66675000Y-58902500D02*
X66675000Y-58465000D01*
X66675000Y-58902500D02*
X66675000Y-60172500D01*
X64770000Y-59055000D02*
X64770000Y-57431052D01*
X64770000Y-57431052D02*
X65421032Y-56780020D01*
X73199980Y-56780020D02*
X76180000Y-53800000D01*
X65421032Y-56780020D02*
X73199980Y-56780020D01*
X64770000Y-59055000D02*
X64770000Y-60325000D01*
X73640000Y-53800000D02*
X71109990Y-56330010D01*
X71109990Y-56330010D02*
X65234632Y-56330010D01*
X65234632Y-56330010D02*
X63779642Y-57785000D01*
X60807500Y-57785000D02*
X59690000Y-58902500D01*
X63779642Y-57785000D02*
X60807500Y-57785000D01*
X59690000Y-58902500D02*
X59690000Y-60172500D01*
X72275001Y-54364001D02*
X72275001Y-52435001D01*
X72275001Y-52435001D02*
X71100000Y-51260000D01*
X71664001Y-54975001D02*
X70561409Y-54975001D01*
X72275001Y-54364001D02*
X71664001Y-54975001D01*
X69656410Y-55880000D02*
X65048232Y-55880000D01*
X70561409Y-54975001D02*
X69656410Y-55880000D01*
X65048232Y-55880000D02*
X63698202Y-57230030D01*
X59457470Y-57230030D02*
X57785000Y-58902500D01*
X63698202Y-57230030D02*
X59457470Y-57230030D01*
X57785000Y-58902500D02*
X57785000Y-60172500D01*
X58002480Y-56780020D02*
X55880000Y-58902500D01*
X71100000Y-53800000D02*
X69655000Y-55245000D01*
X66950412Y-55245000D02*
X66770401Y-55425011D01*
X69655000Y-55245000D02*
X66950412Y-55245000D01*
X66770401Y-55425011D02*
X64866811Y-55425011D01*
X63511802Y-56780020D02*
X58002480Y-56780020D01*
X64866811Y-55425011D02*
X63511802Y-56780020D01*
X55880000Y-58902500D02*
X55880000Y-60172500D01*
X68560000Y-51260000D02*
X67195001Y-52624999D01*
X67195001Y-52624999D02*
X67195001Y-54364001D01*
X66584001Y-54975001D02*
X64680411Y-54975001D01*
X67195001Y-54364001D02*
X66584001Y-54975001D01*
X64680411Y-54975001D02*
X63325402Y-56330010D01*
X56547490Y-56330010D02*
X53975000Y-58902500D01*
X63325402Y-56330010D02*
X56547490Y-56330010D01*
X53975000Y-58902500D02*
X53975000Y-60172500D01*
X64655001Y-54364001D02*
X63139002Y-55880000D01*
X64655001Y-52624999D02*
X64655001Y-54364001D01*
X66020000Y-51260000D02*
X64655001Y-52624999D01*
X63139002Y-55880000D02*
X55880000Y-55880000D01*
X52070000Y-59690000D02*
X52070000Y-60172500D01*
X55880000Y-55880000D02*
X52070000Y-59690000D01*
X83800000Y-53800000D02*
X82134295Y-55465705D01*
X82134295Y-55465705D02*
X80230705Y-55465705D01*
X79181410Y-56515000D02*
X77113232Y-56515000D01*
X80230705Y-55465705D02*
X79181410Y-56515000D01*
X77113232Y-56515000D02*
X75048175Y-58580057D01*
X73982443Y-58580057D02*
X72390000Y-60172500D01*
X75048175Y-58580057D02*
X73982443Y-58580057D01*
X106415000Y-56095000D02*
X104120000Y-53800000D01*
X106415000Y-72760000D02*
X106415000Y-56095000D01*
X97525000Y-72760000D02*
X97525000Y-72655000D01*
X101580000Y-68600000D02*
X101580000Y-53800000D01*
X97525000Y-72655000D02*
X101580000Y-68600000D01*
X89570000Y-72675000D02*
X91125000Y-71120000D01*
X91125000Y-71120000D02*
X93980000Y-71120000D01*
X99040000Y-66060000D02*
X99040000Y-53800000D01*
X93980000Y-71120000D02*
X99040000Y-66060000D01*
X96500000Y-64565002D02*
X96500000Y-53800000D01*
X90660001Y-70405001D02*
X96500000Y-64565002D01*
X83369999Y-70405001D02*
X90660001Y-70405001D01*
X81015000Y-72760000D02*
X83369999Y-70405001D01*
X73320000Y-74930000D02*
X72390000Y-74930000D01*
X75490000Y-72760000D02*
X73320000Y-74930000D01*
X76465000Y-72760000D02*
X75490000Y-72760000D01*
X72390000Y-74930000D02*
X74930000Y-77470000D01*
X82565001Y-74154999D02*
X82565001Y-77454999D01*
X85020000Y-72675000D02*
X84045000Y-72675000D01*
X84045000Y-72675000D02*
X82565001Y-74154999D01*
X92975000Y-72760000D02*
X92000000Y-72760000D01*
X91424999Y-73335001D02*
X91424999Y-76215001D01*
X74930000Y-77470000D02*
X90170000Y-77470000D01*
X91424999Y-76215001D02*
X90170000Y-77470000D01*
X92000000Y-72760000D02*
X91424999Y-73335001D01*
X99075001Y-74574999D02*
X99075001Y-76184999D01*
X99075001Y-76184999D02*
X97790000Y-77470000D01*
X100890000Y-72760000D02*
X99075001Y-74574999D01*
X101865000Y-72760000D02*
X100890000Y-72760000D01*
X90170000Y-77470000D02*
X97790000Y-77470000D01*
X71120000Y-73660000D02*
X72390000Y-74930000D01*
X56725001Y-52934999D02*
X56725001Y-54273505D01*
X50800000Y-60198506D02*
X50800000Y-67310000D01*
X58400000Y-51260000D02*
X56725001Y-52934999D01*
X56725001Y-54273505D02*
X50800000Y-60198506D01*
X50800000Y-67310000D02*
X55880000Y-72390000D01*
X69850000Y-72390000D02*
X71120000Y-73660000D01*
X55880000Y-72390000D02*
X69850000Y-72390000D01*
D20*
G36*
X109542907Y-49993425D02*
G01*
X109093425Y-50442907D01*
X108740270Y-50971442D01*
X108497012Y-51558719D01*
X108373000Y-52182168D01*
X108373000Y-52817832D01*
X108497012Y-53441281D01*
X108740270Y-54028558D01*
X109093425Y-54557093D01*
X109542907Y-55006575D01*
X110071442Y-55359730D01*
X110658719Y-55602988D01*
X111282168Y-55727000D01*
X111917832Y-55727000D01*
X112541281Y-55602988D01*
X113128558Y-55359730D01*
X113657093Y-55006575D01*
X114106575Y-54557093D01*
X114340000Y-54207747D01*
X114340001Y-73892254D01*
X114106575Y-73542907D01*
X113657093Y-73093425D01*
X113128558Y-72740270D01*
X112541281Y-72497012D01*
X111917832Y-72373000D01*
X111282168Y-72373000D01*
X110658719Y-72497012D01*
X110071442Y-72740270D01*
X109542907Y-73093425D01*
X109093425Y-73542907D01*
X108740270Y-74071442D01*
X108497012Y-74658719D01*
X108373000Y-75282168D01*
X108373000Y-75917832D01*
X108497012Y-76541281D01*
X108740270Y-77128558D01*
X109093425Y-77657093D01*
X109542907Y-78106575D01*
X109892253Y-78340000D01*
X70011178Y-78340000D01*
X70018072Y-78270000D01*
X70018072Y-77323804D01*
X70181067Y-77291383D01*
X70387624Y-77205824D01*
X70573520Y-77081612D01*
X70731612Y-76923520D01*
X70855824Y-76737624D01*
X70941383Y-76531067D01*
X70985000Y-76311788D01*
X70985000Y-76088212D01*
X70941383Y-75868933D01*
X70855824Y-75662376D01*
X70731612Y-75476480D01*
X70573520Y-75318388D01*
X70387624Y-75194176D01*
X70181067Y-75108617D01*
X69961788Y-75065000D01*
X69738212Y-75065000D01*
X69518933Y-75108617D01*
X69312376Y-75194176D01*
X69126480Y-75318388D01*
X68968388Y-75476480D01*
X68844176Y-75662376D01*
X68758617Y-75868933D01*
X68726196Y-76031928D01*
X67780000Y-76031928D01*
X67655518Y-76044188D01*
X67535820Y-76080498D01*
X67425506Y-76139463D01*
X67328815Y-76218815D01*
X67249463Y-76315506D01*
X67190498Y-76425820D01*
X67154188Y-76545518D01*
X67153357Y-76553961D01*
X66954759Y-76355363D01*
X66719727Y-76198320D01*
X66458574Y-76090147D01*
X66181335Y-76035000D01*
X65898665Y-76035000D01*
X65621426Y-76090147D01*
X65360273Y-76198320D01*
X65125241Y-76355363D01*
X64925363Y-76555241D01*
X64770000Y-76787759D01*
X64614637Y-76555241D01*
X64414759Y-76355363D01*
X64179727Y-76198320D01*
X63918574Y-76090147D01*
X63641335Y-76035000D01*
X63358665Y-76035000D01*
X63081426Y-76090147D01*
X62820273Y-76198320D01*
X62585241Y-76355363D01*
X62385363Y-76555241D01*
X62228320Y-76790273D01*
X62223933Y-76800865D01*
X62112385Y-76614869D01*
X61923414Y-76406481D01*
X61697420Y-76238963D01*
X61443087Y-76118754D01*
X61309039Y-76078096D01*
X61087000Y-76200085D01*
X61087000Y-77343000D01*
X61107000Y-77343000D01*
X61107000Y-77597000D01*
X61087000Y-77597000D01*
X61087000Y-77617000D01*
X60833000Y-77617000D01*
X60833000Y-77597000D01*
X59689376Y-77597000D01*
X59568091Y-77819040D01*
X59662930Y-78083881D01*
X59807615Y-78325131D01*
X59821099Y-78340000D01*
X55158086Y-78340000D01*
X55657093Y-78006575D01*
X56106575Y-77557093D01*
X56397989Y-77120960D01*
X59568091Y-77120960D01*
X59689376Y-77343000D01*
X60833000Y-77343000D01*
X60833000Y-76200085D01*
X60610961Y-76078096D01*
X60476913Y-76118754D01*
X60222580Y-76238963D01*
X59996586Y-76406481D01*
X59807615Y-76614869D01*
X59662930Y-76856119D01*
X59568091Y-77120960D01*
X56397989Y-77120960D01*
X56459730Y-77028558D01*
X56702988Y-76441281D01*
X56827000Y-75817832D01*
X56827000Y-75182168D01*
X56702988Y-74558719D01*
X56459730Y-73971442D01*
X56106575Y-73442907D01*
X55810500Y-73146832D01*
X55842667Y-73150000D01*
X55842677Y-73150000D01*
X55880000Y-73153676D01*
X55917323Y-73150000D01*
X68832734Y-73150000D01*
X68758617Y-73328933D01*
X68715000Y-73548212D01*
X68715000Y-73771788D01*
X68758617Y-73991067D01*
X68844176Y-74197624D01*
X68968388Y-74383520D01*
X69126480Y-74541612D01*
X69312376Y-74665824D01*
X69518933Y-74751383D01*
X69738212Y-74795000D01*
X69961788Y-74795000D01*
X70181067Y-74751383D01*
X70387624Y-74665824D01*
X70573520Y-74541612D01*
X70731612Y-74383520D01*
X70746475Y-74361276D01*
X71826200Y-75441002D01*
X71849999Y-75470001D01*
X71879003Y-75493804D01*
X74366205Y-77981008D01*
X74389999Y-78010001D01*
X74418992Y-78033795D01*
X74418996Y-78033799D01*
X74487445Y-78089973D01*
X74505724Y-78104974D01*
X74637753Y-78175546D01*
X74781014Y-78219003D01*
X74892667Y-78230000D01*
X74892676Y-78230000D01*
X74929999Y-78233676D01*
X74967322Y-78230000D01*
X90132678Y-78230000D01*
X90170000Y-78233676D01*
X90207322Y-78230000D01*
X97752678Y-78230000D01*
X97790000Y-78233676D01*
X97827322Y-78230000D01*
X97827333Y-78230000D01*
X97938986Y-78219003D01*
X98082247Y-78175546D01*
X98214276Y-78104974D01*
X98330001Y-78010001D01*
X98353804Y-77980997D01*
X99586004Y-76748798D01*
X99615002Y-76725000D01*
X99709975Y-76609275D01*
X99780547Y-76477246D01*
X99824004Y-76333985D01*
X99835001Y-76222332D01*
X99835001Y-76222322D01*
X99838677Y-76184999D01*
X99835001Y-76147676D01*
X99835001Y-74889800D01*
X100001928Y-74722873D01*
X100001928Y-74860000D01*
X100014188Y-74984482D01*
X100050498Y-75104180D01*
X100109463Y-75214494D01*
X100188815Y-75311185D01*
X100227024Y-75342542D01*
X100227024Y-75555850D01*
X100995781Y-75555850D01*
X100995857Y-75556102D01*
X101055285Y-75667285D01*
X101135262Y-75764738D01*
X101232715Y-75844715D01*
X101343898Y-75904143D01*
X101464538Y-75940739D01*
X101558566Y-75950000D01*
X101590000Y-75953096D01*
X101621434Y-75950000D01*
X106658566Y-75950000D01*
X106690000Y-75953096D01*
X106721434Y-75950000D01*
X106815462Y-75940739D01*
X106936102Y-75904143D01*
X107047285Y-75844715D01*
X107144738Y-75764738D01*
X107224715Y-75667285D01*
X107284143Y-75556102D01*
X107301746Y-75498072D01*
X107640000Y-75498072D01*
X107764482Y-75485812D01*
X107884180Y-75449502D01*
X107994494Y-75390537D01*
X108091185Y-75311185D01*
X108170537Y-75214494D01*
X108229502Y-75104180D01*
X108265812Y-74984482D01*
X108278072Y-74860000D01*
X108278072Y-74010000D01*
X108265812Y-73885518D01*
X108229502Y-73765820D01*
X108170537Y-73655506D01*
X108091185Y-73558815D01*
X107994494Y-73479463D01*
X107884180Y-73420498D01*
X107770583Y-73386039D01*
X107778072Y-73310000D01*
X107778072Y-72210000D01*
X107765812Y-72085518D01*
X107729502Y-71965820D01*
X107670537Y-71855506D01*
X107591185Y-71758815D01*
X107494494Y-71679463D01*
X107384180Y-71620498D01*
X107264482Y-71584188D01*
X107175000Y-71575375D01*
X107175000Y-70071653D01*
X108077952Y-70071653D01*
X108233962Y-70387214D01*
X108608745Y-70578020D01*
X109013551Y-70692044D01*
X109432824Y-70724902D01*
X109850451Y-70675334D01*
X110250383Y-70545243D01*
X110546038Y-70387214D01*
X110702048Y-70071653D01*
X109390000Y-68759605D01*
X108077952Y-70071653D01*
X107175000Y-70071653D01*
X107175000Y-68622824D01*
X107245098Y-68622824D01*
X107294666Y-69040451D01*
X107424757Y-69440383D01*
X107582786Y-69736038D01*
X107898347Y-69892048D01*
X109210395Y-68580000D01*
X109569605Y-68580000D01*
X110881653Y-69892048D01*
X111197214Y-69736038D01*
X111388020Y-69361255D01*
X111502044Y-68956449D01*
X111534902Y-68537176D01*
X111485334Y-68119549D01*
X111355243Y-67719617D01*
X111197214Y-67423962D01*
X110881653Y-67267952D01*
X109569605Y-68580000D01*
X109210395Y-68580000D01*
X107898347Y-67267952D01*
X107582786Y-67423962D01*
X107391980Y-67798745D01*
X107277956Y-68203551D01*
X107245098Y-68622824D01*
X107175000Y-68622824D01*
X107175000Y-67088347D01*
X108077952Y-67088347D01*
X109390000Y-68400395D01*
X110702048Y-67088347D01*
X110546038Y-66772786D01*
X110171255Y-66581980D01*
X109766449Y-66467956D01*
X109347176Y-66435098D01*
X108929549Y-66484666D01*
X108529617Y-66614757D01*
X108233962Y-66772786D01*
X108077952Y-67088347D01*
X107175000Y-67088347D01*
X107175000Y-56132322D01*
X107178676Y-56094999D01*
X107175000Y-56057676D01*
X107175000Y-56057667D01*
X107164003Y-55946014D01*
X107120546Y-55802753D01*
X107101291Y-55766730D01*
X107049974Y-55670723D01*
X106978799Y-55583997D01*
X106955001Y-55554999D01*
X106926003Y-55531201D01*
X106679802Y-55285000D01*
X106787002Y-55285000D01*
X106787002Y-55120156D01*
X107016890Y-55241476D01*
X107164099Y-55196825D01*
X107426920Y-55071641D01*
X107660269Y-54897588D01*
X107855178Y-54681355D01*
X108004157Y-54431252D01*
X108101481Y-54156891D01*
X107980814Y-53927000D01*
X106787000Y-53927000D01*
X106787000Y-53947000D01*
X106533000Y-53947000D01*
X106533000Y-53927000D01*
X106513000Y-53927000D01*
X106513000Y-53673000D01*
X106533000Y-53673000D01*
X106533000Y-53653000D01*
X106787000Y-53653000D01*
X106787000Y-53673000D01*
X107980814Y-53673000D01*
X108101481Y-53443109D01*
X108004157Y-53168748D01*
X107855178Y-52918645D01*
X107660269Y-52702412D01*
X107430594Y-52531100D01*
X107606632Y-52413475D01*
X107813475Y-52206632D01*
X107975990Y-51963411D01*
X108087932Y-51693158D01*
X108145000Y-51406260D01*
X108145000Y-51113740D01*
X108087932Y-50826842D01*
X107975990Y-50556589D01*
X107813475Y-50313368D01*
X107606632Y-50106525D01*
X107363411Y-49944010D01*
X107093158Y-49832068D01*
X106806260Y-49775000D01*
X106513740Y-49775000D01*
X106226842Y-49832068D01*
X105956589Y-49944010D01*
X105713368Y-50106525D01*
X105506525Y-50313368D01*
X105390000Y-50487760D01*
X105273475Y-50313368D01*
X105066632Y-50106525D01*
X104823411Y-49944010D01*
X104553158Y-49832068D01*
X104266260Y-49775000D01*
X103973740Y-49775000D01*
X103686842Y-49832068D01*
X103416589Y-49944010D01*
X103173368Y-50106525D01*
X102966525Y-50313368D01*
X102850000Y-50487760D01*
X102733475Y-50313368D01*
X102526632Y-50106525D01*
X102283411Y-49944010D01*
X102013158Y-49832068D01*
X101726260Y-49775000D01*
X101433740Y-49775000D01*
X101146842Y-49832068D01*
X100876589Y-49944010D01*
X100633368Y-50106525D01*
X100426525Y-50313368D01*
X100304805Y-50495534D01*
X100235178Y-50378645D01*
X100040269Y-50162412D01*
X99806920Y-49988359D01*
X99544099Y-49863175D01*
X99396890Y-49818524D01*
X99167000Y-49939845D01*
X99167000Y-51133000D01*
X99187000Y-51133000D01*
X99187000Y-51387000D01*
X99167000Y-51387000D01*
X99167000Y-51407000D01*
X98913000Y-51407000D01*
X98913000Y-51387000D01*
X98893000Y-51387000D01*
X98893000Y-51133000D01*
X98913000Y-51133000D01*
X98913000Y-49939845D01*
X98683110Y-49818524D01*
X98535901Y-49863175D01*
X98273080Y-49988359D01*
X98039731Y-50162412D01*
X97844822Y-50378645D01*
X97775195Y-50495534D01*
X97653475Y-50313368D01*
X97446632Y-50106525D01*
X97203411Y-49944010D01*
X96933158Y-49832068D01*
X96646260Y-49775000D01*
X96353740Y-49775000D01*
X96066842Y-49832068D01*
X95796589Y-49944010D01*
X95553368Y-50106525D01*
X95346525Y-50313368D01*
X95224805Y-50495534D01*
X95155178Y-50378645D01*
X94960269Y-50162412D01*
X94726920Y-49988359D01*
X94464099Y-49863175D01*
X94316890Y-49818524D01*
X94087000Y-49939845D01*
X94087000Y-51133000D01*
X94107000Y-51133000D01*
X94107000Y-51387000D01*
X94087000Y-51387000D01*
X94087000Y-51407000D01*
X93833000Y-51407000D01*
X93833000Y-51387000D01*
X93813000Y-51387000D01*
X93813000Y-51133000D01*
X93833000Y-51133000D01*
X93833000Y-49939845D01*
X93603110Y-49818524D01*
X93455901Y-49863175D01*
X93193080Y-49988359D01*
X92959731Y-50162412D01*
X92764822Y-50378645D01*
X92695195Y-50495534D01*
X92573475Y-50313368D01*
X92366632Y-50106525D01*
X92123411Y-49944010D01*
X91853158Y-49832068D01*
X91566260Y-49775000D01*
X91273740Y-49775000D01*
X90986842Y-49832068D01*
X90716589Y-49944010D01*
X90473368Y-50106525D01*
X90266525Y-50313368D01*
X90150000Y-50487760D01*
X90033475Y-50313368D01*
X89826632Y-50106525D01*
X89583411Y-49944010D01*
X89313158Y-49832068D01*
X89026260Y-49775000D01*
X88733740Y-49775000D01*
X88446842Y-49832068D01*
X88176589Y-49944010D01*
X87933368Y-50106525D01*
X87726525Y-50313368D01*
X87610000Y-50487760D01*
X87493475Y-50313368D01*
X87286632Y-50106525D01*
X87043411Y-49944010D01*
X86773158Y-49832068D01*
X86486260Y-49775000D01*
X86193740Y-49775000D01*
X85906842Y-49832068D01*
X85636589Y-49944010D01*
X85393368Y-50106525D01*
X85186525Y-50313368D01*
X85070000Y-50487760D01*
X84953475Y-50313368D01*
X84746632Y-50106525D01*
X84503411Y-49944010D01*
X84233158Y-49832068D01*
X83946260Y-49775000D01*
X83653740Y-49775000D01*
X83366842Y-49832068D01*
X83096589Y-49944010D01*
X82853368Y-50106525D01*
X82646525Y-50313368D01*
X82524805Y-50495534D01*
X82455178Y-50378645D01*
X82260269Y-50162412D01*
X82026920Y-49988359D01*
X81764099Y-49863175D01*
X81616890Y-49818524D01*
X81387000Y-49939845D01*
X81387000Y-51133000D01*
X81407000Y-51133000D01*
X81407000Y-51387000D01*
X81387000Y-51387000D01*
X81387000Y-51407000D01*
X81133000Y-51407000D01*
X81133000Y-51387000D01*
X81113000Y-51387000D01*
X81113000Y-51133000D01*
X81133000Y-51133000D01*
X81133000Y-49939845D01*
X80903110Y-49818524D01*
X80755901Y-49863175D01*
X80493080Y-49988359D01*
X80259731Y-50162412D01*
X80064822Y-50378645D01*
X79995195Y-50495534D01*
X79873475Y-50313368D01*
X79666632Y-50106525D01*
X79423411Y-49944010D01*
X79153158Y-49832068D01*
X78866260Y-49775000D01*
X78573740Y-49775000D01*
X78286842Y-49832068D01*
X78016589Y-49944010D01*
X77773368Y-50106525D01*
X77566525Y-50313368D01*
X77450000Y-50487760D01*
X77333475Y-50313368D01*
X77126632Y-50106525D01*
X76883411Y-49944010D01*
X76613158Y-49832068D01*
X76326260Y-49775000D01*
X76033740Y-49775000D01*
X75746842Y-49832068D01*
X75476589Y-49944010D01*
X75233368Y-50106525D01*
X75026525Y-50313368D01*
X74904805Y-50495534D01*
X74835178Y-50378645D01*
X74640269Y-50162412D01*
X74406920Y-49988359D01*
X74144099Y-49863175D01*
X73996890Y-49818524D01*
X73767000Y-49939845D01*
X73767000Y-51133000D01*
X73787000Y-51133000D01*
X73787000Y-51387000D01*
X73767000Y-51387000D01*
X73767000Y-51407000D01*
X73513000Y-51407000D01*
X73513000Y-51387000D01*
X73493000Y-51387000D01*
X73493000Y-51133000D01*
X73513000Y-51133000D01*
X73513000Y-49939845D01*
X73283110Y-49818524D01*
X73135901Y-49863175D01*
X72873080Y-49988359D01*
X72639731Y-50162412D01*
X72444822Y-50378645D01*
X72375195Y-50495534D01*
X72253475Y-50313368D01*
X72046632Y-50106525D01*
X71803411Y-49944010D01*
X71533158Y-49832068D01*
X71246260Y-49775000D01*
X70953740Y-49775000D01*
X70666842Y-49832068D01*
X70396589Y-49944010D01*
X70153368Y-50106525D01*
X69946525Y-50313368D01*
X69830000Y-50487760D01*
X69713475Y-50313368D01*
X69506632Y-50106525D01*
X69263411Y-49944010D01*
X68993158Y-49832068D01*
X68706260Y-49775000D01*
X68413740Y-49775000D01*
X68126842Y-49832068D01*
X67856589Y-49944010D01*
X67613368Y-50106525D01*
X67406525Y-50313368D01*
X67290000Y-50487760D01*
X67173475Y-50313368D01*
X66966632Y-50106525D01*
X66723411Y-49944010D01*
X66453158Y-49832068D01*
X66166260Y-49775000D01*
X65873740Y-49775000D01*
X65586842Y-49832068D01*
X65316589Y-49944010D01*
X65073368Y-50106525D01*
X64866525Y-50313368D01*
X64744805Y-50495534D01*
X64675178Y-50378645D01*
X64480269Y-50162412D01*
X64246920Y-49988359D01*
X63984099Y-49863175D01*
X63836890Y-49818524D01*
X63607000Y-49939845D01*
X63607000Y-51133000D01*
X63627000Y-51133000D01*
X63627000Y-51387000D01*
X63607000Y-51387000D01*
X63607000Y-51407000D01*
X63353000Y-51407000D01*
X63353000Y-51387000D01*
X63333000Y-51387000D01*
X63333000Y-51133000D01*
X63353000Y-51133000D01*
X63353000Y-49939845D01*
X63123110Y-49818524D01*
X62975901Y-49863175D01*
X62713080Y-49988359D01*
X62479731Y-50162412D01*
X62284822Y-50378645D01*
X62215195Y-50495534D01*
X62093475Y-50313368D01*
X61886632Y-50106525D01*
X61643411Y-49944010D01*
X61373158Y-49832068D01*
X61086260Y-49775000D01*
X60793740Y-49775000D01*
X60506842Y-49832068D01*
X60236589Y-49944010D01*
X59993368Y-50106525D01*
X59786525Y-50313368D01*
X59670000Y-50487760D01*
X59553475Y-50313368D01*
X59346632Y-50106525D01*
X59103411Y-49944010D01*
X58833158Y-49832068D01*
X58546260Y-49775000D01*
X58253740Y-49775000D01*
X57966842Y-49832068D01*
X57696589Y-49944010D01*
X57453368Y-50106525D01*
X57246525Y-50313368D01*
X57084010Y-50556589D01*
X56972068Y-50826842D01*
X56915000Y-51113740D01*
X56915000Y-51406260D01*
X56958791Y-51626408D01*
X56673250Y-51911949D01*
X56602988Y-51558719D01*
X56359730Y-50971442D01*
X56006575Y-50442907D01*
X55557093Y-49993425D01*
X55058086Y-49660000D01*
X110041914Y-49660000D01*
X109542907Y-49993425D01*
G37*
X109542907Y-49993425D02*
X109093425Y-50442907D01*
X108740270Y-50971442D01*
X108497012Y-51558719D01*
X108373000Y-52182168D01*
X108373000Y-52817832D01*
X108497012Y-53441281D01*
X108740270Y-54028558D01*
X109093425Y-54557093D01*
X109542907Y-55006575D01*
X110071442Y-55359730D01*
X110658719Y-55602988D01*
X111282168Y-55727000D01*
X111917832Y-55727000D01*
X112541281Y-55602988D01*
X113128558Y-55359730D01*
X113657093Y-55006575D01*
X114106575Y-54557093D01*
X114340000Y-54207747D01*
X114340001Y-73892254D01*
X114106575Y-73542907D01*
X113657093Y-73093425D01*
X113128558Y-72740270D01*
X112541281Y-72497012D01*
X111917832Y-72373000D01*
X111282168Y-72373000D01*
X110658719Y-72497012D01*
X110071442Y-72740270D01*
X109542907Y-73093425D01*
X109093425Y-73542907D01*
X108740270Y-74071442D01*
X108497012Y-74658719D01*
X108373000Y-75282168D01*
X108373000Y-75917832D01*
X108497012Y-76541281D01*
X108740270Y-77128558D01*
X109093425Y-77657093D01*
X109542907Y-78106575D01*
X109892253Y-78340000D01*
X70011178Y-78340000D01*
X70018072Y-78270000D01*
X70018072Y-77323804D01*
X70181067Y-77291383D01*
X70387624Y-77205824D01*
X70573520Y-77081612D01*
X70731612Y-76923520D01*
X70855824Y-76737624D01*
X70941383Y-76531067D01*
X70985000Y-76311788D01*
X70985000Y-76088212D01*
X70941383Y-75868933D01*
X70855824Y-75662376D01*
X70731612Y-75476480D01*
X70573520Y-75318388D01*
X70387624Y-75194176D01*
X70181067Y-75108617D01*
X69961788Y-75065000D01*
X69738212Y-75065000D01*
X69518933Y-75108617D01*
X69312376Y-75194176D01*
X69126480Y-75318388D01*
X68968388Y-75476480D01*
X68844176Y-75662376D01*
X68758617Y-75868933D01*
X68726196Y-76031928D01*
X67780000Y-76031928D01*
X67655518Y-76044188D01*
X67535820Y-76080498D01*
X67425506Y-76139463D01*
X67328815Y-76218815D01*
X67249463Y-76315506D01*
X67190498Y-76425820D01*
X67154188Y-76545518D01*
X67153357Y-76553961D01*
X66954759Y-76355363D01*
X66719727Y-76198320D01*
X66458574Y-76090147D01*
X66181335Y-76035000D01*
X65898665Y-76035000D01*
X65621426Y-76090147D01*
X65360273Y-76198320D01*
X65125241Y-76355363D01*
X64925363Y-76555241D01*
X64770000Y-76787759D01*
X64614637Y-76555241D01*
X64414759Y-76355363D01*
X64179727Y-76198320D01*
X63918574Y-76090147D01*
X63641335Y-76035000D01*
X63358665Y-76035000D01*
X63081426Y-76090147D01*
X62820273Y-76198320D01*
X62585241Y-76355363D01*
X62385363Y-76555241D01*
X62228320Y-76790273D01*
X62223933Y-76800865D01*
X62112385Y-76614869D01*
X61923414Y-76406481D01*
X61697420Y-76238963D01*
X61443087Y-76118754D01*
X61309039Y-76078096D01*
X61087000Y-76200085D01*
X61087000Y-77343000D01*
X61107000Y-77343000D01*
X61107000Y-77597000D01*
X61087000Y-77597000D01*
X61087000Y-77617000D01*
X60833000Y-77617000D01*
X60833000Y-77597000D01*
X59689376Y-77597000D01*
X59568091Y-77819040D01*
X59662930Y-78083881D01*
X59807615Y-78325131D01*
X59821099Y-78340000D01*
X55158086Y-78340000D01*
X55657093Y-78006575D01*
X56106575Y-77557093D01*
X56397989Y-77120960D01*
X59568091Y-77120960D01*
X59689376Y-77343000D01*
X60833000Y-77343000D01*
X60833000Y-76200085D01*
X60610961Y-76078096D01*
X60476913Y-76118754D01*
X60222580Y-76238963D01*
X59996586Y-76406481D01*
X59807615Y-76614869D01*
X59662930Y-76856119D01*
X59568091Y-77120960D01*
X56397989Y-77120960D01*
X56459730Y-77028558D01*
X56702988Y-76441281D01*
X56827000Y-75817832D01*
X56827000Y-75182168D01*
X56702988Y-74558719D01*
X56459730Y-73971442D01*
X56106575Y-73442907D01*
X55810500Y-73146832D01*
X55842667Y-73150000D01*
X55842677Y-73150000D01*
X55880000Y-73153676D01*
X55917323Y-73150000D01*
X68832734Y-73150000D01*
X68758617Y-73328933D01*
X68715000Y-73548212D01*
X68715000Y-73771788D01*
X68758617Y-73991067D01*
X68844176Y-74197624D01*
X68968388Y-74383520D01*
X69126480Y-74541612D01*
X69312376Y-74665824D01*
X69518933Y-74751383D01*
X69738212Y-74795000D01*
X69961788Y-74795000D01*
X70181067Y-74751383D01*
X70387624Y-74665824D01*
X70573520Y-74541612D01*
X70731612Y-74383520D01*
X70746475Y-74361276D01*
X71826200Y-75441002D01*
X71849999Y-75470001D01*
X71879003Y-75493804D01*
X74366205Y-77981008D01*
X74389999Y-78010001D01*
X74418992Y-78033795D01*
X74418996Y-78033799D01*
X74487445Y-78089973D01*
X74505724Y-78104974D01*
X74637753Y-78175546D01*
X74781014Y-78219003D01*
X74892667Y-78230000D01*
X74892676Y-78230000D01*
X74929999Y-78233676D01*
X74967322Y-78230000D01*
X90132678Y-78230000D01*
X90170000Y-78233676D01*
X90207322Y-78230000D01*
X97752678Y-78230000D01*
X97790000Y-78233676D01*
X97827322Y-78230000D01*
X97827333Y-78230000D01*
X97938986Y-78219003D01*
X98082247Y-78175546D01*
X98214276Y-78104974D01*
X98330001Y-78010001D01*
X98353804Y-77980997D01*
X99586004Y-76748798D01*
X99615002Y-76725000D01*
X99709975Y-76609275D01*
X99780547Y-76477246D01*
X99824004Y-76333985D01*
X99835001Y-76222332D01*
X99835001Y-76222322D01*
X99838677Y-76184999D01*
X99835001Y-76147676D01*
X99835001Y-74889800D01*
X100001928Y-74722873D01*
X100001928Y-74860000D01*
X100014188Y-74984482D01*
X100050498Y-75104180D01*
X100109463Y-75214494D01*
X100188815Y-75311185D01*
X100227024Y-75342542D01*
X100227024Y-75555850D01*
X100995781Y-75555850D01*
X100995857Y-75556102D01*
X101055285Y-75667285D01*
X101135262Y-75764738D01*
X101232715Y-75844715D01*
X101343898Y-75904143D01*
X101464538Y-75940739D01*
X101558566Y-75950000D01*
X101590000Y-75953096D01*
X101621434Y-75950000D01*
X106658566Y-75950000D01*
X106690000Y-75953096D01*
X106721434Y-75950000D01*
X106815462Y-75940739D01*
X106936102Y-75904143D01*
X107047285Y-75844715D01*
X107144738Y-75764738D01*
X107224715Y-75667285D01*
X107284143Y-75556102D01*
X107301746Y-75498072D01*
X107640000Y-75498072D01*
X107764482Y-75485812D01*
X107884180Y-75449502D01*
X107994494Y-75390537D01*
X108091185Y-75311185D01*
X108170537Y-75214494D01*
X108229502Y-75104180D01*
X108265812Y-74984482D01*
X108278072Y-74860000D01*
X108278072Y-74010000D01*
X108265812Y-73885518D01*
X108229502Y-73765820D01*
X108170537Y-73655506D01*
X108091185Y-73558815D01*
X107994494Y-73479463D01*
X107884180Y-73420498D01*
X107770583Y-73386039D01*
X107778072Y-73310000D01*
X107778072Y-72210000D01*
X107765812Y-72085518D01*
X107729502Y-71965820D01*
X107670537Y-71855506D01*
X107591185Y-71758815D01*
X107494494Y-71679463D01*
X107384180Y-71620498D01*
X107264482Y-71584188D01*
X107175000Y-71575375D01*
X107175000Y-70071653D01*
X108077952Y-70071653D01*
X108233962Y-70387214D01*
X108608745Y-70578020D01*
X109013551Y-70692044D01*
X109432824Y-70724902D01*
X109850451Y-70675334D01*
X110250383Y-70545243D01*
X110546038Y-70387214D01*
X110702048Y-70071653D01*
X109390000Y-68759605D01*
X108077952Y-70071653D01*
X107175000Y-70071653D01*
X107175000Y-68622824D01*
X107245098Y-68622824D01*
X107294666Y-69040451D01*
X107424757Y-69440383D01*
X107582786Y-69736038D01*
X107898347Y-69892048D01*
X109210395Y-68580000D01*
X109569605Y-68580000D01*
X110881653Y-69892048D01*
X111197214Y-69736038D01*
X111388020Y-69361255D01*
X111502044Y-68956449D01*
X111534902Y-68537176D01*
X111485334Y-68119549D01*
X111355243Y-67719617D01*
X111197214Y-67423962D01*
X110881653Y-67267952D01*
X109569605Y-68580000D01*
X109210395Y-68580000D01*
X107898347Y-67267952D01*
X107582786Y-67423962D01*
X107391980Y-67798745D01*
X107277956Y-68203551D01*
X107245098Y-68622824D01*
X107175000Y-68622824D01*
X107175000Y-67088347D01*
X108077952Y-67088347D01*
X109390000Y-68400395D01*
X110702048Y-67088347D01*
X110546038Y-66772786D01*
X110171255Y-66581980D01*
X109766449Y-66467956D01*
X109347176Y-66435098D01*
X108929549Y-66484666D01*
X108529617Y-66614757D01*
X108233962Y-66772786D01*
X108077952Y-67088347D01*
X107175000Y-67088347D01*
X107175000Y-56132322D01*
X107178676Y-56094999D01*
X107175000Y-56057676D01*
X107175000Y-56057667D01*
X107164003Y-55946014D01*
X107120546Y-55802753D01*
X107101291Y-55766730D01*
X107049974Y-55670723D01*
X106978799Y-55583997D01*
X106955001Y-55554999D01*
X106926003Y-55531201D01*
X106679802Y-55285000D01*
X106787002Y-55285000D01*
X106787002Y-55120156D01*
X107016890Y-55241476D01*
X107164099Y-55196825D01*
X107426920Y-55071641D01*
X107660269Y-54897588D01*
X107855178Y-54681355D01*
X108004157Y-54431252D01*
X108101481Y-54156891D01*
X107980814Y-53927000D01*
X106787000Y-53927000D01*
X106787000Y-53947000D01*
X106533000Y-53947000D01*
X106533000Y-53927000D01*
X106513000Y-53927000D01*
X106513000Y-53673000D01*
X106533000Y-53673000D01*
X106533000Y-53653000D01*
X106787000Y-53653000D01*
X106787000Y-53673000D01*
X107980814Y-53673000D01*
X108101481Y-53443109D01*
X108004157Y-53168748D01*
X107855178Y-52918645D01*
X107660269Y-52702412D01*
X107430594Y-52531100D01*
X107606632Y-52413475D01*
X107813475Y-52206632D01*
X107975990Y-51963411D01*
X108087932Y-51693158D01*
X108145000Y-51406260D01*
X108145000Y-51113740D01*
X108087932Y-50826842D01*
X107975990Y-50556589D01*
X107813475Y-50313368D01*
X107606632Y-50106525D01*
X107363411Y-49944010D01*
X107093158Y-49832068D01*
X106806260Y-49775000D01*
X106513740Y-49775000D01*
X106226842Y-49832068D01*
X105956589Y-49944010D01*
X105713368Y-50106525D01*
X105506525Y-50313368D01*
X105390000Y-50487760D01*
X105273475Y-50313368D01*
X105066632Y-50106525D01*
X104823411Y-49944010D01*
X104553158Y-49832068D01*
X104266260Y-49775000D01*
X103973740Y-49775000D01*
X103686842Y-49832068D01*
X103416589Y-49944010D01*
X103173368Y-50106525D01*
X102966525Y-50313368D01*
X102850000Y-50487760D01*
X102733475Y-50313368D01*
X102526632Y-50106525D01*
X102283411Y-49944010D01*
X102013158Y-49832068D01*
X101726260Y-49775000D01*
X101433740Y-49775000D01*
X101146842Y-49832068D01*
X100876589Y-49944010D01*
X100633368Y-50106525D01*
X100426525Y-50313368D01*
X100304805Y-50495534D01*
X100235178Y-50378645D01*
X100040269Y-50162412D01*
X99806920Y-49988359D01*
X99544099Y-49863175D01*
X99396890Y-49818524D01*
X99167000Y-49939845D01*
X99167000Y-51133000D01*
X99187000Y-51133000D01*
X99187000Y-51387000D01*
X99167000Y-51387000D01*
X99167000Y-51407000D01*
X98913000Y-51407000D01*
X98913000Y-51387000D01*
X98893000Y-51387000D01*
X98893000Y-51133000D01*
X98913000Y-51133000D01*
X98913000Y-49939845D01*
X98683110Y-49818524D01*
X98535901Y-49863175D01*
X98273080Y-49988359D01*
X98039731Y-50162412D01*
X97844822Y-50378645D01*
X97775195Y-50495534D01*
X97653475Y-50313368D01*
X97446632Y-50106525D01*
X97203411Y-49944010D01*
X96933158Y-49832068D01*
X96646260Y-49775000D01*
X96353740Y-49775000D01*
X96066842Y-49832068D01*
X95796589Y-49944010D01*
X95553368Y-50106525D01*
X95346525Y-50313368D01*
X95224805Y-50495534D01*
X95155178Y-50378645D01*
X94960269Y-50162412D01*
X94726920Y-49988359D01*
X94464099Y-49863175D01*
X94316890Y-49818524D01*
X94087000Y-49939845D01*
X94087000Y-51133000D01*
X94107000Y-51133000D01*
X94107000Y-51387000D01*
X94087000Y-51387000D01*
X94087000Y-51407000D01*
X93833000Y-51407000D01*
X93833000Y-51387000D01*
X93813000Y-51387000D01*
X93813000Y-51133000D01*
X93833000Y-51133000D01*
X93833000Y-49939845D01*
X93603110Y-49818524D01*
X93455901Y-49863175D01*
X93193080Y-49988359D01*
X92959731Y-50162412D01*
X92764822Y-50378645D01*
X92695195Y-50495534D01*
X92573475Y-50313368D01*
X92366632Y-50106525D01*
X92123411Y-49944010D01*
X91853158Y-49832068D01*
X91566260Y-49775000D01*
X91273740Y-49775000D01*
X90986842Y-49832068D01*
X90716589Y-49944010D01*
X90473368Y-50106525D01*
X90266525Y-50313368D01*
X90150000Y-50487760D01*
X90033475Y-50313368D01*
X89826632Y-50106525D01*
X89583411Y-49944010D01*
X89313158Y-49832068D01*
X89026260Y-49775000D01*
X88733740Y-49775000D01*
X88446842Y-49832068D01*
X88176589Y-49944010D01*
X87933368Y-50106525D01*
X87726525Y-50313368D01*
X87610000Y-50487760D01*
X87493475Y-50313368D01*
X87286632Y-50106525D01*
X87043411Y-49944010D01*
X86773158Y-49832068D01*
X86486260Y-49775000D01*
X86193740Y-49775000D01*
X85906842Y-49832068D01*
X85636589Y-49944010D01*
X85393368Y-50106525D01*
X85186525Y-50313368D01*
X85070000Y-50487760D01*
X84953475Y-50313368D01*
X84746632Y-50106525D01*
X84503411Y-49944010D01*
X84233158Y-49832068D01*
X83946260Y-49775000D01*
X83653740Y-49775000D01*
X83366842Y-49832068D01*
X83096589Y-49944010D01*
X82853368Y-50106525D01*
X82646525Y-50313368D01*
X82524805Y-50495534D01*
X82455178Y-50378645D01*
X82260269Y-50162412D01*
X82026920Y-49988359D01*
X81764099Y-49863175D01*
X81616890Y-49818524D01*
X81387000Y-49939845D01*
X81387000Y-51133000D01*
X81407000Y-51133000D01*
X81407000Y-51387000D01*
X81387000Y-51387000D01*
X81387000Y-51407000D01*
X81133000Y-51407000D01*
X81133000Y-51387000D01*
X81113000Y-51387000D01*
X81113000Y-51133000D01*
X81133000Y-51133000D01*
X81133000Y-49939845D01*
X80903110Y-49818524D01*
X80755901Y-49863175D01*
X80493080Y-49988359D01*
X80259731Y-50162412D01*
X80064822Y-50378645D01*
X79995195Y-50495534D01*
X79873475Y-50313368D01*
X79666632Y-50106525D01*
X79423411Y-49944010D01*
X79153158Y-49832068D01*
X78866260Y-49775000D01*
X78573740Y-49775000D01*
X78286842Y-49832068D01*
X78016589Y-49944010D01*
X77773368Y-50106525D01*
X77566525Y-50313368D01*
X77450000Y-50487760D01*
X77333475Y-50313368D01*
X77126632Y-50106525D01*
X76883411Y-49944010D01*
X76613158Y-49832068D01*
X76326260Y-49775000D01*
X76033740Y-49775000D01*
X75746842Y-49832068D01*
X75476589Y-49944010D01*
X75233368Y-50106525D01*
X75026525Y-50313368D01*
X74904805Y-50495534D01*
X74835178Y-50378645D01*
X74640269Y-50162412D01*
X74406920Y-49988359D01*
X74144099Y-49863175D01*
X73996890Y-49818524D01*
X73767000Y-49939845D01*
X73767000Y-51133000D01*
X73787000Y-51133000D01*
X73787000Y-51387000D01*
X73767000Y-51387000D01*
X73767000Y-51407000D01*
X73513000Y-51407000D01*
X73513000Y-51387000D01*
X73493000Y-51387000D01*
X73493000Y-51133000D01*
X73513000Y-51133000D01*
X73513000Y-49939845D01*
X73283110Y-49818524D01*
X73135901Y-49863175D01*
X72873080Y-49988359D01*
X72639731Y-50162412D01*
X72444822Y-50378645D01*
X72375195Y-50495534D01*
X72253475Y-50313368D01*
X72046632Y-50106525D01*
X71803411Y-49944010D01*
X71533158Y-49832068D01*
X71246260Y-49775000D01*
X70953740Y-49775000D01*
X70666842Y-49832068D01*
X70396589Y-49944010D01*
X70153368Y-50106525D01*
X69946525Y-50313368D01*
X69830000Y-50487760D01*
X69713475Y-50313368D01*
X69506632Y-50106525D01*
X69263411Y-49944010D01*
X68993158Y-49832068D01*
X68706260Y-49775000D01*
X68413740Y-49775000D01*
X68126842Y-49832068D01*
X67856589Y-49944010D01*
X67613368Y-50106525D01*
X67406525Y-50313368D01*
X67290000Y-50487760D01*
X67173475Y-50313368D01*
X66966632Y-50106525D01*
X66723411Y-49944010D01*
X66453158Y-49832068D01*
X66166260Y-49775000D01*
X65873740Y-49775000D01*
X65586842Y-49832068D01*
X65316589Y-49944010D01*
X65073368Y-50106525D01*
X64866525Y-50313368D01*
X64744805Y-50495534D01*
X64675178Y-50378645D01*
X64480269Y-50162412D01*
X64246920Y-49988359D01*
X63984099Y-49863175D01*
X63836890Y-49818524D01*
X63607000Y-49939845D01*
X63607000Y-51133000D01*
X63627000Y-51133000D01*
X63627000Y-51387000D01*
X63607000Y-51387000D01*
X63607000Y-51407000D01*
X63353000Y-51407000D01*
X63353000Y-51387000D01*
X63333000Y-51387000D01*
X63333000Y-51133000D01*
X63353000Y-51133000D01*
X63353000Y-49939845D01*
X63123110Y-49818524D01*
X62975901Y-49863175D01*
X62713080Y-49988359D01*
X62479731Y-50162412D01*
X62284822Y-50378645D01*
X62215195Y-50495534D01*
X62093475Y-50313368D01*
X61886632Y-50106525D01*
X61643411Y-49944010D01*
X61373158Y-49832068D01*
X61086260Y-49775000D01*
X60793740Y-49775000D01*
X60506842Y-49832068D01*
X60236589Y-49944010D01*
X59993368Y-50106525D01*
X59786525Y-50313368D01*
X59670000Y-50487760D01*
X59553475Y-50313368D01*
X59346632Y-50106525D01*
X59103411Y-49944010D01*
X58833158Y-49832068D01*
X58546260Y-49775000D01*
X58253740Y-49775000D01*
X57966842Y-49832068D01*
X57696589Y-49944010D01*
X57453368Y-50106525D01*
X57246525Y-50313368D01*
X57084010Y-50556589D01*
X56972068Y-50826842D01*
X56915000Y-51113740D01*
X56915000Y-51406260D01*
X56958791Y-51626408D01*
X56673250Y-51911949D01*
X56602988Y-51558719D01*
X56359730Y-50971442D01*
X56006575Y-50442907D01*
X55557093Y-49993425D01*
X55058086Y-49660000D01*
X110041914Y-49660000D01*
X109542907Y-49993425D01*
G36*
X95346525Y-54746632D02*
G01*
X95553368Y-54953475D01*
X95740001Y-55078179D01*
X95740000Y-64250200D01*
X93784727Y-66205474D01*
X93810812Y-66119482D01*
X93823072Y-65995000D01*
X93820000Y-65843250D01*
X93661250Y-65684500D01*
X92837000Y-65684500D01*
X92837000Y-66471250D01*
X92995750Y-66630000D01*
X93185000Y-66633072D01*
X93309482Y-66620812D01*
X93395474Y-66594727D01*
X91038072Y-68952129D01*
X91038072Y-67080000D01*
X91025812Y-66955518D01*
X90989502Y-66835820D01*
X90930537Y-66725506D01*
X90851185Y-66628815D01*
X90822015Y-66604876D01*
X90889180Y-66584502D01*
X90999494Y-66525537D01*
X91096185Y-66446185D01*
X91175537Y-66349494D01*
X91234502Y-66239180D01*
X91270812Y-66119482D01*
X91283072Y-65995000D01*
X91596928Y-65995000D01*
X91609188Y-66119482D01*
X91645498Y-66239180D01*
X91704463Y-66349494D01*
X91783815Y-66446185D01*
X91880506Y-66525537D01*
X91990820Y-66584502D01*
X92110518Y-66620812D01*
X92235000Y-66633072D01*
X92424250Y-66630000D01*
X92583000Y-66471250D01*
X92583000Y-65684500D01*
X91758750Y-65684500D01*
X91600000Y-65843250D01*
X91596928Y-65995000D01*
X91283072Y-65995000D01*
X91280000Y-65843250D01*
X91121250Y-65684500D01*
X90297000Y-65684500D01*
X90297000Y-65704500D01*
X90043000Y-65704500D01*
X90043000Y-65684500D01*
X89218750Y-65684500D01*
X89060000Y-65843250D01*
X89056928Y-65995000D01*
X89069188Y-66119482D01*
X89105498Y-66239180D01*
X89164463Y-66349494D01*
X89240321Y-66441928D01*
X88559679Y-66441928D01*
X88635537Y-66349494D01*
X88694502Y-66239180D01*
X88730812Y-66119482D01*
X88743072Y-65995000D01*
X88740000Y-65843250D01*
X88581250Y-65684500D01*
X87757000Y-65684500D01*
X87757000Y-65704500D01*
X87503000Y-65704500D01*
X87503000Y-65684500D01*
X86678750Y-65684500D01*
X86520000Y-65843250D01*
X86516928Y-65995000D01*
X86529188Y-66119482D01*
X86565498Y-66239180D01*
X86624463Y-66349494D01*
X86703815Y-66446185D01*
X86800506Y-66525537D01*
X86910820Y-66584502D01*
X86977985Y-66604876D01*
X86948815Y-66628815D01*
X86869463Y-66725506D01*
X86810498Y-66835820D01*
X86774188Y-66955518D01*
X86761928Y-67080000D01*
X86761928Y-69645001D01*
X83407332Y-69645001D01*
X83369999Y-69641324D01*
X83332666Y-69645001D01*
X83221013Y-69655998D01*
X83077752Y-69699455D01*
X82945723Y-69770027D01*
X82829998Y-69865000D01*
X82806200Y-69893998D01*
X81128271Y-71571928D01*
X80290000Y-71571928D01*
X80165518Y-71584188D01*
X80045820Y-71620498D01*
X79935506Y-71679463D01*
X79838815Y-71758815D01*
X79759463Y-71855506D01*
X79700498Y-71965820D01*
X79664188Y-72085518D01*
X79651928Y-72210000D01*
X79651928Y-73020000D01*
X77828072Y-73020000D01*
X77828072Y-72210000D01*
X77815812Y-72085518D01*
X77779502Y-71965820D01*
X77720537Y-71855506D01*
X77641185Y-71758815D01*
X77544494Y-71679463D01*
X77434180Y-71620498D01*
X77314482Y-71584188D01*
X77190000Y-71571928D01*
X75740000Y-71571928D01*
X75615518Y-71584188D01*
X75495820Y-71620498D01*
X75385506Y-71679463D01*
X75288815Y-71758815D01*
X75209463Y-71855506D01*
X75150498Y-71965820D01*
X75114188Y-72085518D01*
X75112774Y-72099877D01*
X75065724Y-72125026D01*
X75065722Y-72125027D01*
X75065723Y-72125027D01*
X74978996Y-72196201D01*
X74978992Y-72196205D01*
X74949999Y-72219999D01*
X74926205Y-72248992D01*
X73005199Y-74170000D01*
X72704802Y-74170000D01*
X71683803Y-73149002D01*
X71683799Y-73148997D01*
X70413804Y-71879003D01*
X70390001Y-71849999D01*
X70274276Y-71755026D01*
X70142247Y-71684454D01*
X69998986Y-71640997D01*
X69887333Y-71630000D01*
X69887322Y-71630000D01*
X69850000Y-71626324D01*
X69812678Y-71630000D01*
X56194802Y-71630000D01*
X54273467Y-69708665D01*
X59525000Y-69708665D01*
X59525000Y-69991335D01*
X59580147Y-70268574D01*
X59688320Y-70529727D01*
X59845363Y-70764759D01*
X60045241Y-70964637D01*
X60280273Y-71121680D01*
X60541426Y-71229853D01*
X60818665Y-71285000D01*
X61101335Y-71285000D01*
X61378574Y-71229853D01*
X61639727Y-71121680D01*
X61874759Y-70964637D01*
X62074637Y-70764759D01*
X62230000Y-70532241D01*
X62385363Y-70764759D01*
X62585241Y-70964637D01*
X62820273Y-71121680D01*
X63081426Y-71229853D01*
X63358665Y-71285000D01*
X63641335Y-71285000D01*
X63918574Y-71229853D01*
X64179727Y-71121680D01*
X64414759Y-70964637D01*
X64614637Y-70764759D01*
X64770000Y-70532241D01*
X64925363Y-70764759D01*
X65125241Y-70964637D01*
X65360273Y-71121680D01*
X65621426Y-71229853D01*
X65898665Y-71285000D01*
X66181335Y-71285000D01*
X66458574Y-71229853D01*
X66719727Y-71121680D01*
X66954759Y-70964637D01*
X67154637Y-70764759D01*
X67310000Y-70532241D01*
X67465363Y-70764759D01*
X67665241Y-70964637D01*
X67900273Y-71121680D01*
X68161426Y-71229853D01*
X68438665Y-71285000D01*
X68721335Y-71285000D01*
X68998574Y-71229853D01*
X69259727Y-71121680D01*
X69494759Y-70964637D01*
X69694637Y-70764759D01*
X69851680Y-70529727D01*
X69959853Y-70268574D01*
X70015000Y-69991335D01*
X70015000Y-69708665D01*
X69959853Y-69431426D01*
X69851680Y-69170273D01*
X69694637Y-68935241D01*
X69494759Y-68735363D01*
X69259727Y-68578320D01*
X68998574Y-68470147D01*
X68721335Y-68415000D01*
X68438665Y-68415000D01*
X68161426Y-68470147D01*
X67900273Y-68578320D01*
X67665241Y-68735363D01*
X67465363Y-68935241D01*
X67310000Y-69167759D01*
X67154637Y-68935241D01*
X66954759Y-68735363D01*
X66719727Y-68578320D01*
X66458574Y-68470147D01*
X66181335Y-68415000D01*
X65898665Y-68415000D01*
X65621426Y-68470147D01*
X65360273Y-68578320D01*
X65125241Y-68735363D01*
X64925363Y-68935241D01*
X64770000Y-69167759D01*
X64614637Y-68935241D01*
X64414759Y-68735363D01*
X64179727Y-68578320D01*
X63918574Y-68470147D01*
X63641335Y-68415000D01*
X63358665Y-68415000D01*
X63081426Y-68470147D01*
X62820273Y-68578320D01*
X62585241Y-68735363D01*
X62385363Y-68935241D01*
X62230000Y-69167759D01*
X62074637Y-68935241D01*
X61874759Y-68735363D01*
X61639727Y-68578320D01*
X61378574Y-68470147D01*
X61101335Y-68415000D01*
X60818665Y-68415000D01*
X60541426Y-68470147D01*
X60280273Y-68578320D01*
X60045241Y-68735363D01*
X59845363Y-68935241D01*
X59688320Y-69170273D01*
X59580147Y-69431426D01*
X59525000Y-69708665D01*
X54273467Y-69708665D01*
X51560000Y-66995199D01*
X51560000Y-66756625D01*
X51595000Y-66760072D01*
X51784250Y-66757000D01*
X51943000Y-66598250D01*
X51943000Y-65811500D01*
X51923000Y-65811500D01*
X51923000Y-65557500D01*
X51943000Y-65557500D01*
X51943000Y-65537500D01*
X52197000Y-65537500D01*
X52197000Y-65557500D01*
X52865000Y-65557500D01*
X52865000Y-65684502D01*
X53023748Y-65684502D01*
X52896750Y-65811500D01*
X52197000Y-65811500D01*
X52197000Y-66598250D01*
X52355750Y-66757000D01*
X52545000Y-66760072D01*
X52669482Y-66747812D01*
X52789180Y-66711502D01*
X52899494Y-66652537D01*
X52996185Y-66573185D01*
X53075537Y-66476494D01*
X53078650Y-66470670D01*
X53145506Y-66525537D01*
X53255820Y-66584502D01*
X53375518Y-66620812D01*
X53500000Y-66633072D01*
X53689250Y-66630000D01*
X53848000Y-66471250D01*
X53848000Y-65684500D01*
X53828000Y-65684500D01*
X53828000Y-65430500D01*
X53848000Y-65430500D01*
X53848000Y-65410500D01*
X54102000Y-65410500D01*
X54102000Y-65430500D01*
X54122000Y-65430500D01*
X54122000Y-65684500D01*
X54102000Y-65684500D01*
X54102000Y-66471250D01*
X54260750Y-66630000D01*
X54450000Y-66633072D01*
X54574482Y-66620812D01*
X54694180Y-66584502D01*
X54804494Y-66525537D01*
X54871350Y-66470670D01*
X54874463Y-66476494D01*
X54953815Y-66573185D01*
X55050506Y-66652537D01*
X55160820Y-66711502D01*
X55280518Y-66747812D01*
X55405000Y-66760072D01*
X55594250Y-66757000D01*
X55753000Y-66598250D01*
X55753000Y-65811500D01*
X56007000Y-65811500D01*
X56007000Y-66598250D01*
X56165750Y-66757000D01*
X56355000Y-66760072D01*
X56479482Y-66747812D01*
X56599180Y-66711502D01*
X56709494Y-66652537D01*
X56806185Y-66573185D01*
X56832500Y-66541120D01*
X56858815Y-66573185D01*
X56955506Y-66652537D01*
X57065820Y-66711502D01*
X57185518Y-66747812D01*
X57310000Y-66760072D01*
X57499250Y-66757000D01*
X57658000Y-66598250D01*
X57658000Y-65811500D01*
X56833750Y-65811500D01*
X56832500Y-65812750D01*
X56831250Y-65811500D01*
X56007000Y-65811500D01*
X55753000Y-65811500D01*
X55053250Y-65811500D01*
X54926252Y-65684502D01*
X55085000Y-65684502D01*
X55085000Y-65557500D01*
X55753000Y-65557500D01*
X55753000Y-65537500D01*
X56007000Y-65537500D01*
X56007000Y-65557500D01*
X56831250Y-65557500D01*
X56832500Y-65556250D01*
X56833750Y-65557500D01*
X57658000Y-65557500D01*
X57658000Y-65537500D01*
X57912000Y-65537500D01*
X57912000Y-65557500D01*
X58580000Y-65557500D01*
X58580000Y-65684502D01*
X58738748Y-65684502D01*
X58611750Y-65811500D01*
X57912000Y-65811500D01*
X57912000Y-66598250D01*
X58070750Y-66757000D01*
X58260000Y-66760072D01*
X58384482Y-66747812D01*
X58504180Y-66711502D01*
X58614494Y-66652537D01*
X58711185Y-66573185D01*
X58790537Y-66476494D01*
X58793650Y-66470670D01*
X58860506Y-66525537D01*
X58970820Y-66584502D01*
X59090518Y-66620812D01*
X59215000Y-66633072D01*
X59404250Y-66630000D01*
X59563000Y-66471250D01*
X59563000Y-65684500D01*
X59817000Y-65684500D01*
X59817000Y-66471250D01*
X59975750Y-66630000D01*
X60165000Y-66633072D01*
X60289482Y-66620812D01*
X60409180Y-66584502D01*
X60519494Y-66525537D01*
X60616185Y-66446185D01*
X60695537Y-66349494D01*
X60754502Y-66239180D01*
X60790812Y-66119482D01*
X60803072Y-65995000D01*
X63656928Y-65995000D01*
X63669188Y-66119482D01*
X63705498Y-66239180D01*
X63764463Y-66349494D01*
X63843815Y-66446185D01*
X63940506Y-66525537D01*
X64050820Y-66584502D01*
X64170518Y-66620812D01*
X64295000Y-66633072D01*
X64484250Y-66630000D01*
X64643000Y-66471250D01*
X64643000Y-65684500D01*
X64897000Y-65684500D01*
X64897000Y-66471250D01*
X65055750Y-66630000D01*
X65245000Y-66633072D01*
X65369482Y-66620812D01*
X65489180Y-66584502D01*
X65599494Y-66525537D01*
X65696185Y-66446185D01*
X65722500Y-66414120D01*
X65748815Y-66446185D01*
X65845506Y-66525537D01*
X65955820Y-66584502D01*
X66075518Y-66620812D01*
X66200000Y-66633072D01*
X66389250Y-66630000D01*
X66548000Y-66471250D01*
X66548000Y-65684500D01*
X66802000Y-65684500D01*
X66802000Y-66471250D01*
X66960750Y-66630000D01*
X67150000Y-66633072D01*
X67274482Y-66620812D01*
X67394180Y-66584502D01*
X67504494Y-66525537D01*
X67601185Y-66446185D01*
X67627500Y-66414120D01*
X67653815Y-66446185D01*
X67750506Y-66525537D01*
X67860820Y-66584502D01*
X67980518Y-66620812D01*
X68105000Y-66633072D01*
X68294250Y-66630000D01*
X68453000Y-66471250D01*
X68453000Y-65684500D01*
X68707000Y-65684500D01*
X68707000Y-66471250D01*
X68865750Y-66630000D01*
X69055000Y-66633072D01*
X69179482Y-66620812D01*
X69299180Y-66584502D01*
X69409494Y-66525537D01*
X69506185Y-66446185D01*
X69532500Y-66414120D01*
X69558815Y-66446185D01*
X69655506Y-66525537D01*
X69765820Y-66584502D01*
X69885518Y-66620812D01*
X70010000Y-66633072D01*
X70199250Y-66630000D01*
X70358000Y-66471250D01*
X70358000Y-65684500D01*
X70612000Y-65684500D01*
X70612000Y-66471250D01*
X70770750Y-66630000D01*
X70960000Y-66633072D01*
X71084482Y-66620812D01*
X71204180Y-66584502D01*
X71310500Y-66527672D01*
X71416820Y-66584502D01*
X71536518Y-66620812D01*
X71661000Y-66633072D01*
X71850250Y-66630000D01*
X72009000Y-66471250D01*
X72009000Y-65684500D01*
X72263000Y-65684500D01*
X72263000Y-66471250D01*
X72421750Y-66630000D01*
X72611000Y-66633072D01*
X72735482Y-66620812D01*
X72855180Y-66584502D01*
X72965494Y-66525537D01*
X73062185Y-66446185D01*
X73141537Y-66349494D01*
X73200502Y-66239180D01*
X73215500Y-66189738D01*
X73230498Y-66239180D01*
X73289463Y-66349494D01*
X73368815Y-66446185D01*
X73465506Y-66525537D01*
X73575820Y-66584502D01*
X73695518Y-66620812D01*
X73820000Y-66633072D01*
X74009250Y-66630000D01*
X74168000Y-66471250D01*
X74168000Y-65684500D01*
X74422000Y-65684500D01*
X74422000Y-66471250D01*
X74580750Y-66630000D01*
X74770000Y-66633072D01*
X74894482Y-66620812D01*
X75014180Y-66584502D01*
X75124494Y-66525537D01*
X75221185Y-66446185D01*
X75300537Y-66349494D01*
X75359502Y-66239180D01*
X75395812Y-66119482D01*
X75408072Y-65995000D01*
X79531928Y-65995000D01*
X79544188Y-66119482D01*
X79580498Y-66239180D01*
X79639463Y-66349494D01*
X79718815Y-66446185D01*
X79815506Y-66525537D01*
X79925820Y-66584502D01*
X80045518Y-66620812D01*
X80170000Y-66633072D01*
X80359250Y-66630000D01*
X80518000Y-66471250D01*
X80518000Y-65684500D01*
X80772000Y-65684500D01*
X80772000Y-66471250D01*
X80930750Y-66630000D01*
X81120000Y-66633072D01*
X81244482Y-66620812D01*
X81364180Y-66584502D01*
X81474494Y-66525537D01*
X81571185Y-66446185D01*
X81597500Y-66414120D01*
X81623815Y-66446185D01*
X81720506Y-66525537D01*
X81830820Y-66584502D01*
X81950518Y-66620812D01*
X82075000Y-66633072D01*
X82264250Y-66630000D01*
X82423000Y-66471250D01*
X82423000Y-65684500D01*
X82677000Y-65684500D01*
X82677000Y-66471250D01*
X82835750Y-66630000D01*
X83025000Y-66633072D01*
X83149482Y-66620812D01*
X83269180Y-66584502D01*
X83379494Y-66525537D01*
X83476185Y-66446185D01*
X83555537Y-66349494D01*
X83614502Y-66239180D01*
X83650812Y-66119482D01*
X83663072Y-65995000D01*
X83976928Y-65995000D01*
X83989188Y-66119482D01*
X84025498Y-66239180D01*
X84084463Y-66349494D01*
X84163815Y-66446185D01*
X84260506Y-66525537D01*
X84370820Y-66584502D01*
X84490518Y-66620812D01*
X84615000Y-66633072D01*
X84804250Y-66630000D01*
X84963000Y-66471250D01*
X84963000Y-65684500D01*
X85217000Y-65684500D01*
X85217000Y-66471250D01*
X85375750Y-66630000D01*
X85565000Y-66633072D01*
X85689482Y-66620812D01*
X85809180Y-66584502D01*
X85919494Y-66525537D01*
X86016185Y-66446185D01*
X86095537Y-66349494D01*
X86154502Y-66239180D01*
X86190812Y-66119482D01*
X86203072Y-65995000D01*
X86200000Y-65843250D01*
X86041250Y-65684500D01*
X85217000Y-65684500D01*
X84963000Y-65684500D01*
X84138750Y-65684500D01*
X83980000Y-65843250D01*
X83976928Y-65995000D01*
X83663072Y-65995000D01*
X83660000Y-65843250D01*
X83501250Y-65684500D01*
X82677000Y-65684500D01*
X82423000Y-65684500D01*
X81598750Y-65684500D01*
X81597500Y-65685750D01*
X81596250Y-65684500D01*
X80772000Y-65684500D01*
X80518000Y-65684500D01*
X79693750Y-65684500D01*
X79535000Y-65843250D01*
X79531928Y-65995000D01*
X75408072Y-65995000D01*
X75405000Y-65843250D01*
X75246250Y-65684500D01*
X74422000Y-65684500D01*
X74168000Y-65684500D01*
X73343750Y-65684500D01*
X73215500Y-65812750D01*
X73087250Y-65684500D01*
X72263000Y-65684500D01*
X72009000Y-65684500D01*
X70612000Y-65684500D01*
X70358000Y-65684500D01*
X69533750Y-65684500D01*
X69532500Y-65685750D01*
X69531250Y-65684500D01*
X68707000Y-65684500D01*
X68453000Y-65684500D01*
X67628750Y-65684500D01*
X67627500Y-65685750D01*
X67626250Y-65684500D01*
X66802000Y-65684500D01*
X66548000Y-65684500D01*
X65723750Y-65684500D01*
X65722500Y-65685750D01*
X65721250Y-65684500D01*
X64897000Y-65684500D01*
X64643000Y-65684500D01*
X63818750Y-65684500D01*
X63660000Y-65843250D01*
X63656928Y-65995000D01*
X60803072Y-65995000D01*
X60800000Y-65843250D01*
X60641250Y-65684500D01*
X59817000Y-65684500D01*
X59563000Y-65684500D01*
X59543000Y-65684500D01*
X59543000Y-65430500D01*
X59563000Y-65430500D01*
X59563000Y-65410500D01*
X59817000Y-65410500D01*
X59817000Y-65430500D01*
X60641250Y-65430500D01*
X60800000Y-65271750D01*
X60803072Y-65120000D01*
X60790812Y-64995518D01*
X60754502Y-64875820D01*
X60695537Y-64765506D01*
X60640900Y-64698930D01*
X60658671Y-64677275D01*
X60737850Y-64529142D01*
X60786608Y-64368408D01*
X60803072Y-64201250D01*
X60803072Y-63763750D01*
X60786608Y-63596592D01*
X60737850Y-63435858D01*
X60658671Y-63287725D01*
X60552115Y-63157885D01*
X60450000Y-63074082D01*
X60450000Y-62655918D01*
X60552115Y-62572115D01*
X60658671Y-62442275D01*
X60737850Y-62294142D01*
X60786608Y-62133408D01*
X60803072Y-61966250D01*
X60803072Y-61528750D01*
X60786608Y-61361592D01*
X60737850Y-61200858D01*
X60658671Y-61052725D01*
X60582574Y-60960000D01*
X60658671Y-60867275D01*
X60737850Y-60719142D01*
X60786608Y-60558408D01*
X60803072Y-60391250D01*
X60803072Y-59953750D01*
X60786608Y-59786592D01*
X60737850Y-59625858D01*
X60658671Y-59477725D01*
X60552115Y-59347885D01*
X60450000Y-59264082D01*
X60450000Y-59217301D01*
X61122302Y-58545000D01*
X63742320Y-58545000D01*
X63779642Y-58548676D01*
X63816964Y-58545000D01*
X63816975Y-58545000D01*
X63928628Y-58534003D01*
X64010000Y-58509319D01*
X64010000Y-59416582D01*
X63907885Y-59500385D01*
X63801329Y-59630225D01*
X63722150Y-59778358D01*
X63673392Y-59939092D01*
X63656928Y-60106250D01*
X63656928Y-60543750D01*
X63673392Y-60710908D01*
X63722150Y-60871642D01*
X63801329Y-61019775D01*
X63877426Y-61112500D01*
X63801329Y-61205225D01*
X63722150Y-61353358D01*
X63673392Y-61514092D01*
X63656928Y-61681250D01*
X63656928Y-62118750D01*
X63673392Y-62285908D01*
X63722150Y-62446642D01*
X63801329Y-62594775D01*
X63907885Y-62724615D01*
X64010001Y-62808418D01*
X64010000Y-63074082D01*
X63907885Y-63157885D01*
X63801329Y-63287725D01*
X63722150Y-63435858D01*
X63673392Y-63596592D01*
X63656928Y-63763750D01*
X63656928Y-64201250D01*
X63673392Y-64368408D01*
X63722150Y-64529142D01*
X63801329Y-64677275D01*
X63819100Y-64698930D01*
X63764463Y-64765506D01*
X63705498Y-64875820D01*
X63669188Y-64995518D01*
X63656928Y-65120000D01*
X63660000Y-65271750D01*
X63818750Y-65430500D01*
X64643000Y-65430500D01*
X64643000Y-65410500D01*
X64897000Y-65410500D01*
X64897000Y-65430500D01*
X65721250Y-65430500D01*
X65722500Y-65429250D01*
X65723750Y-65430500D01*
X66548000Y-65430500D01*
X66548000Y-65410500D01*
X66802000Y-65410500D01*
X66802000Y-65430500D01*
X67626250Y-65430500D01*
X67627500Y-65429250D01*
X67628750Y-65430500D01*
X68453000Y-65430500D01*
X68453000Y-65410500D01*
X68707000Y-65410500D01*
X68707000Y-65430500D01*
X69531250Y-65430500D01*
X69532500Y-65429250D01*
X69533750Y-65430500D01*
X70358000Y-65430500D01*
X70358000Y-65410500D01*
X70612000Y-65410500D01*
X70612000Y-65430500D01*
X72009000Y-65430500D01*
X72009000Y-65410500D01*
X72263000Y-65410500D01*
X72263000Y-65430500D01*
X73087250Y-65430500D01*
X73215500Y-65302250D01*
X73343750Y-65430500D01*
X74168000Y-65430500D01*
X74168000Y-65410500D01*
X74422000Y-65410500D01*
X74422000Y-65430500D01*
X75246250Y-65430500D01*
X75405000Y-65271750D01*
X75408072Y-65120000D01*
X75395812Y-64995518D01*
X75359502Y-64875820D01*
X75300537Y-64765506D01*
X75245900Y-64698930D01*
X75263671Y-64677275D01*
X75342850Y-64529142D01*
X75391608Y-64368408D01*
X75408072Y-64201250D01*
X75408072Y-63763750D01*
X75391608Y-63596592D01*
X75342850Y-63435858D01*
X75263671Y-63287725D01*
X75157115Y-63157885D01*
X75055000Y-63074082D01*
X75055000Y-62655918D01*
X75157115Y-62572115D01*
X75263671Y-62442275D01*
X75342850Y-62294142D01*
X75391608Y-62133408D01*
X75408072Y-61966250D01*
X75408072Y-61528750D01*
X75391608Y-61361592D01*
X75342850Y-61200858D01*
X75263671Y-61052725D01*
X75187574Y-60960000D01*
X75263671Y-60867275D01*
X75342850Y-60719142D01*
X75391608Y-60558408D01*
X75408072Y-60391250D01*
X75408072Y-60134229D01*
X77817292Y-57725010D01*
X79330488Y-57725010D01*
X79367810Y-57728686D01*
X79405132Y-57725010D01*
X79405143Y-57725010D01*
X79516796Y-57714013D01*
X79660057Y-57670556D01*
X79792086Y-57599984D01*
X79907811Y-57505011D01*
X79931614Y-57476008D01*
X80731907Y-56675715D01*
X82283373Y-56675715D01*
X82320695Y-56679391D01*
X82358017Y-56675715D01*
X82358028Y-56675715D01*
X82392920Y-56672278D01*
X80134003Y-58931196D01*
X80104999Y-58954999D01*
X80064512Y-59004333D01*
X80010026Y-59070724D01*
X79956670Y-59170546D01*
X79939454Y-59202754D01*
X79930661Y-59231742D01*
X79912725Y-59241329D01*
X79782885Y-59347885D01*
X79676329Y-59477725D01*
X79597150Y-59625858D01*
X79548392Y-59786592D01*
X79531928Y-59953750D01*
X79531928Y-60391250D01*
X79548392Y-60558408D01*
X79597150Y-60719142D01*
X79676329Y-60867275D01*
X79752426Y-60960000D01*
X79676329Y-61052725D01*
X79597150Y-61200858D01*
X79548392Y-61361592D01*
X79531928Y-61528750D01*
X79531928Y-61966250D01*
X79548392Y-62133408D01*
X79597150Y-62294142D01*
X79676329Y-62442275D01*
X79782885Y-62572115D01*
X79885000Y-62655918D01*
X79885001Y-63074082D01*
X79782885Y-63157885D01*
X79676329Y-63287725D01*
X79597150Y-63435858D01*
X79548392Y-63596592D01*
X79531928Y-63763750D01*
X79531928Y-64201250D01*
X79548392Y-64368408D01*
X79597150Y-64529142D01*
X79676329Y-64677275D01*
X79694100Y-64698930D01*
X79639463Y-64765506D01*
X79580498Y-64875820D01*
X79544188Y-64995518D01*
X79531928Y-65120000D01*
X79535000Y-65271750D01*
X79693750Y-65430500D01*
X80518000Y-65430500D01*
X80518000Y-65410500D01*
X80772000Y-65410500D01*
X80772000Y-65430500D01*
X81596250Y-65430500D01*
X81597500Y-65429250D01*
X81598750Y-65430500D01*
X82423000Y-65430500D01*
X82423000Y-65410500D01*
X82677000Y-65410500D01*
X82677000Y-65430500D01*
X83501250Y-65430500D01*
X83660000Y-65271750D01*
X83663072Y-65120000D01*
X83650812Y-64995518D01*
X83614502Y-64875820D01*
X83555537Y-64765506D01*
X83500900Y-64698930D01*
X83518671Y-64677275D01*
X83597850Y-64529142D01*
X83646608Y-64368408D01*
X83663072Y-64201250D01*
X83663072Y-63763750D01*
X83646608Y-63596592D01*
X83597850Y-63435858D01*
X83518671Y-63287725D01*
X83412115Y-63157885D01*
X83310000Y-63074082D01*
X83310000Y-62655918D01*
X83412115Y-62572115D01*
X83518671Y-62442275D01*
X83597850Y-62294142D01*
X83646608Y-62133408D01*
X83663072Y-61966250D01*
X83663072Y-61528750D01*
X83646608Y-61361592D01*
X83597850Y-61200858D01*
X83518671Y-61052725D01*
X83442574Y-60960000D01*
X83518671Y-60867275D01*
X83597850Y-60719142D01*
X83646608Y-60558408D01*
X83663072Y-60391250D01*
X83663072Y-60134229D01*
X83991500Y-59805801D01*
X83976928Y-59953750D01*
X83976928Y-60391250D01*
X83993392Y-60558408D01*
X84042150Y-60719142D01*
X84121329Y-60867275D01*
X84197426Y-60960000D01*
X84121329Y-61052725D01*
X84042150Y-61200858D01*
X83993392Y-61361592D01*
X83976928Y-61528750D01*
X83976928Y-61966250D01*
X83993392Y-62133408D01*
X84042150Y-62294142D01*
X84121329Y-62442275D01*
X84227885Y-62572115D01*
X84330001Y-62655918D01*
X84330000Y-63074082D01*
X84227885Y-63157885D01*
X84121329Y-63287725D01*
X84042150Y-63435858D01*
X83993392Y-63596592D01*
X83976928Y-63763750D01*
X83976928Y-64201250D01*
X83993392Y-64368408D01*
X84042150Y-64529142D01*
X84121329Y-64677275D01*
X84139100Y-64698930D01*
X84084463Y-64765506D01*
X84025498Y-64875820D01*
X83989188Y-64995518D01*
X83976928Y-65120000D01*
X83980000Y-65271750D01*
X84138750Y-65430500D01*
X84963000Y-65430500D01*
X84963000Y-65410500D01*
X85217000Y-65410500D01*
X85217000Y-65430500D01*
X86041250Y-65430500D01*
X86200000Y-65271750D01*
X86203072Y-65120000D01*
X86190812Y-64995518D01*
X86154502Y-64875820D01*
X86095537Y-64765506D01*
X86040900Y-64698930D01*
X86058671Y-64677275D01*
X86137850Y-64529142D01*
X86186608Y-64368408D01*
X86203072Y-64201250D01*
X86203072Y-63763750D01*
X86186608Y-63596592D01*
X86137850Y-63435858D01*
X86058671Y-63287725D01*
X85952115Y-63157885D01*
X85850000Y-63074082D01*
X85850000Y-62655918D01*
X85952115Y-62572115D01*
X86058671Y-62442275D01*
X86137850Y-62294142D01*
X86186608Y-62133408D01*
X86203072Y-61966250D01*
X86203072Y-61528750D01*
X86186608Y-61361592D01*
X86137850Y-61200858D01*
X86058671Y-61052725D01*
X85982574Y-60960000D01*
X86058671Y-60867275D01*
X86137850Y-60719142D01*
X86186608Y-60558408D01*
X86203072Y-60391250D01*
X86203072Y-60134229D01*
X86531500Y-59805801D01*
X86516928Y-59953750D01*
X86516928Y-60391250D01*
X86533392Y-60558408D01*
X86582150Y-60719142D01*
X86661329Y-60867275D01*
X86737426Y-60960000D01*
X86661329Y-61052725D01*
X86582150Y-61200858D01*
X86533392Y-61361592D01*
X86516928Y-61528750D01*
X86516928Y-61966250D01*
X86533392Y-62133408D01*
X86582150Y-62294142D01*
X86661329Y-62442275D01*
X86767885Y-62572115D01*
X86870001Y-62655918D01*
X86870000Y-63074082D01*
X86767885Y-63157885D01*
X86661329Y-63287725D01*
X86582150Y-63435858D01*
X86533392Y-63596592D01*
X86516928Y-63763750D01*
X86516928Y-64201250D01*
X86533392Y-64368408D01*
X86582150Y-64529142D01*
X86661329Y-64677275D01*
X86679100Y-64698930D01*
X86624463Y-64765506D01*
X86565498Y-64875820D01*
X86529188Y-64995518D01*
X86516928Y-65120000D01*
X86520000Y-65271750D01*
X86678750Y-65430500D01*
X87503000Y-65430500D01*
X87503000Y-65410500D01*
X87757000Y-65410500D01*
X87757000Y-65430500D01*
X88581250Y-65430500D01*
X88740000Y-65271750D01*
X88743072Y-65120000D01*
X88730812Y-64995518D01*
X88694502Y-64875820D01*
X88635537Y-64765506D01*
X88580900Y-64698930D01*
X88598671Y-64677275D01*
X88677850Y-64529142D01*
X88726608Y-64368408D01*
X88743072Y-64201250D01*
X88743072Y-63763750D01*
X88726608Y-63596592D01*
X88677850Y-63435858D01*
X88598671Y-63287725D01*
X88492115Y-63157885D01*
X88390000Y-63074082D01*
X88390000Y-62655918D01*
X88492115Y-62572115D01*
X88598671Y-62442275D01*
X88677850Y-62294142D01*
X88726608Y-62133408D01*
X88743072Y-61966250D01*
X88743072Y-61528750D01*
X88726608Y-61361592D01*
X88677850Y-61200858D01*
X88598671Y-61052725D01*
X88522574Y-60960000D01*
X88598671Y-60867275D01*
X88677850Y-60719142D01*
X88726608Y-60558408D01*
X88743072Y-60391250D01*
X88743072Y-60134229D01*
X89071500Y-59805801D01*
X89056928Y-59953750D01*
X89056928Y-60391250D01*
X89073392Y-60558408D01*
X89122150Y-60719142D01*
X89201329Y-60867275D01*
X89277426Y-60960000D01*
X89201329Y-61052725D01*
X89122150Y-61200858D01*
X89073392Y-61361592D01*
X89056928Y-61528750D01*
X89056928Y-61966250D01*
X89073392Y-62133408D01*
X89122150Y-62294142D01*
X89201329Y-62442275D01*
X89307885Y-62572115D01*
X89410001Y-62655918D01*
X89410000Y-63074082D01*
X89307885Y-63157885D01*
X89201329Y-63287725D01*
X89122150Y-63435858D01*
X89073392Y-63596592D01*
X89056928Y-63763750D01*
X89056928Y-64201250D01*
X89073392Y-64368408D01*
X89122150Y-64529142D01*
X89201329Y-64677275D01*
X89219100Y-64698930D01*
X89164463Y-64765506D01*
X89105498Y-64875820D01*
X89069188Y-64995518D01*
X89056928Y-65120000D01*
X89060000Y-65271750D01*
X89218750Y-65430500D01*
X90043000Y-65430500D01*
X90043000Y-65410500D01*
X90297000Y-65410500D01*
X90297000Y-65430500D01*
X91121250Y-65430500D01*
X91280000Y-65271750D01*
X91283072Y-65120000D01*
X91270812Y-64995518D01*
X91234502Y-64875820D01*
X91175537Y-64765506D01*
X91120900Y-64698930D01*
X91138671Y-64677275D01*
X91217850Y-64529142D01*
X91266608Y-64368408D01*
X91283072Y-64201250D01*
X91283072Y-63763750D01*
X91266608Y-63596592D01*
X91217850Y-63435858D01*
X91138671Y-63287725D01*
X91032115Y-63157885D01*
X90930000Y-63074082D01*
X90930000Y-62655918D01*
X91032115Y-62572115D01*
X91138671Y-62442275D01*
X91217850Y-62294142D01*
X91266608Y-62133408D01*
X91283072Y-61966250D01*
X91283072Y-61528750D01*
X91266608Y-61361592D01*
X91217850Y-61200858D01*
X91138671Y-61052725D01*
X91062574Y-60960000D01*
X91138671Y-60867275D01*
X91217850Y-60719142D01*
X91266608Y-60558408D01*
X91283072Y-60391250D01*
X91283072Y-60134229D01*
X91611500Y-59805801D01*
X91596928Y-59953750D01*
X91596928Y-60391250D01*
X91613392Y-60558408D01*
X91662150Y-60719142D01*
X91741329Y-60867275D01*
X91817426Y-60960000D01*
X91741329Y-61052725D01*
X91662150Y-61200858D01*
X91613392Y-61361592D01*
X91596928Y-61528750D01*
X91596928Y-61966250D01*
X91613392Y-62133408D01*
X91662150Y-62294142D01*
X91741329Y-62442275D01*
X91847885Y-62572115D01*
X91950001Y-62655918D01*
X91950000Y-63074082D01*
X91847885Y-63157885D01*
X91741329Y-63287725D01*
X91662150Y-63435858D01*
X91613392Y-63596592D01*
X91596928Y-63763750D01*
X91596928Y-64201250D01*
X91613392Y-64368408D01*
X91662150Y-64529142D01*
X91741329Y-64677275D01*
X91759100Y-64698930D01*
X91704463Y-64765506D01*
X91645498Y-64875820D01*
X91609188Y-64995518D01*
X91596928Y-65120000D01*
X91600000Y-65271750D01*
X91758750Y-65430500D01*
X92583000Y-65430500D01*
X92583000Y-65410500D01*
X92837000Y-65410500D01*
X92837000Y-65430500D01*
X93661250Y-65430500D01*
X93820000Y-65271750D01*
X93823072Y-65120000D01*
X93810812Y-64995518D01*
X93774502Y-64875820D01*
X93715537Y-64765506D01*
X93660900Y-64698930D01*
X93678671Y-64677275D01*
X93757850Y-64529142D01*
X93806608Y-64368408D01*
X93823072Y-64201250D01*
X93823072Y-63763750D01*
X93806608Y-63596592D01*
X93757850Y-63435858D01*
X93678671Y-63287725D01*
X93572115Y-63157885D01*
X93470000Y-63074082D01*
X93470000Y-62655918D01*
X93572115Y-62572115D01*
X93678671Y-62442275D01*
X93757850Y-62294142D01*
X93806608Y-62133408D01*
X93823072Y-61966250D01*
X93823072Y-61528750D01*
X93806608Y-61361592D01*
X93757850Y-61200858D01*
X93678671Y-61052725D01*
X93602574Y-60960000D01*
X93678671Y-60867275D01*
X93757850Y-60719142D01*
X93806608Y-60558408D01*
X93823072Y-60391250D01*
X93823072Y-60134229D01*
X94471003Y-59486299D01*
X94500001Y-59462501D01*
X94526332Y-59430417D01*
X94594974Y-59346777D01*
X94665546Y-59214747D01*
X94668810Y-59203986D01*
X94709003Y-59071486D01*
X94720000Y-58959833D01*
X94720000Y-58959823D01*
X94723676Y-58922500D01*
X94720000Y-58885177D01*
X94720000Y-55078178D01*
X94906632Y-54953475D01*
X95113475Y-54746632D01*
X95230000Y-54572240D01*
X95346525Y-54746632D01*
G37*
X95346525Y-54746632D02*
X95553368Y-54953475D01*
X95740001Y-55078179D01*
X95740000Y-64250200D01*
X93784727Y-66205474D01*
X93810812Y-66119482D01*
X93823072Y-65995000D01*
X93820000Y-65843250D01*
X93661250Y-65684500D01*
X92837000Y-65684500D01*
X92837000Y-66471250D01*
X92995750Y-66630000D01*
X93185000Y-66633072D01*
X93309482Y-66620812D01*
X93395474Y-66594727D01*
X91038072Y-68952129D01*
X91038072Y-67080000D01*
X91025812Y-66955518D01*
X90989502Y-66835820D01*
X90930537Y-66725506D01*
X90851185Y-66628815D01*
X90822015Y-66604876D01*
X90889180Y-66584502D01*
X90999494Y-66525537D01*
X91096185Y-66446185D01*
X91175537Y-66349494D01*
X91234502Y-66239180D01*
X91270812Y-66119482D01*
X91283072Y-65995000D01*
X91596928Y-65995000D01*
X91609188Y-66119482D01*
X91645498Y-66239180D01*
X91704463Y-66349494D01*
X91783815Y-66446185D01*
X91880506Y-66525537D01*
X91990820Y-66584502D01*
X92110518Y-66620812D01*
X92235000Y-66633072D01*
X92424250Y-66630000D01*
X92583000Y-66471250D01*
X92583000Y-65684500D01*
X91758750Y-65684500D01*
X91600000Y-65843250D01*
X91596928Y-65995000D01*
X91283072Y-65995000D01*
X91280000Y-65843250D01*
X91121250Y-65684500D01*
X90297000Y-65684500D01*
X90297000Y-65704500D01*
X90043000Y-65704500D01*
X90043000Y-65684500D01*
X89218750Y-65684500D01*
X89060000Y-65843250D01*
X89056928Y-65995000D01*
X89069188Y-66119482D01*
X89105498Y-66239180D01*
X89164463Y-66349494D01*
X89240321Y-66441928D01*
X88559679Y-66441928D01*
X88635537Y-66349494D01*
X88694502Y-66239180D01*
X88730812Y-66119482D01*
X88743072Y-65995000D01*
X88740000Y-65843250D01*
X88581250Y-65684500D01*
X87757000Y-65684500D01*
X87757000Y-65704500D01*
X87503000Y-65704500D01*
X87503000Y-65684500D01*
X86678750Y-65684500D01*
X86520000Y-65843250D01*
X86516928Y-65995000D01*
X86529188Y-66119482D01*
X86565498Y-66239180D01*
X86624463Y-66349494D01*
X86703815Y-66446185D01*
X86800506Y-66525537D01*
X86910820Y-66584502D01*
X86977985Y-66604876D01*
X86948815Y-66628815D01*
X86869463Y-66725506D01*
X86810498Y-66835820D01*
X86774188Y-66955518D01*
X86761928Y-67080000D01*
X86761928Y-69645001D01*
X83407332Y-69645001D01*
X83369999Y-69641324D01*
X83332666Y-69645001D01*
X83221013Y-69655998D01*
X83077752Y-69699455D01*
X82945723Y-69770027D01*
X82829998Y-69865000D01*
X82806200Y-69893998D01*
X81128271Y-71571928D01*
X80290000Y-71571928D01*
X80165518Y-71584188D01*
X80045820Y-71620498D01*
X79935506Y-71679463D01*
X79838815Y-71758815D01*
X79759463Y-71855506D01*
X79700498Y-71965820D01*
X79664188Y-72085518D01*
X79651928Y-72210000D01*
X79651928Y-73020000D01*
X77828072Y-73020000D01*
X77828072Y-72210000D01*
X77815812Y-72085518D01*
X77779502Y-71965820D01*
X77720537Y-71855506D01*
X77641185Y-71758815D01*
X77544494Y-71679463D01*
X77434180Y-71620498D01*
X77314482Y-71584188D01*
X77190000Y-71571928D01*
X75740000Y-71571928D01*
X75615518Y-71584188D01*
X75495820Y-71620498D01*
X75385506Y-71679463D01*
X75288815Y-71758815D01*
X75209463Y-71855506D01*
X75150498Y-71965820D01*
X75114188Y-72085518D01*
X75112774Y-72099877D01*
X75065724Y-72125026D01*
X75065722Y-72125027D01*
X75065723Y-72125027D01*
X74978996Y-72196201D01*
X74978992Y-72196205D01*
X74949999Y-72219999D01*
X74926205Y-72248992D01*
X73005199Y-74170000D01*
X72704802Y-74170000D01*
X71683803Y-73149002D01*
X71683799Y-73148997D01*
X70413804Y-71879003D01*
X70390001Y-71849999D01*
X70274276Y-71755026D01*
X70142247Y-71684454D01*
X69998986Y-71640997D01*
X69887333Y-71630000D01*
X69887322Y-71630000D01*
X69850000Y-71626324D01*
X69812678Y-71630000D01*
X56194802Y-71630000D01*
X54273467Y-69708665D01*
X59525000Y-69708665D01*
X59525000Y-69991335D01*
X59580147Y-70268574D01*
X59688320Y-70529727D01*
X59845363Y-70764759D01*
X60045241Y-70964637D01*
X60280273Y-71121680D01*
X60541426Y-71229853D01*
X60818665Y-71285000D01*
X61101335Y-71285000D01*
X61378574Y-71229853D01*
X61639727Y-71121680D01*
X61874759Y-70964637D01*
X62074637Y-70764759D01*
X62230000Y-70532241D01*
X62385363Y-70764759D01*
X62585241Y-70964637D01*
X62820273Y-71121680D01*
X63081426Y-71229853D01*
X63358665Y-71285000D01*
X63641335Y-71285000D01*
X63918574Y-71229853D01*
X64179727Y-71121680D01*
X64414759Y-70964637D01*
X64614637Y-70764759D01*
X64770000Y-70532241D01*
X64925363Y-70764759D01*
X65125241Y-70964637D01*
X65360273Y-71121680D01*
X65621426Y-71229853D01*
X65898665Y-71285000D01*
X66181335Y-71285000D01*
X66458574Y-71229853D01*
X66719727Y-71121680D01*
X66954759Y-70964637D01*
X67154637Y-70764759D01*
X67310000Y-70532241D01*
X67465363Y-70764759D01*
X67665241Y-70964637D01*
X67900273Y-71121680D01*
X68161426Y-71229853D01*
X68438665Y-71285000D01*
X68721335Y-71285000D01*
X68998574Y-71229853D01*
X69259727Y-71121680D01*
X69494759Y-70964637D01*
X69694637Y-70764759D01*
X69851680Y-70529727D01*
X69959853Y-70268574D01*
X70015000Y-69991335D01*
X70015000Y-69708665D01*
X69959853Y-69431426D01*
X69851680Y-69170273D01*
X69694637Y-68935241D01*
X69494759Y-68735363D01*
X69259727Y-68578320D01*
X68998574Y-68470147D01*
X68721335Y-68415000D01*
X68438665Y-68415000D01*
X68161426Y-68470147D01*
X67900273Y-68578320D01*
X67665241Y-68735363D01*
X67465363Y-68935241D01*
X67310000Y-69167759D01*
X67154637Y-68935241D01*
X66954759Y-68735363D01*
X66719727Y-68578320D01*
X66458574Y-68470147D01*
X66181335Y-68415000D01*
X65898665Y-68415000D01*
X65621426Y-68470147D01*
X65360273Y-68578320D01*
X65125241Y-68735363D01*
X64925363Y-68935241D01*
X64770000Y-69167759D01*
X64614637Y-68935241D01*
X64414759Y-68735363D01*
X64179727Y-68578320D01*
X63918574Y-68470147D01*
X63641335Y-68415000D01*
X63358665Y-68415000D01*
X63081426Y-68470147D01*
X62820273Y-68578320D01*
X62585241Y-68735363D01*
X62385363Y-68935241D01*
X62230000Y-69167759D01*
X62074637Y-68935241D01*
X61874759Y-68735363D01*
X61639727Y-68578320D01*
X61378574Y-68470147D01*
X61101335Y-68415000D01*
X60818665Y-68415000D01*
X60541426Y-68470147D01*
X60280273Y-68578320D01*
X60045241Y-68735363D01*
X59845363Y-68935241D01*
X59688320Y-69170273D01*
X59580147Y-69431426D01*
X59525000Y-69708665D01*
X54273467Y-69708665D01*
X51560000Y-66995199D01*
X51560000Y-66756625D01*
X51595000Y-66760072D01*
X51784250Y-66757000D01*
X51943000Y-66598250D01*
X51943000Y-65811500D01*
X51923000Y-65811500D01*
X51923000Y-65557500D01*
X51943000Y-65557500D01*
X51943000Y-65537500D01*
X52197000Y-65537500D01*
X52197000Y-65557500D01*
X52865000Y-65557500D01*
X52865000Y-65684502D01*
X53023748Y-65684502D01*
X52896750Y-65811500D01*
X52197000Y-65811500D01*
X52197000Y-66598250D01*
X52355750Y-66757000D01*
X52545000Y-66760072D01*
X52669482Y-66747812D01*
X52789180Y-66711502D01*
X52899494Y-66652537D01*
X52996185Y-66573185D01*
X53075537Y-66476494D01*
X53078650Y-66470670D01*
X53145506Y-66525537D01*
X53255820Y-66584502D01*
X53375518Y-66620812D01*
X53500000Y-66633072D01*
X53689250Y-66630000D01*
X53848000Y-66471250D01*
X53848000Y-65684500D01*
X53828000Y-65684500D01*
X53828000Y-65430500D01*
X53848000Y-65430500D01*
X53848000Y-65410500D01*
X54102000Y-65410500D01*
X54102000Y-65430500D01*
X54122000Y-65430500D01*
X54122000Y-65684500D01*
X54102000Y-65684500D01*
X54102000Y-66471250D01*
X54260750Y-66630000D01*
X54450000Y-66633072D01*
X54574482Y-66620812D01*
X54694180Y-66584502D01*
X54804494Y-66525537D01*
X54871350Y-66470670D01*
X54874463Y-66476494D01*
X54953815Y-66573185D01*
X55050506Y-66652537D01*
X55160820Y-66711502D01*
X55280518Y-66747812D01*
X55405000Y-66760072D01*
X55594250Y-66757000D01*
X55753000Y-66598250D01*
X55753000Y-65811500D01*
X56007000Y-65811500D01*
X56007000Y-66598250D01*
X56165750Y-66757000D01*
X56355000Y-66760072D01*
X56479482Y-66747812D01*
X56599180Y-66711502D01*
X56709494Y-66652537D01*
X56806185Y-66573185D01*
X56832500Y-66541120D01*
X56858815Y-66573185D01*
X56955506Y-66652537D01*
X57065820Y-66711502D01*
X57185518Y-66747812D01*
X57310000Y-66760072D01*
X57499250Y-66757000D01*
X57658000Y-66598250D01*
X57658000Y-65811500D01*
X56833750Y-65811500D01*
X56832500Y-65812750D01*
X56831250Y-65811500D01*
X56007000Y-65811500D01*
X55753000Y-65811500D01*
X55053250Y-65811500D01*
X54926252Y-65684502D01*
X55085000Y-65684502D01*
X55085000Y-65557500D01*
X55753000Y-65557500D01*
X55753000Y-65537500D01*
X56007000Y-65537500D01*
X56007000Y-65557500D01*
X56831250Y-65557500D01*
X56832500Y-65556250D01*
X56833750Y-65557500D01*
X57658000Y-65557500D01*
X57658000Y-65537500D01*
X57912000Y-65537500D01*
X57912000Y-65557500D01*
X58580000Y-65557500D01*
X58580000Y-65684502D01*
X58738748Y-65684502D01*
X58611750Y-65811500D01*
X57912000Y-65811500D01*
X57912000Y-66598250D01*
X58070750Y-66757000D01*
X58260000Y-66760072D01*
X58384482Y-66747812D01*
X58504180Y-66711502D01*
X58614494Y-66652537D01*
X58711185Y-66573185D01*
X58790537Y-66476494D01*
X58793650Y-66470670D01*
X58860506Y-66525537D01*
X58970820Y-66584502D01*
X59090518Y-66620812D01*
X59215000Y-66633072D01*
X59404250Y-66630000D01*
X59563000Y-66471250D01*
X59563000Y-65684500D01*
X59817000Y-65684500D01*
X59817000Y-66471250D01*
X59975750Y-66630000D01*
X60165000Y-66633072D01*
X60289482Y-66620812D01*
X60409180Y-66584502D01*
X60519494Y-66525537D01*
X60616185Y-66446185D01*
X60695537Y-66349494D01*
X60754502Y-66239180D01*
X60790812Y-66119482D01*
X60803072Y-65995000D01*
X63656928Y-65995000D01*
X63669188Y-66119482D01*
X63705498Y-66239180D01*
X63764463Y-66349494D01*
X63843815Y-66446185D01*
X63940506Y-66525537D01*
X64050820Y-66584502D01*
X64170518Y-66620812D01*
X64295000Y-66633072D01*
X64484250Y-66630000D01*
X64643000Y-66471250D01*
X64643000Y-65684500D01*
X64897000Y-65684500D01*
X64897000Y-66471250D01*
X65055750Y-66630000D01*
X65245000Y-66633072D01*
X65369482Y-66620812D01*
X65489180Y-66584502D01*
X65599494Y-66525537D01*
X65696185Y-66446185D01*
X65722500Y-66414120D01*
X65748815Y-66446185D01*
X65845506Y-66525537D01*
X65955820Y-66584502D01*
X66075518Y-66620812D01*
X66200000Y-66633072D01*
X66389250Y-66630000D01*
X66548000Y-66471250D01*
X66548000Y-65684500D01*
X66802000Y-65684500D01*
X66802000Y-66471250D01*
X66960750Y-66630000D01*
X67150000Y-66633072D01*
X67274482Y-66620812D01*
X67394180Y-66584502D01*
X67504494Y-66525537D01*
X67601185Y-66446185D01*
X67627500Y-66414120D01*
X67653815Y-66446185D01*
X67750506Y-66525537D01*
X67860820Y-66584502D01*
X67980518Y-66620812D01*
X68105000Y-66633072D01*
X68294250Y-66630000D01*
X68453000Y-66471250D01*
X68453000Y-65684500D01*
X68707000Y-65684500D01*
X68707000Y-66471250D01*
X68865750Y-66630000D01*
X69055000Y-66633072D01*
X69179482Y-66620812D01*
X69299180Y-66584502D01*
X69409494Y-66525537D01*
X69506185Y-66446185D01*
X69532500Y-66414120D01*
X69558815Y-66446185D01*
X69655506Y-66525537D01*
X69765820Y-66584502D01*
X69885518Y-66620812D01*
X70010000Y-66633072D01*
X70199250Y-66630000D01*
X70358000Y-66471250D01*
X70358000Y-65684500D01*
X70612000Y-65684500D01*
X70612000Y-66471250D01*
X70770750Y-66630000D01*
X70960000Y-66633072D01*
X71084482Y-66620812D01*
X71204180Y-66584502D01*
X71310500Y-66527672D01*
X71416820Y-66584502D01*
X71536518Y-66620812D01*
X71661000Y-66633072D01*
X71850250Y-66630000D01*
X72009000Y-66471250D01*
X72009000Y-65684500D01*
X72263000Y-65684500D01*
X72263000Y-66471250D01*
X72421750Y-66630000D01*
X72611000Y-66633072D01*
X72735482Y-66620812D01*
X72855180Y-66584502D01*
X72965494Y-66525537D01*
X73062185Y-66446185D01*
X73141537Y-66349494D01*
X73200502Y-66239180D01*
X73215500Y-66189738D01*
X73230498Y-66239180D01*
X73289463Y-66349494D01*
X73368815Y-66446185D01*
X73465506Y-66525537D01*
X73575820Y-66584502D01*
X73695518Y-66620812D01*
X73820000Y-66633072D01*
X74009250Y-66630000D01*
X74168000Y-66471250D01*
X74168000Y-65684500D01*
X74422000Y-65684500D01*
X74422000Y-66471250D01*
X74580750Y-66630000D01*
X74770000Y-66633072D01*
X74894482Y-66620812D01*
X75014180Y-66584502D01*
X75124494Y-66525537D01*
X75221185Y-66446185D01*
X75300537Y-66349494D01*
X75359502Y-66239180D01*
X75395812Y-66119482D01*
X75408072Y-65995000D01*
X79531928Y-65995000D01*
X79544188Y-66119482D01*
X79580498Y-66239180D01*
X79639463Y-66349494D01*
X79718815Y-66446185D01*
X79815506Y-66525537D01*
X79925820Y-66584502D01*
X80045518Y-66620812D01*
X80170000Y-66633072D01*
X80359250Y-66630000D01*
X80518000Y-66471250D01*
X80518000Y-65684500D01*
X80772000Y-65684500D01*
X80772000Y-66471250D01*
X80930750Y-66630000D01*
X81120000Y-66633072D01*
X81244482Y-66620812D01*
X81364180Y-66584502D01*
X81474494Y-66525537D01*
X81571185Y-66446185D01*
X81597500Y-66414120D01*
X81623815Y-66446185D01*
X81720506Y-66525537D01*
X81830820Y-66584502D01*
X81950518Y-66620812D01*
X82075000Y-66633072D01*
X82264250Y-66630000D01*
X82423000Y-66471250D01*
X82423000Y-65684500D01*
X82677000Y-65684500D01*
X82677000Y-66471250D01*
X82835750Y-66630000D01*
X83025000Y-66633072D01*
X83149482Y-66620812D01*
X83269180Y-66584502D01*
X83379494Y-66525537D01*
X83476185Y-66446185D01*
X83555537Y-66349494D01*
X83614502Y-66239180D01*
X83650812Y-66119482D01*
X83663072Y-65995000D01*
X83976928Y-65995000D01*
X83989188Y-66119482D01*
X84025498Y-66239180D01*
X84084463Y-66349494D01*
X84163815Y-66446185D01*
X84260506Y-66525537D01*
X84370820Y-66584502D01*
X84490518Y-66620812D01*
X84615000Y-66633072D01*
X84804250Y-66630000D01*
X84963000Y-66471250D01*
X84963000Y-65684500D01*
X85217000Y-65684500D01*
X85217000Y-66471250D01*
X85375750Y-66630000D01*
X85565000Y-66633072D01*
X85689482Y-66620812D01*
X85809180Y-66584502D01*
X85919494Y-66525537D01*
X86016185Y-66446185D01*
X86095537Y-66349494D01*
X86154502Y-66239180D01*
X86190812Y-66119482D01*
X86203072Y-65995000D01*
X86200000Y-65843250D01*
X86041250Y-65684500D01*
X85217000Y-65684500D01*
X84963000Y-65684500D01*
X84138750Y-65684500D01*
X83980000Y-65843250D01*
X83976928Y-65995000D01*
X83663072Y-65995000D01*
X83660000Y-65843250D01*
X83501250Y-65684500D01*
X82677000Y-65684500D01*
X82423000Y-65684500D01*
X81598750Y-65684500D01*
X81597500Y-65685750D01*
X81596250Y-65684500D01*
X80772000Y-65684500D01*
X80518000Y-65684500D01*
X79693750Y-65684500D01*
X79535000Y-65843250D01*
X79531928Y-65995000D01*
X75408072Y-65995000D01*
X75405000Y-65843250D01*
X75246250Y-65684500D01*
X74422000Y-65684500D01*
X74168000Y-65684500D01*
X73343750Y-65684500D01*
X73215500Y-65812750D01*
X73087250Y-65684500D01*
X72263000Y-65684500D01*
X72009000Y-65684500D01*
X70612000Y-65684500D01*
X70358000Y-65684500D01*
X69533750Y-65684500D01*
X69532500Y-65685750D01*
X69531250Y-65684500D01*
X68707000Y-65684500D01*
X68453000Y-65684500D01*
X67628750Y-65684500D01*
X67627500Y-65685750D01*
X67626250Y-65684500D01*
X66802000Y-65684500D01*
X66548000Y-65684500D01*
X65723750Y-65684500D01*
X65722500Y-65685750D01*
X65721250Y-65684500D01*
X64897000Y-65684500D01*
X64643000Y-65684500D01*
X63818750Y-65684500D01*
X63660000Y-65843250D01*
X63656928Y-65995000D01*
X60803072Y-65995000D01*
X60800000Y-65843250D01*
X60641250Y-65684500D01*
X59817000Y-65684500D01*
X59563000Y-65684500D01*
X59543000Y-65684500D01*
X59543000Y-65430500D01*
X59563000Y-65430500D01*
X59563000Y-65410500D01*
X59817000Y-65410500D01*
X59817000Y-65430500D01*
X60641250Y-65430500D01*
X60800000Y-65271750D01*
X60803072Y-65120000D01*
X60790812Y-64995518D01*
X60754502Y-64875820D01*
X60695537Y-64765506D01*
X60640900Y-64698930D01*
X60658671Y-64677275D01*
X60737850Y-64529142D01*
X60786608Y-64368408D01*
X60803072Y-64201250D01*
X60803072Y-63763750D01*
X60786608Y-63596592D01*
X60737850Y-63435858D01*
X60658671Y-63287725D01*
X60552115Y-63157885D01*
X60450000Y-63074082D01*
X60450000Y-62655918D01*
X60552115Y-62572115D01*
X60658671Y-62442275D01*
X60737850Y-62294142D01*
X60786608Y-62133408D01*
X60803072Y-61966250D01*
X60803072Y-61528750D01*
X60786608Y-61361592D01*
X60737850Y-61200858D01*
X60658671Y-61052725D01*
X60582574Y-60960000D01*
X60658671Y-60867275D01*
X60737850Y-60719142D01*
X60786608Y-60558408D01*
X60803072Y-60391250D01*
X60803072Y-59953750D01*
X60786608Y-59786592D01*
X60737850Y-59625858D01*
X60658671Y-59477725D01*
X60552115Y-59347885D01*
X60450000Y-59264082D01*
X60450000Y-59217301D01*
X61122302Y-58545000D01*
X63742320Y-58545000D01*
X63779642Y-58548676D01*
X63816964Y-58545000D01*
X63816975Y-58545000D01*
X63928628Y-58534003D01*
X64010000Y-58509319D01*
X64010000Y-59416582D01*
X63907885Y-59500385D01*
X63801329Y-59630225D01*
X63722150Y-59778358D01*
X63673392Y-59939092D01*
X63656928Y-60106250D01*
X63656928Y-60543750D01*
X63673392Y-60710908D01*
X63722150Y-60871642D01*
X63801329Y-61019775D01*
X63877426Y-61112500D01*
X63801329Y-61205225D01*
X63722150Y-61353358D01*
X63673392Y-61514092D01*
X63656928Y-61681250D01*
X63656928Y-62118750D01*
X63673392Y-62285908D01*
X63722150Y-62446642D01*
X63801329Y-62594775D01*
X63907885Y-62724615D01*
X64010001Y-62808418D01*
X64010000Y-63074082D01*
X63907885Y-63157885D01*
X63801329Y-63287725D01*
X63722150Y-63435858D01*
X63673392Y-63596592D01*
X63656928Y-63763750D01*
X63656928Y-64201250D01*
X63673392Y-64368408D01*
X63722150Y-64529142D01*
X63801329Y-64677275D01*
X63819100Y-64698930D01*
X63764463Y-64765506D01*
X63705498Y-64875820D01*
X63669188Y-64995518D01*
X63656928Y-65120000D01*
X63660000Y-65271750D01*
X63818750Y-65430500D01*
X64643000Y-65430500D01*
X64643000Y-65410500D01*
X64897000Y-65410500D01*
X64897000Y-65430500D01*
X65721250Y-65430500D01*
X65722500Y-65429250D01*
X65723750Y-65430500D01*
X66548000Y-65430500D01*
X66548000Y-65410500D01*
X66802000Y-65410500D01*
X66802000Y-65430500D01*
X67626250Y-65430500D01*
X67627500Y-65429250D01*
X67628750Y-65430500D01*
X68453000Y-65430500D01*
X68453000Y-65410500D01*
X68707000Y-65410500D01*
X68707000Y-65430500D01*
X69531250Y-65430500D01*
X69532500Y-65429250D01*
X69533750Y-65430500D01*
X70358000Y-65430500D01*
X70358000Y-65410500D01*
X70612000Y-65410500D01*
X70612000Y-65430500D01*
X72009000Y-65430500D01*
X72009000Y-65410500D01*
X72263000Y-65410500D01*
X72263000Y-65430500D01*
X73087250Y-65430500D01*
X73215500Y-65302250D01*
X73343750Y-65430500D01*
X74168000Y-65430500D01*
X74168000Y-65410500D01*
X74422000Y-65410500D01*
X74422000Y-65430500D01*
X75246250Y-65430500D01*
X75405000Y-65271750D01*
X75408072Y-65120000D01*
X75395812Y-64995518D01*
X75359502Y-64875820D01*
X75300537Y-64765506D01*
X75245900Y-64698930D01*
X75263671Y-64677275D01*
X75342850Y-64529142D01*
X75391608Y-64368408D01*
X75408072Y-64201250D01*
X75408072Y-63763750D01*
X75391608Y-63596592D01*
X75342850Y-63435858D01*
X75263671Y-63287725D01*
X75157115Y-63157885D01*
X75055000Y-63074082D01*
X75055000Y-62655918D01*
X75157115Y-62572115D01*
X75263671Y-62442275D01*
X75342850Y-62294142D01*
X75391608Y-62133408D01*
X75408072Y-61966250D01*
X75408072Y-61528750D01*
X75391608Y-61361592D01*
X75342850Y-61200858D01*
X75263671Y-61052725D01*
X75187574Y-60960000D01*
X75263671Y-60867275D01*
X75342850Y-60719142D01*
X75391608Y-60558408D01*
X75408072Y-60391250D01*
X75408072Y-60134229D01*
X77817292Y-57725010D01*
X79330488Y-57725010D01*
X79367810Y-57728686D01*
X79405132Y-57725010D01*
X79405143Y-57725010D01*
X79516796Y-57714013D01*
X79660057Y-57670556D01*
X79792086Y-57599984D01*
X79907811Y-57505011D01*
X79931614Y-57476008D01*
X80731907Y-56675715D01*
X82283373Y-56675715D01*
X82320695Y-56679391D01*
X82358017Y-56675715D01*
X82358028Y-56675715D01*
X82392920Y-56672278D01*
X80134003Y-58931196D01*
X80104999Y-58954999D01*
X80064512Y-59004333D01*
X80010026Y-59070724D01*
X79956670Y-59170546D01*
X79939454Y-59202754D01*
X79930661Y-59231742D01*
X79912725Y-59241329D01*
X79782885Y-59347885D01*
X79676329Y-59477725D01*
X79597150Y-59625858D01*
X79548392Y-59786592D01*
X79531928Y-59953750D01*
X79531928Y-60391250D01*
X79548392Y-60558408D01*
X79597150Y-60719142D01*
X79676329Y-60867275D01*
X79752426Y-60960000D01*
X79676329Y-61052725D01*
X79597150Y-61200858D01*
X79548392Y-61361592D01*
X79531928Y-61528750D01*
X79531928Y-61966250D01*
X79548392Y-62133408D01*
X79597150Y-62294142D01*
X79676329Y-62442275D01*
X79782885Y-62572115D01*
X79885000Y-62655918D01*
X79885001Y-63074082D01*
X79782885Y-63157885D01*
X79676329Y-63287725D01*
X79597150Y-63435858D01*
X79548392Y-63596592D01*
X79531928Y-63763750D01*
X79531928Y-64201250D01*
X79548392Y-64368408D01*
X79597150Y-64529142D01*
X79676329Y-64677275D01*
X79694100Y-64698930D01*
X79639463Y-64765506D01*
X79580498Y-64875820D01*
X79544188Y-64995518D01*
X79531928Y-65120000D01*
X79535000Y-65271750D01*
X79693750Y-65430500D01*
X80518000Y-65430500D01*
X80518000Y-65410500D01*
X80772000Y-65410500D01*
X80772000Y-65430500D01*
X81596250Y-65430500D01*
X81597500Y-65429250D01*
X81598750Y-65430500D01*
X82423000Y-65430500D01*
X82423000Y-65410500D01*
X82677000Y-65410500D01*
X82677000Y-65430500D01*
X83501250Y-65430500D01*
X83660000Y-65271750D01*
X83663072Y-65120000D01*
X83650812Y-64995518D01*
X83614502Y-64875820D01*
X83555537Y-64765506D01*
X83500900Y-64698930D01*
X83518671Y-64677275D01*
X83597850Y-64529142D01*
X83646608Y-64368408D01*
X83663072Y-64201250D01*
X83663072Y-63763750D01*
X83646608Y-63596592D01*
X83597850Y-63435858D01*
X83518671Y-63287725D01*
X83412115Y-63157885D01*
X83310000Y-63074082D01*
X83310000Y-62655918D01*
X83412115Y-62572115D01*
X83518671Y-62442275D01*
X83597850Y-62294142D01*
X83646608Y-62133408D01*
X83663072Y-61966250D01*
X83663072Y-61528750D01*
X83646608Y-61361592D01*
X83597850Y-61200858D01*
X83518671Y-61052725D01*
X83442574Y-60960000D01*
X83518671Y-60867275D01*
X83597850Y-60719142D01*
X83646608Y-60558408D01*
X83663072Y-60391250D01*
X83663072Y-60134229D01*
X83991500Y-59805801D01*
X83976928Y-59953750D01*
X83976928Y-60391250D01*
X83993392Y-60558408D01*
X84042150Y-60719142D01*
X84121329Y-60867275D01*
X84197426Y-60960000D01*
X84121329Y-61052725D01*
X84042150Y-61200858D01*
X83993392Y-61361592D01*
X83976928Y-61528750D01*
X83976928Y-61966250D01*
X83993392Y-62133408D01*
X84042150Y-62294142D01*
X84121329Y-62442275D01*
X84227885Y-62572115D01*
X84330001Y-62655918D01*
X84330000Y-63074082D01*
X84227885Y-63157885D01*
X84121329Y-63287725D01*
X84042150Y-63435858D01*
X83993392Y-63596592D01*
X83976928Y-63763750D01*
X83976928Y-64201250D01*
X83993392Y-64368408D01*
X84042150Y-64529142D01*
X84121329Y-64677275D01*
X84139100Y-64698930D01*
X84084463Y-64765506D01*
X84025498Y-64875820D01*
X83989188Y-64995518D01*
X83976928Y-65120000D01*
X83980000Y-65271750D01*
X84138750Y-65430500D01*
X84963000Y-65430500D01*
X84963000Y-65410500D01*
X85217000Y-65410500D01*
X85217000Y-65430500D01*
X86041250Y-65430500D01*
X86200000Y-65271750D01*
X86203072Y-65120000D01*
X86190812Y-64995518D01*
X86154502Y-64875820D01*
X86095537Y-64765506D01*
X86040900Y-64698930D01*
X86058671Y-64677275D01*
X86137850Y-64529142D01*
X86186608Y-64368408D01*
X86203072Y-64201250D01*
X86203072Y-63763750D01*
X86186608Y-63596592D01*
X86137850Y-63435858D01*
X86058671Y-63287725D01*
X85952115Y-63157885D01*
X85850000Y-63074082D01*
X85850000Y-62655918D01*
X85952115Y-62572115D01*
X86058671Y-62442275D01*
X86137850Y-62294142D01*
X86186608Y-62133408D01*
X86203072Y-61966250D01*
X86203072Y-61528750D01*
X86186608Y-61361592D01*
X86137850Y-61200858D01*
X86058671Y-61052725D01*
X85982574Y-60960000D01*
X86058671Y-60867275D01*
X86137850Y-60719142D01*
X86186608Y-60558408D01*
X86203072Y-60391250D01*
X86203072Y-60134229D01*
X86531500Y-59805801D01*
X86516928Y-59953750D01*
X86516928Y-60391250D01*
X86533392Y-60558408D01*
X86582150Y-60719142D01*
X86661329Y-60867275D01*
X86737426Y-60960000D01*
X86661329Y-61052725D01*
X86582150Y-61200858D01*
X86533392Y-61361592D01*
X86516928Y-61528750D01*
X86516928Y-61966250D01*
X86533392Y-62133408D01*
X86582150Y-62294142D01*
X86661329Y-62442275D01*
X86767885Y-62572115D01*
X86870001Y-62655918D01*
X86870000Y-63074082D01*
X86767885Y-63157885D01*
X86661329Y-63287725D01*
X86582150Y-63435858D01*
X86533392Y-63596592D01*
X86516928Y-63763750D01*
X86516928Y-64201250D01*
X86533392Y-64368408D01*
X86582150Y-64529142D01*
X86661329Y-64677275D01*
X86679100Y-64698930D01*
X86624463Y-64765506D01*
X86565498Y-64875820D01*
X86529188Y-64995518D01*
X86516928Y-65120000D01*
X86520000Y-65271750D01*
X86678750Y-65430500D01*
X87503000Y-65430500D01*
X87503000Y-65410500D01*
X87757000Y-65410500D01*
X87757000Y-65430500D01*
X88581250Y-65430500D01*
X88740000Y-65271750D01*
X88743072Y-65120000D01*
X88730812Y-64995518D01*
X88694502Y-64875820D01*
X88635537Y-64765506D01*
X88580900Y-64698930D01*
X88598671Y-64677275D01*
X88677850Y-64529142D01*
X88726608Y-64368408D01*
X88743072Y-64201250D01*
X88743072Y-63763750D01*
X88726608Y-63596592D01*
X88677850Y-63435858D01*
X88598671Y-63287725D01*
X88492115Y-63157885D01*
X88390000Y-63074082D01*
X88390000Y-62655918D01*
X88492115Y-62572115D01*
X88598671Y-62442275D01*
X88677850Y-62294142D01*
X88726608Y-62133408D01*
X88743072Y-61966250D01*
X88743072Y-61528750D01*
X88726608Y-61361592D01*
X88677850Y-61200858D01*
X88598671Y-61052725D01*
X88522574Y-60960000D01*
X88598671Y-60867275D01*
X88677850Y-60719142D01*
X88726608Y-60558408D01*
X88743072Y-60391250D01*
X88743072Y-60134229D01*
X89071500Y-59805801D01*
X89056928Y-59953750D01*
X89056928Y-60391250D01*
X89073392Y-60558408D01*
X89122150Y-60719142D01*
X89201329Y-60867275D01*
X89277426Y-60960000D01*
X89201329Y-61052725D01*
X89122150Y-61200858D01*
X89073392Y-61361592D01*
X89056928Y-61528750D01*
X89056928Y-61966250D01*
X89073392Y-62133408D01*
X89122150Y-62294142D01*
X89201329Y-62442275D01*
X89307885Y-62572115D01*
X89410001Y-62655918D01*
X89410000Y-63074082D01*
X89307885Y-63157885D01*
X89201329Y-63287725D01*
X89122150Y-63435858D01*
X89073392Y-63596592D01*
X89056928Y-63763750D01*
X89056928Y-64201250D01*
X89073392Y-64368408D01*
X89122150Y-64529142D01*
X89201329Y-64677275D01*
X89219100Y-64698930D01*
X89164463Y-64765506D01*
X89105498Y-64875820D01*
X89069188Y-64995518D01*
X89056928Y-65120000D01*
X89060000Y-65271750D01*
X89218750Y-65430500D01*
X90043000Y-65430500D01*
X90043000Y-65410500D01*
X90297000Y-65410500D01*
X90297000Y-65430500D01*
X91121250Y-65430500D01*
X91280000Y-65271750D01*
X91283072Y-65120000D01*
X91270812Y-64995518D01*
X91234502Y-64875820D01*
X91175537Y-64765506D01*
X91120900Y-64698930D01*
X91138671Y-64677275D01*
X91217850Y-64529142D01*
X91266608Y-64368408D01*
X91283072Y-64201250D01*
X91283072Y-63763750D01*
X91266608Y-63596592D01*
X91217850Y-63435858D01*
X91138671Y-63287725D01*
X91032115Y-63157885D01*
X90930000Y-63074082D01*
X90930000Y-62655918D01*
X91032115Y-62572115D01*
X91138671Y-62442275D01*
X91217850Y-62294142D01*
X91266608Y-62133408D01*
X91283072Y-61966250D01*
X91283072Y-61528750D01*
X91266608Y-61361592D01*
X91217850Y-61200858D01*
X91138671Y-61052725D01*
X91062574Y-60960000D01*
X91138671Y-60867275D01*
X91217850Y-60719142D01*
X91266608Y-60558408D01*
X91283072Y-60391250D01*
X91283072Y-60134229D01*
X91611500Y-59805801D01*
X91596928Y-59953750D01*
X91596928Y-60391250D01*
X91613392Y-60558408D01*
X91662150Y-60719142D01*
X91741329Y-60867275D01*
X91817426Y-60960000D01*
X91741329Y-61052725D01*
X91662150Y-61200858D01*
X91613392Y-61361592D01*
X91596928Y-61528750D01*
X91596928Y-61966250D01*
X91613392Y-62133408D01*
X91662150Y-62294142D01*
X91741329Y-62442275D01*
X91847885Y-62572115D01*
X91950001Y-62655918D01*
X91950000Y-63074082D01*
X91847885Y-63157885D01*
X91741329Y-63287725D01*
X91662150Y-63435858D01*
X91613392Y-63596592D01*
X91596928Y-63763750D01*
X91596928Y-64201250D01*
X91613392Y-64368408D01*
X91662150Y-64529142D01*
X91741329Y-64677275D01*
X91759100Y-64698930D01*
X91704463Y-64765506D01*
X91645498Y-64875820D01*
X91609188Y-64995518D01*
X91596928Y-65120000D01*
X91600000Y-65271750D01*
X91758750Y-65430500D01*
X92583000Y-65430500D01*
X92583000Y-65410500D01*
X92837000Y-65410500D01*
X92837000Y-65430500D01*
X93661250Y-65430500D01*
X93820000Y-65271750D01*
X93823072Y-65120000D01*
X93810812Y-64995518D01*
X93774502Y-64875820D01*
X93715537Y-64765506D01*
X93660900Y-64698930D01*
X93678671Y-64677275D01*
X93757850Y-64529142D01*
X93806608Y-64368408D01*
X93823072Y-64201250D01*
X93823072Y-63763750D01*
X93806608Y-63596592D01*
X93757850Y-63435858D01*
X93678671Y-63287725D01*
X93572115Y-63157885D01*
X93470000Y-63074082D01*
X93470000Y-62655918D01*
X93572115Y-62572115D01*
X93678671Y-62442275D01*
X93757850Y-62294142D01*
X93806608Y-62133408D01*
X93823072Y-61966250D01*
X93823072Y-61528750D01*
X93806608Y-61361592D01*
X93757850Y-61200858D01*
X93678671Y-61052725D01*
X93602574Y-60960000D01*
X93678671Y-60867275D01*
X93757850Y-60719142D01*
X93806608Y-60558408D01*
X93823072Y-60391250D01*
X93823072Y-60134229D01*
X94471003Y-59486299D01*
X94500001Y-59462501D01*
X94526332Y-59430417D01*
X94594974Y-59346777D01*
X94665546Y-59214747D01*
X94668810Y-59203986D01*
X94709003Y-59071486D01*
X94720000Y-58959833D01*
X94720000Y-58959823D01*
X94723676Y-58922500D01*
X94720000Y-58885177D01*
X94720000Y-55078178D01*
X94906632Y-54953475D01*
X95113475Y-54746632D01*
X95230000Y-54572240D01*
X95346525Y-54746632D01*
G36*
X89007000Y-53673000D02*
G01*
X89027000Y-53673000D01*
X89027000Y-53927000D01*
X89007000Y-53927000D01*
X89007000Y-55120155D01*
X89046629Y-55141069D01*
X85090771Y-59096928D01*
X84833750Y-59096928D01*
X84685801Y-59111500D01*
X88026004Y-55771298D01*
X88055002Y-55747500D01*
X88149975Y-55631775D01*
X88220547Y-55499746D01*
X88264004Y-55356485D01*
X88275001Y-55244832D01*
X88275001Y-55244824D01*
X88278677Y-55207499D01*
X88275001Y-55170174D01*
X88275001Y-55148765D01*
X88375901Y-55196825D01*
X88523110Y-55241476D01*
X88753000Y-55120155D01*
X88753000Y-53927000D01*
X88733000Y-53927000D01*
X88733000Y-53673000D01*
X88753000Y-53673000D01*
X88753000Y-53653000D01*
X89007000Y-53653000D01*
X89007000Y-53673000D01*
G37*
X89007000Y-53673000D02*
X89027000Y-53673000D01*
X89027000Y-53927000D01*
X89007000Y-53927000D01*
X89007000Y-55120155D01*
X89046629Y-55141069D01*
X85090771Y-59096928D01*
X84833750Y-59096928D01*
X84685801Y-59111500D01*
X88026004Y-55771298D01*
X88055002Y-55747500D01*
X88149975Y-55631775D01*
X88220547Y-55499746D01*
X88264004Y-55356485D01*
X88275001Y-55244832D01*
X88275001Y-55244824D01*
X88278677Y-55207499D01*
X88275001Y-55170174D01*
X88275001Y-55148765D01*
X88375901Y-55196825D01*
X88523110Y-55241476D01*
X88753000Y-55120155D01*
X88753000Y-53927000D01*
X88733000Y-53927000D01*
X88733000Y-53673000D01*
X88753000Y-53673000D01*
X88753000Y-53653000D01*
X89007000Y-53653000D01*
X89007000Y-53673000D01*
G36*
X68687000Y-53673000D02*
G01*
X68707000Y-53673000D01*
X68707000Y-53927000D01*
X68687000Y-53927000D01*
X68687000Y-53947000D01*
X68433000Y-53947000D01*
X68433000Y-53927000D01*
X68413000Y-53927000D01*
X68413000Y-53673000D01*
X68433000Y-53673000D01*
X68433000Y-53653000D01*
X68687000Y-53653000D01*
X68687000Y-53673000D01*
G37*
X68687000Y-53673000D02*
X68707000Y-53673000D01*
X68707000Y-53927000D01*
X68687000Y-53927000D01*
X68687000Y-53947000D01*
X68433000Y-53947000D01*
X68433000Y-53927000D01*
X68413000Y-53927000D01*
X68413000Y-53673000D01*
X68433000Y-53673000D01*
X68433000Y-53653000D01*
X68687000Y-53653000D01*
X68687000Y-53673000D01*
M02*
