G04 #@! TF.GenerationSoftware,KiCad,Pcbnew,5.1.6-c6e7f7d~87~ubuntu18.04.1*
G04 #@! TF.CreationDate,2020-07-17T19:47:34-05:00*
G04 #@! TF.ProjectId,relojBin,72656c6f-6a42-4696-9e2e-6b696361645f,1.0.8*
G04 #@! TF.SameCoordinates,Original*
G04 #@! TF.FileFunction,Profile,NP*
%FSLAX46Y46*%
G04 Gerber Fmt 4.6, Leading zero omitted, Abs format (unit mm)*
G04 Created by KiCad (PCBNEW 5.1.6-c6e7f7d~87~ubuntu18.04.1) date 2020-07-17 19:47:34*
%MOMM*%
%LPD*%
G01*
G04 APERTURE LIST*
G04 #@! TA.AperFunction,Profile*
%ADD10C,0.050000*%
G04 #@! TD*
G04 #@! TA.AperFunction,Profile*
%ADD11C,0.010000*%
G04 #@! TD*
%ADD12C,0.015000*%
G04 APERTURE END LIST*
D10*
X112870328Y-75500000D02*
G75*
G03*
X112870328Y-75500000I-1370328J0D01*
G01*
X112870328Y-52500000D02*
G75*
G03*
X112870328Y-52500000I-1370328J0D01*
G01*
X54870328Y-75500000D02*
G75*
G03*
X54870328Y-75500000I-1370328J0D01*
G01*
X54870328Y-52500000D02*
G75*
G03*
X54870328Y-52500000I-1370328J0D01*
G01*
X112000000Y-49000000D02*
G75*
G02*
X115000000Y-52000000I0J-3000000D01*
G01*
X115000000Y-76000000D02*
G75*
G02*
X112000000Y-79000000I-3000000J0D01*
G01*
X53000000Y-79000000D02*
G75*
G02*
X50000000Y-76000000I0J3000000D01*
G01*
X50000000Y-52000000D02*
G75*
G02*
X53000000Y-49000000I3000000J0D01*
G01*
X50000000Y-76000000D02*
X50000000Y-52000000D01*
X112000000Y-79000000D02*
X53000000Y-79000000D01*
X115000000Y-52000000D02*
X115000000Y-76000000D01*
X53000000Y-49000000D02*
X112000000Y-49000000D01*
D11*
X105890000Y-73659999D02*
G75*
G02*
X106690000Y-74050000I300050J-400026D01*
G01*
X102390000Y-73659999D02*
G75*
G03*
X101590000Y-74050000I-300050J-400026D01*
G01*
X101590000Y-75310000D02*
X106690000Y-75310000D01*
X106690000Y-75310000D02*
X106690000Y-74050000D01*
X105890000Y-73660000D02*
X102390000Y-73660000D01*
X101590000Y-74050000D02*
X101590000Y-75310000D01*
X89045000Y-73574999D02*
G75*
G02*
X89845000Y-73965000I300050J-400026D01*
G01*
X85545000Y-73574999D02*
G75*
G03*
X84745000Y-73965000I-300050J-400026D01*
G01*
X84745000Y-75225000D02*
X89845000Y-75225000D01*
X89845000Y-75225000D02*
X89845000Y-73965000D01*
X89045000Y-73575000D02*
X85545000Y-73575000D01*
X84745000Y-73965000D02*
X84745000Y-75225000D01*
X97000000Y-73659999D02*
G75*
G02*
X97800000Y-74050000I300050J-400026D01*
G01*
X93500000Y-73659999D02*
G75*
G03*
X92700000Y-74050000I-300050J-400026D01*
G01*
X92700000Y-75310000D02*
X97800000Y-75310000D01*
X97800000Y-75310000D02*
X97800000Y-74050000D01*
X97000000Y-73660000D02*
X93500000Y-73660000D01*
X92700000Y-74050000D02*
X92700000Y-75310000D01*
X80490000Y-73659999D02*
G75*
G02*
X81290000Y-74050000I300050J-400026D01*
G01*
X76990000Y-73659999D02*
G75*
G03*
X76190000Y-74050000I-300050J-400026D01*
G01*
X76190000Y-75310000D02*
X81290000Y-75310000D01*
X81290000Y-75310000D02*
X81290000Y-74050000D01*
X80490000Y-73660000D02*
X76990000Y-73660000D01*
X76190000Y-74050000D02*
X76190000Y-75310000D01*
D12*
X101052380Y-74637142D02*
X101098095Y-74652380D01*
X101113333Y-74667619D01*
X101128571Y-74698095D01*
X101128571Y-74743809D01*
X101113333Y-74774285D01*
X101098095Y-74789523D01*
X101067619Y-74804761D01*
X100945714Y-74804761D01*
X100945714Y-74484761D01*
X101052380Y-74484761D01*
X101082857Y-74500000D01*
X101098095Y-74515238D01*
X101113333Y-74545714D01*
X101113333Y-74576190D01*
X101098095Y-74606666D01*
X101082857Y-74621904D01*
X101052380Y-74637142D01*
X100945714Y-74637142D01*
X101311428Y-74804761D02*
X101280952Y-74789523D01*
X101265714Y-74774285D01*
X101250476Y-74743809D01*
X101250476Y-74652380D01*
X101265714Y-74621904D01*
X101280952Y-74606666D01*
X101311428Y-74591428D01*
X101357142Y-74591428D01*
X101387619Y-74606666D01*
X101402857Y-74621904D01*
X101418095Y-74652380D01*
X101418095Y-74743809D01*
X101402857Y-74774285D01*
X101387619Y-74789523D01*
X101357142Y-74804761D01*
X101311428Y-74804761D01*
X101692380Y-74804761D02*
X101692380Y-74637142D01*
X101677142Y-74606666D01*
X101646666Y-74591428D01*
X101585714Y-74591428D01*
X101555238Y-74606666D01*
X101692380Y-74789523D02*
X101661904Y-74804761D01*
X101585714Y-74804761D01*
X101555238Y-74789523D01*
X101540000Y-74759047D01*
X101540000Y-74728571D01*
X101555238Y-74698095D01*
X101585714Y-74682857D01*
X101661904Y-74682857D01*
X101692380Y-74667619D01*
X101844761Y-74804761D02*
X101844761Y-74591428D01*
X101844761Y-74652380D02*
X101860000Y-74621904D01*
X101875238Y-74606666D01*
X101905714Y-74591428D01*
X101936190Y-74591428D01*
X102180000Y-74804761D02*
X102180000Y-74484761D01*
X102180000Y-74789523D02*
X102149523Y-74804761D01*
X102088571Y-74804761D01*
X102058095Y-74789523D01*
X102042857Y-74774285D01*
X102027619Y-74743809D01*
X102027619Y-74652380D01*
X102042857Y-74621904D01*
X102058095Y-74606666D01*
X102088571Y-74591428D01*
X102149523Y-74591428D01*
X102180000Y-74606666D01*
X102256190Y-74410100D02*
X102576190Y-74410100D01*
X102515238Y-74774285D02*
X102500000Y-74789523D01*
X102454285Y-74804761D01*
X102423809Y-74804761D01*
X102378095Y-74789523D01*
X102347619Y-74759047D01*
X102332380Y-74728571D01*
X102317142Y-74667619D01*
X102317142Y-74621904D01*
X102332380Y-74560952D01*
X102347619Y-74530476D01*
X102378095Y-74500000D01*
X102423809Y-74484761D01*
X102454285Y-74484761D01*
X102500000Y-74500000D01*
X102515238Y-74515238D01*
X102576190Y-74410100D02*
X102865714Y-74410100D01*
X102789523Y-74591428D02*
X102789523Y-74804761D01*
X102652380Y-74591428D02*
X102652380Y-74759047D01*
X102667619Y-74789523D01*
X102698095Y-74804761D01*
X102743809Y-74804761D01*
X102774285Y-74789523D01*
X102789523Y-74774285D01*
X102865714Y-74410100D02*
X103048571Y-74410100D01*
X102896190Y-74591428D02*
X103018095Y-74591428D01*
X102941904Y-74484761D02*
X102941904Y-74759047D01*
X102957142Y-74789523D01*
X102987619Y-74804761D01*
X103018095Y-74804761D01*
X103048571Y-74410100D02*
X103338095Y-74410100D01*
X103170476Y-74804761D02*
X103140000Y-74789523D01*
X103124761Y-74774285D01*
X103109523Y-74743809D01*
X103109523Y-74652380D01*
X103124761Y-74621904D01*
X103140000Y-74606666D01*
X103170476Y-74591428D01*
X103216190Y-74591428D01*
X103246666Y-74606666D01*
X103261904Y-74621904D01*
X103277142Y-74652380D01*
X103277142Y-74743809D01*
X103261904Y-74774285D01*
X103246666Y-74789523D01*
X103216190Y-74804761D01*
X103170476Y-74804761D01*
X103338095Y-74410100D02*
X103627619Y-74410100D01*
X103551428Y-74591428D02*
X103551428Y-74804761D01*
X103414285Y-74591428D02*
X103414285Y-74759047D01*
X103429523Y-74789523D01*
X103460000Y-74804761D01*
X103505714Y-74804761D01*
X103536190Y-74789523D01*
X103551428Y-74774285D01*
X103627619Y-74410100D02*
X103810476Y-74410100D01*
X103658095Y-74591428D02*
X103780000Y-74591428D01*
X103703809Y-74484761D02*
X103703809Y-74759047D01*
X103719047Y-74789523D01*
X103749523Y-74804761D01*
X103780000Y-74804761D01*
X84207380Y-74552142D02*
X84253095Y-74567380D01*
X84268333Y-74582619D01*
X84283571Y-74613095D01*
X84283571Y-74658809D01*
X84268333Y-74689285D01*
X84253095Y-74704523D01*
X84222619Y-74719761D01*
X84100714Y-74719761D01*
X84100714Y-74399761D01*
X84207380Y-74399761D01*
X84237857Y-74415000D01*
X84253095Y-74430238D01*
X84268333Y-74460714D01*
X84268333Y-74491190D01*
X84253095Y-74521666D01*
X84237857Y-74536904D01*
X84207380Y-74552142D01*
X84100714Y-74552142D01*
X84466428Y-74719761D02*
X84435952Y-74704523D01*
X84420714Y-74689285D01*
X84405476Y-74658809D01*
X84405476Y-74567380D01*
X84420714Y-74536904D01*
X84435952Y-74521666D01*
X84466428Y-74506428D01*
X84512142Y-74506428D01*
X84542619Y-74521666D01*
X84557857Y-74536904D01*
X84573095Y-74567380D01*
X84573095Y-74658809D01*
X84557857Y-74689285D01*
X84542619Y-74704523D01*
X84512142Y-74719761D01*
X84466428Y-74719761D01*
X84847380Y-74719761D02*
X84847380Y-74552142D01*
X84832142Y-74521666D01*
X84801666Y-74506428D01*
X84740714Y-74506428D01*
X84710238Y-74521666D01*
X84847380Y-74704523D02*
X84816904Y-74719761D01*
X84740714Y-74719761D01*
X84710238Y-74704523D01*
X84695000Y-74674047D01*
X84695000Y-74643571D01*
X84710238Y-74613095D01*
X84740714Y-74597857D01*
X84816904Y-74597857D01*
X84847380Y-74582619D01*
X84999761Y-74719761D02*
X84999761Y-74506428D01*
X84999761Y-74567380D02*
X85015000Y-74536904D01*
X85030238Y-74521666D01*
X85060714Y-74506428D01*
X85091190Y-74506428D01*
X85335000Y-74719761D02*
X85335000Y-74399761D01*
X85335000Y-74704523D02*
X85304523Y-74719761D01*
X85243571Y-74719761D01*
X85213095Y-74704523D01*
X85197857Y-74689285D01*
X85182619Y-74658809D01*
X85182619Y-74567380D01*
X85197857Y-74536904D01*
X85213095Y-74521666D01*
X85243571Y-74506428D01*
X85304523Y-74506428D01*
X85335000Y-74521666D01*
X85411190Y-74325100D02*
X85731190Y-74325100D01*
X85670238Y-74689285D02*
X85655000Y-74704523D01*
X85609285Y-74719761D01*
X85578809Y-74719761D01*
X85533095Y-74704523D01*
X85502619Y-74674047D01*
X85487380Y-74643571D01*
X85472142Y-74582619D01*
X85472142Y-74536904D01*
X85487380Y-74475952D01*
X85502619Y-74445476D01*
X85533095Y-74415000D01*
X85578809Y-74399761D01*
X85609285Y-74399761D01*
X85655000Y-74415000D01*
X85670238Y-74430238D01*
X85731190Y-74325100D02*
X86020714Y-74325100D01*
X85944523Y-74506428D02*
X85944523Y-74719761D01*
X85807380Y-74506428D02*
X85807380Y-74674047D01*
X85822619Y-74704523D01*
X85853095Y-74719761D01*
X85898809Y-74719761D01*
X85929285Y-74704523D01*
X85944523Y-74689285D01*
X86020714Y-74325100D02*
X86203571Y-74325100D01*
X86051190Y-74506428D02*
X86173095Y-74506428D01*
X86096904Y-74399761D02*
X86096904Y-74674047D01*
X86112142Y-74704523D01*
X86142619Y-74719761D01*
X86173095Y-74719761D01*
X86203571Y-74325100D02*
X86493095Y-74325100D01*
X86325476Y-74719761D02*
X86295000Y-74704523D01*
X86279761Y-74689285D01*
X86264523Y-74658809D01*
X86264523Y-74567380D01*
X86279761Y-74536904D01*
X86295000Y-74521666D01*
X86325476Y-74506428D01*
X86371190Y-74506428D01*
X86401666Y-74521666D01*
X86416904Y-74536904D01*
X86432142Y-74567380D01*
X86432142Y-74658809D01*
X86416904Y-74689285D01*
X86401666Y-74704523D01*
X86371190Y-74719761D01*
X86325476Y-74719761D01*
X86493095Y-74325100D02*
X86782619Y-74325100D01*
X86706428Y-74506428D02*
X86706428Y-74719761D01*
X86569285Y-74506428D02*
X86569285Y-74674047D01*
X86584523Y-74704523D01*
X86615000Y-74719761D01*
X86660714Y-74719761D01*
X86691190Y-74704523D01*
X86706428Y-74689285D01*
X86782619Y-74325100D02*
X86965476Y-74325100D01*
X86813095Y-74506428D02*
X86935000Y-74506428D01*
X86858809Y-74399761D02*
X86858809Y-74674047D01*
X86874047Y-74704523D01*
X86904523Y-74719761D01*
X86935000Y-74719761D01*
X92162380Y-74637142D02*
X92208095Y-74652380D01*
X92223333Y-74667619D01*
X92238571Y-74698095D01*
X92238571Y-74743809D01*
X92223333Y-74774285D01*
X92208095Y-74789523D01*
X92177619Y-74804761D01*
X92055714Y-74804761D01*
X92055714Y-74484761D01*
X92162380Y-74484761D01*
X92192857Y-74500000D01*
X92208095Y-74515238D01*
X92223333Y-74545714D01*
X92223333Y-74576190D01*
X92208095Y-74606666D01*
X92192857Y-74621904D01*
X92162380Y-74637142D01*
X92055714Y-74637142D01*
X92421428Y-74804761D02*
X92390952Y-74789523D01*
X92375714Y-74774285D01*
X92360476Y-74743809D01*
X92360476Y-74652380D01*
X92375714Y-74621904D01*
X92390952Y-74606666D01*
X92421428Y-74591428D01*
X92467142Y-74591428D01*
X92497619Y-74606666D01*
X92512857Y-74621904D01*
X92528095Y-74652380D01*
X92528095Y-74743809D01*
X92512857Y-74774285D01*
X92497619Y-74789523D01*
X92467142Y-74804761D01*
X92421428Y-74804761D01*
X92802380Y-74804761D02*
X92802380Y-74637142D01*
X92787142Y-74606666D01*
X92756666Y-74591428D01*
X92695714Y-74591428D01*
X92665238Y-74606666D01*
X92802380Y-74789523D02*
X92771904Y-74804761D01*
X92695714Y-74804761D01*
X92665238Y-74789523D01*
X92650000Y-74759047D01*
X92650000Y-74728571D01*
X92665238Y-74698095D01*
X92695714Y-74682857D01*
X92771904Y-74682857D01*
X92802380Y-74667619D01*
X92954761Y-74804761D02*
X92954761Y-74591428D01*
X92954761Y-74652380D02*
X92970000Y-74621904D01*
X92985238Y-74606666D01*
X93015714Y-74591428D01*
X93046190Y-74591428D01*
X93290000Y-74804761D02*
X93290000Y-74484761D01*
X93290000Y-74789523D02*
X93259523Y-74804761D01*
X93198571Y-74804761D01*
X93168095Y-74789523D01*
X93152857Y-74774285D01*
X93137619Y-74743809D01*
X93137619Y-74652380D01*
X93152857Y-74621904D01*
X93168095Y-74606666D01*
X93198571Y-74591428D01*
X93259523Y-74591428D01*
X93290000Y-74606666D01*
X93366190Y-74410100D02*
X93686190Y-74410100D01*
X93625238Y-74774285D02*
X93610000Y-74789523D01*
X93564285Y-74804761D01*
X93533809Y-74804761D01*
X93488095Y-74789523D01*
X93457619Y-74759047D01*
X93442380Y-74728571D01*
X93427142Y-74667619D01*
X93427142Y-74621904D01*
X93442380Y-74560952D01*
X93457619Y-74530476D01*
X93488095Y-74500000D01*
X93533809Y-74484761D01*
X93564285Y-74484761D01*
X93610000Y-74500000D01*
X93625238Y-74515238D01*
X93686190Y-74410100D02*
X93975714Y-74410100D01*
X93899523Y-74591428D02*
X93899523Y-74804761D01*
X93762380Y-74591428D02*
X93762380Y-74759047D01*
X93777619Y-74789523D01*
X93808095Y-74804761D01*
X93853809Y-74804761D01*
X93884285Y-74789523D01*
X93899523Y-74774285D01*
X93975714Y-74410100D02*
X94158571Y-74410100D01*
X94006190Y-74591428D02*
X94128095Y-74591428D01*
X94051904Y-74484761D02*
X94051904Y-74759047D01*
X94067142Y-74789523D01*
X94097619Y-74804761D01*
X94128095Y-74804761D01*
X94158571Y-74410100D02*
X94448095Y-74410100D01*
X94280476Y-74804761D02*
X94250000Y-74789523D01*
X94234761Y-74774285D01*
X94219523Y-74743809D01*
X94219523Y-74652380D01*
X94234761Y-74621904D01*
X94250000Y-74606666D01*
X94280476Y-74591428D01*
X94326190Y-74591428D01*
X94356666Y-74606666D01*
X94371904Y-74621904D01*
X94387142Y-74652380D01*
X94387142Y-74743809D01*
X94371904Y-74774285D01*
X94356666Y-74789523D01*
X94326190Y-74804761D01*
X94280476Y-74804761D01*
X94448095Y-74410100D02*
X94737619Y-74410100D01*
X94661428Y-74591428D02*
X94661428Y-74804761D01*
X94524285Y-74591428D02*
X94524285Y-74759047D01*
X94539523Y-74789523D01*
X94570000Y-74804761D01*
X94615714Y-74804761D01*
X94646190Y-74789523D01*
X94661428Y-74774285D01*
X94737619Y-74410100D02*
X94920476Y-74410100D01*
X94768095Y-74591428D02*
X94890000Y-74591428D01*
X94813809Y-74484761D02*
X94813809Y-74759047D01*
X94829047Y-74789523D01*
X94859523Y-74804761D01*
X94890000Y-74804761D01*
X75652380Y-74637142D02*
X75698095Y-74652380D01*
X75713333Y-74667619D01*
X75728571Y-74698095D01*
X75728571Y-74743809D01*
X75713333Y-74774285D01*
X75698095Y-74789523D01*
X75667619Y-74804761D01*
X75545714Y-74804761D01*
X75545714Y-74484761D01*
X75652380Y-74484761D01*
X75682857Y-74500000D01*
X75698095Y-74515238D01*
X75713333Y-74545714D01*
X75713333Y-74576190D01*
X75698095Y-74606666D01*
X75682857Y-74621904D01*
X75652380Y-74637142D01*
X75545714Y-74637142D01*
X75911428Y-74804761D02*
X75880952Y-74789523D01*
X75865714Y-74774285D01*
X75850476Y-74743809D01*
X75850476Y-74652380D01*
X75865714Y-74621904D01*
X75880952Y-74606666D01*
X75911428Y-74591428D01*
X75957142Y-74591428D01*
X75987619Y-74606666D01*
X76002857Y-74621904D01*
X76018095Y-74652380D01*
X76018095Y-74743809D01*
X76002857Y-74774285D01*
X75987619Y-74789523D01*
X75957142Y-74804761D01*
X75911428Y-74804761D01*
X76292380Y-74804761D02*
X76292380Y-74637142D01*
X76277142Y-74606666D01*
X76246666Y-74591428D01*
X76185714Y-74591428D01*
X76155238Y-74606666D01*
X76292380Y-74789523D02*
X76261904Y-74804761D01*
X76185714Y-74804761D01*
X76155238Y-74789523D01*
X76140000Y-74759047D01*
X76140000Y-74728571D01*
X76155238Y-74698095D01*
X76185714Y-74682857D01*
X76261904Y-74682857D01*
X76292380Y-74667619D01*
X76444761Y-74804761D02*
X76444761Y-74591428D01*
X76444761Y-74652380D02*
X76460000Y-74621904D01*
X76475238Y-74606666D01*
X76505714Y-74591428D01*
X76536190Y-74591428D01*
X76780000Y-74804761D02*
X76780000Y-74484761D01*
X76780000Y-74789523D02*
X76749523Y-74804761D01*
X76688571Y-74804761D01*
X76658095Y-74789523D01*
X76642857Y-74774285D01*
X76627619Y-74743809D01*
X76627619Y-74652380D01*
X76642857Y-74621904D01*
X76658095Y-74606666D01*
X76688571Y-74591428D01*
X76749523Y-74591428D01*
X76780000Y-74606666D01*
X76856190Y-74410100D02*
X77176190Y-74410100D01*
X77115238Y-74774285D02*
X77100000Y-74789523D01*
X77054285Y-74804761D01*
X77023809Y-74804761D01*
X76978095Y-74789523D01*
X76947619Y-74759047D01*
X76932380Y-74728571D01*
X76917142Y-74667619D01*
X76917142Y-74621904D01*
X76932380Y-74560952D01*
X76947619Y-74530476D01*
X76978095Y-74500000D01*
X77023809Y-74484761D01*
X77054285Y-74484761D01*
X77100000Y-74500000D01*
X77115238Y-74515238D01*
X77176190Y-74410100D02*
X77465714Y-74410100D01*
X77389523Y-74591428D02*
X77389523Y-74804761D01*
X77252380Y-74591428D02*
X77252380Y-74759047D01*
X77267619Y-74789523D01*
X77298095Y-74804761D01*
X77343809Y-74804761D01*
X77374285Y-74789523D01*
X77389523Y-74774285D01*
X77465714Y-74410100D02*
X77648571Y-74410100D01*
X77496190Y-74591428D02*
X77618095Y-74591428D01*
X77541904Y-74484761D02*
X77541904Y-74759047D01*
X77557142Y-74789523D01*
X77587619Y-74804761D01*
X77618095Y-74804761D01*
X77648571Y-74410100D02*
X77938095Y-74410100D01*
X77770476Y-74804761D02*
X77740000Y-74789523D01*
X77724761Y-74774285D01*
X77709523Y-74743809D01*
X77709523Y-74652380D01*
X77724761Y-74621904D01*
X77740000Y-74606666D01*
X77770476Y-74591428D01*
X77816190Y-74591428D01*
X77846666Y-74606666D01*
X77861904Y-74621904D01*
X77877142Y-74652380D01*
X77877142Y-74743809D01*
X77861904Y-74774285D01*
X77846666Y-74789523D01*
X77816190Y-74804761D01*
X77770476Y-74804761D01*
X77938095Y-74410100D02*
X78227619Y-74410100D01*
X78151428Y-74591428D02*
X78151428Y-74804761D01*
X78014285Y-74591428D02*
X78014285Y-74759047D01*
X78029523Y-74789523D01*
X78060000Y-74804761D01*
X78105714Y-74804761D01*
X78136190Y-74789523D01*
X78151428Y-74774285D01*
X78227619Y-74410100D02*
X78410476Y-74410100D01*
X78258095Y-74591428D02*
X78380000Y-74591428D01*
X78303809Y-74484761D02*
X78303809Y-74759047D01*
X78319047Y-74789523D01*
X78349523Y-74804761D01*
X78380000Y-74804761D01*
M02*
